<svg xmlns="http://www.w3.org/2000/svg" xmlns:cc="http://web.resource.org/cc/" xmlns:svg="http://www.w3.org/2000/svg" xmlns:xlink="http://www.w3.org/1999/xlink" id="svg4801" width="16" height="16"><defs id="defs4803"><linearGradient id="linearGradient12585" x1="511.909" x2="400.043" y1="447.919" y2="302.475" gradientUnits="userSpaceOnUse" xlink:href="#linearGradient3651"/><linearGradient id="linearGradient3651"><stop id="stop3653" offset="0" stop-color="#ff8400" stop-opacity="1"/><stop id="stop16786" offset=".5" stop-color="#ffc768" stop-opacity="1"/><stop id="stop17514" offset=".75" stop-color="#ffc768" stop-opacity="1"/><stop id="stop3655" offset="1" stop-color="#ff8400" stop-opacity="1"/></linearGradient><linearGradient id="linearGradient12583" x1="556.231" x2="493.319" y1="246.372" y2="115.295" gradientUnits="userSpaceOnUse" xlink:href="#linearGradient3651"/><linearGradient id="linearGradient3643"><stop id="stop3510" offset="0" stop-color="#143e7b" stop-opacity="1"/><stop id="stop1334" offset=".505" stop-color="#4375b9" stop-opacity="1"/><stop id="stop4966" offset=".724" stop-color="#6a95c8" stop-opacity="1"/><stop id="stop15307" offset=".902" stop-color="#1c56ab" stop-opacity="1"/><stop id="stop15309" offset=".928" stop-color="#8da9cc" stop-opacity=".957"/><stop id="stop16043" offset="1" stop-color="#386ab2" stop-opacity=".992"/><stop id="stop3647" offset="1" stop-color="#1c56ab" stop-opacity="1"/></linearGradient><linearGradient id="linearGradient12571" x1="445.847" x2="331.004" y1="1000.734" y2="501.438" gradientTransform="translate(45.71426,-157.1429)" gradientUnits="userSpaceOnUse" xlink:href="#linearGradient3643"/><linearGradient id="linearGradient4979" x1="14.03" x2="27.163" y1="22.384" y2="22.384" gradientUnits="userSpaceOnUse" xlink:href="#linearGradient4972"/><radialGradient id="radialGradient2058" cx="24.304" cy="24.488" r="5.613" fx="24.304" fy="24.488" gradientUnits="userSpaceOnUse" xlink:href="#linearGradient4974"/><radialGradient id="radialGradient9564" cx="206.655" cy="-107.246" r="199.676" fx="206.655" fy="-107.246" gradientTransform="matrix(4.666855e-2,0,0,3.04588e-2,7.037083,21.94723)" gradientUnits="userSpaceOnUse" xlink:href="#linearGradient7245"/><linearGradient id="linearGradient7384" x1="6.331" x2="302.609" y1="-166.159" y2="-166.159" gradientTransform="matrix(4.666855e-2,0,0,4.669547e-2,7.037083,23.68855)" gradientUnits="userSpaceOnUse" xlink:href="#linearGradient5061"/><linearGradient id="linearGradient4174"><stop id="stop4176" offset="0" stop-color="#829ae4" stop-opacity="1"/><stop id="stop4178" offset="1" stop-color="#00228a" stop-opacity="1"/></linearGradient><linearGradient id="linearGradient6612"><stop id="stop6614" offset="0" stop-color="#ff8400" stop-opacity=".725"/><stop id="stop6616" offset="1" stop-color="#ffc768" stop-opacity=".816"/></linearGradient><linearGradient id="linearGradient5061"><stop id="stop5063" offset="0" stop-color="#ff8400" stop-opacity=".898"/><stop id="stop5065" offset="1" stop-color="#ffc768" stop-opacity=".816"/></linearGradient><linearGradient id="linearGradient7245"><stop id="stop7247" offset="0" stop-color="#6186f9" stop-opacity="1"/><stop id="stop7249" offset="1" stop-color="#00228a" stop-opacity="1"/></linearGradient><linearGradient id="linearGradient2050"><stop id="stop2052" offset="0" stop-color="#f1ec20" stop-opacity="1"/><stop id="stop2054" offset="1" stop-color="#ffb100" stop-opacity="1"/></linearGradient><linearGradient id="linearGradient4974"><stop id="stop4976" offset="0" stop-color="#ffce00" stop-opacity=".984"/><stop id="stop4978" offset="1" stop-color="#dd6c0c" stop-opacity="1"/></linearGradient><linearGradient id="linearGradient4972"><stop id="stop4974" offset="0" stop-color="#fff" stop-opacity="1"/><stop id="stop4977" offset="1" stop-color="#b0b0b0" stop-opacity=".894"/></linearGradient><linearGradient id="linearGradient2088" x1="14.03" x2="27.163" y1="22.384" y2="22.384" gradientTransform="matrix(0.685321,0,0,0.685321,-3.615061,-2.661298)" gradientUnits="userSpaceOnUse" xlink:href="#linearGradient4972"/><linearGradient id="linearGradient2091" x1="6.331" x2="302.609" y1="-166.159" y2="-166.159" gradientTransform="matrix(4.666855e-2,0,0,4.669547e-2,-9.295427,6.45855)" gradientUnits="userSpaceOnUse" xlink:href="#linearGradient5061"/><radialGradient id="radialGradient2094" cx="206.655" cy="-107.246" r="199.676" fx="206.655" fy="-107.246" gradientTransform="matrix(4.666855e-2,0,0,3.04588e-2,-9.295427,4.71723)" gradientUnits="userSpaceOnUse" xlink:href="#linearGradient7245"/></defs><metadata id="metadata4806"/><g id="layer1"><g id="g12555" display="inline" transform="matrix(4.765379e-2,0,0,4.036858e-2,-15.90036,-3.479076)"><path id="path4159" fill="url(#linearGradient12571)" fill-opacity="1" d="M 372.07308,292.19341 C 374.20151,279.53493 388.59266,240.35628 390.11419,237.69035 C 393.87089,231.10813 454.13902,204.36062 473.38563,199.57863 C 501.00954,192.71522 535.61168,160.19041 538.8172,139.48937 C 545.8615,93.997777 541.34546,224.5607 533.01234,235.44527 C 527.01176,243.28326 540.04345,246.94661 547.53992,258.26225 C 554.35778,268.55334 558.83997,293.71128 559.71515,306.7472 C 560.60875,320.05864 552.27025,332.75709 548.49749,338.11441 C 546.96946,340.28448 355.62394,390.02169 372.07308,292.19341 z M 449.9014,441.95288 C 480.52939,436.5933 527.98039,372.96488 524.28799,367.00829 C 523.7884,366.2022 533.46587,350.14177 531.89408,349.82836 C 474.57811,338.39979 475.95908,281.32842 475.13265,280.81929 C 474.30621,280.31003 390.62798,320.33523 371.34449,328.67153 C 354.98124,335.7454 412.10781,431.27329 421.83486,437.60463 C 433.34239,445.09481 447.28478,442.41076 449.9014,441.95288 z M 515.90781,247.7663 C 532.44656,234.73207 544.57321,101.93054 543.35117,111.55626 C 542.84508,115.54289 541.40316,124.37265 540.14683,131.17792 C 538.89063,137.98328 537.28906,147.80916 536.5878,153.01314 C 535.88661,158.21725 533.9481,167.38805 532.28,173.39268 C 530.6119,179.39742 527.97751,189.37905 526.42574,195.57427 C 524.8741,201.76939 519.65057,217.03025 514.81807,229.48721 C 509.98556,241.94419 506.03165,252.43305 506.03165,252.79576 C 506.03165,254.61482 509.38465,252.90728 515.90781,247.7663 z" opacity="1"/><path id="path8745" fill="url(#linearGradient12583)" fill-opacity="1" fill-rule="evenodd" stroke="none" stroke-linecap="butt" stroke-linejoin="miter" stroke-opacity="1" stroke-width="1" d="M 535.71249,109.03559 C 521.14535,155.04128 517.20394,207.12439 482.57032,262.9148 C 466.7287,288.43364 547.5802,232.31703 555.64714,181.43111 C 560.0841,153.44298 537.84437,102.30272 535.71249,109.03559 z"/><path id="path8003" fill="url(#linearGradient12585)" fill-opacity="1" fill-rule="evenodd" stroke="none" stroke-linecap="butt" stroke-linejoin="miter" stroke-opacity="1" stroke-width="1.122" d="M 437.22329,447.91866 C 474.82289,428.71931 509.077,403.47161 530.78685,356.58797 C 534.46242,348.65038 512.88226,356.34945 496.29538,332.80436 C 479.87203,309.4914 483.74736,285.83004 469.68068,287.72262 C 425.72895,293.63604 367.12531,335.08203 367.12531,335.08203 C 367.12531,335.08203 370.49587,380.43311 382.37589,398.86658 C 406.8703,436.87301 437.22329,447.91866 437.22329,447.91866 z" display="inline" opacity="1"/><path id="path1378" fill="#404e67" fill-opacity="1" fill-rule="nonzero" stroke="none" stroke-opacity="1" d="M 390.95913,251.17245 C 378.0906,278.20776 372.13162,324.71467 376.04976,321.92854 C 414.23822,294.77322 455.02983,287.27288 468.67625,269.58943 C 492.78975,238.34244 501.50446,197.28233 496.1101,199.63106 C 481.52574,205.98116 404.57934,231.80356 390.95913,251.17245 z M 509.23155,390.34402 C 513.79288,386.39814 529.64656,356.51264 526.79174,355.81839 C 486.78524,346.08922 482.88875,328.38854 478.97309,309.12999 C 475.30553,291.09167 475.87133,288.51925 468.29256,291.02249 C 407.05829,311.24792 390.12031,322.36319 380.75072,330.13936 C 366.07331,342.3207 376.36864,375.05198 382.10786,388.0608 C 390.10703,406.19214 419.51623,439.00138 433.19817,441.64343 C 453.15473,445.49715 500.31861,404.61183 509.23155,390.34402 z M 553.73575,279.89363 C 550.41713,266.32078 539.75537,248.84046 536.91442,248.84046 C 534.23894,248.84046 505.9097,270.76163 498.59252,278.39962 C 481.98536,295.73452 490.07884,327.14814 508.50113,337.92335 C 539.68207,356.16111 562.57997,316.06551 553.73575,279.89363 z M 530.22589,227.98107 C 548.47926,202.3777 555.69493,179.98592 550.93052,156.48452 C 547.06572,137.42064 536.73207,118.42504 536.46043,120.22412 C 530.3723,160.54658 514.80084,214.3227 488.48465,259.97304 C 478.85497,276.67751 508.7885,249.39534 530.22589,227.98107 z M 430.29738,452.36517 C 406.16893,434.97177 345.61097,394.59323 370.07331,289.86177 C 375.94219,264.73514 377.9289,251.71428 388.8744,239.01017 C 397.69671,228.77038 446.76967,209.95337 493.28379,185.41554 C 519.12404,171.7839 526.18262,123.07764 532.4237,86.182765 C 546.94318,120.40736 582.47138,174.00856 541.19292,224.89348 C 539.65526,226.78899 539.3141,232.12755 545.60307,242.51941 C 558.66941,264.11042 566.91753,291.29535 563.85759,310.75155 C 552.28667,384.32356 447.75275,464.94815 430.29738,452.36517 z"/></g><rect id="rect4243" width="8.729" height="6.371" x="6.136" y="9.494" fill="url(#linearGradient2088)" fill-opacity="1" fill-rule="nonzero" stroke="#7e8ba3" stroke-dasharray="none" stroke-linecap="round" stroke-linejoin="round" stroke-miterlimit="4" stroke-opacity="1" stroke-width=".271" opacity=".989"/></g></svg>