<svg xmlns="http://www.w3.org/2000/svg" xmlns:svg="http://www.w3.org/2000/svg" xmlns:xlink="http://www.w3.org/1999/xlink" id="svg2" width="744.094" height="1052.362" version="1.1"><defs id="defs4"><linearGradient id="linearGradient7267"><stop id="stop7269" offset="0" stop-color="#095ebf" stop-opacity=".988"/><stop id="stop7271" offset="1" stop-color="#fff" stop-opacity="1"/></linearGradient><linearGradient id="linearGradient6944"><stop id="stop6946" offset="0" stop-color="#fff" stop-opacity="1"/><stop id="stop6948" offset="1" stop-color="#fff" stop-opacity="0"/></linearGradient><linearGradient id="linearGradient13635"><stop id="stop13637" offset="0" stop-color="#f1a6aa" stop-opacity=".988"/><stop id="stop13639" offset="1" stop-color="#fff" stop-opacity="1"/></linearGradient><linearGradient id="linearGradient20674"><stop id="stop20676" offset="0" stop-color="#dfe6f1" stop-opacity="1"/><stop id="stop20678" offset="1" stop-color="#fff" stop-opacity="1"/></linearGradient><linearGradient id="linearGradient5608"><stop id="stop5610" offset="0" stop-color="#fff" stop-opacity="1"/><stop id="stop5612" offset="1" stop-color="#f9ffc5" stop-opacity="0"/></linearGradient><linearGradient id="linearGradient15050"><stop id="stop15052" offset="0" stop-color="#fff" stop-opacity="1"/><stop id="stop15054" offset="1" stop-color="#fff" stop-opacity="0"/></linearGradient><linearGradient id="linearGradient4262"><stop id="stop4264" offset="0" stop-color="#fcdca7" stop-opacity="1"/><stop id="stop4266" offset="1" stop-color="#fff" stop-opacity="1"/></linearGradient><linearGradient id="linearGradient5614" x1="158.551" x2="181.132" y1="418.197" y2="440.798" gradientTransform="matrix(0.900821,0,0,0.900821,111.1305,42.804554)" gradientUnits="userSpaceOnUse" xlink:href="#linearGradient5608"/><linearGradient id="linearGradient7412" x1="-33.992" x2="-13.66" y1="251.349" y2="264.467" gradientTransform="matrix(0.438973,0.374357,0.330097,-0.387072,142.9729,539.0856)" gradientUnits="userSpaceOnUse" xlink:href="#linearGradient15050"/><linearGradient id="linearGradient7415" x1="-25.24" x2="-9.096" y1="254.022" y2="254.022" gradientTransform="matrix(0.63168,0.538698,0.464872,-0.54511,113.6667,584.4578)" gradientUnits="userSpaceOnUse" xlink:href="#linearGradient20674"/><linearGradient id="linearGradient10961" x1="-34.27" x2="-8.82" y1="250.856" y2="253.882" gradientTransform="matrix(-0.441935,-0.376883,-0.332324,0.389684,342.8205,328.51445)" gradientUnits="userSpaceOnUse" xlink:href="#linearGradient15050"/><linearGradient id="linearGradient10964" x1="-32.972" x2="-6.57" y1="253.718" y2="254.261" gradientTransform="matrix(-0.63168,-0.538698,-0.464872,0.54511,372.0445,284.18635)" gradientUnits="userSpaceOnUse" xlink:href="#linearGradient4262"/><linearGradient id="linearGradient13654" x1="-34.27" x2="-8.82" y1="250.856" y2="253.882" gradientTransform="matrix(2.7459906,-2.341751,2.0649193,2.4213184,-220.52967,-523.77463)" gradientUnits="userSpaceOnUse" xlink:href="#linearGradient15050"/><linearGradient id="linearGradient13657" x1="-32.972" x2="-6.57" y1="253.718" y2="254.261" gradientTransform="matrix(3.9249617,-3.3472142,2.8885049,3.3870545,-402.1135,-799.20714)" gradientUnits="userSpaceOnUse" xlink:href="#linearGradient13635-6"/><linearGradient id="linearGradient13660" x1="158.551" x2="181.132" y1="418.197" y2="440.798" gradientTransform="matrix(5.5972841,0,0,5.5972841,-714.77763,-2296.306)" gradientUnits="userSpaceOnUse" xlink:href="#linearGradient5608"/><linearGradient id="linearGradient15439" x1="158.551" x2="181.132" y1="418.197" y2="440.798" gradientTransform="matrix(0.938914,0,0,0.938914,55.9478,27.91144)" gradientUnits="userSpaceOnUse" xlink:href="#linearGradient5608"/><linearGradient id="linearGradient13654-5" x1="-34.27" x2="-1.316" y1="250.856" y2="251.953" gradientTransform="matrix(2.7459906,-2.341751,2.0649193,2.4213184,-6.2102994,-523.01431)" gradientUnits="userSpaceOnUse" xlink:href="#linearGradient15050-9"/><linearGradient id="linearGradient15050-9"><stop id="stop15052-0" offset="0" stop-color="#fff" stop-opacity="1"/><stop id="stop15054-1" offset="1" stop-color="#fff" stop-opacity="0"/></linearGradient><linearGradient id="linearGradient13635-6"><stop id="stop13637-9" offset="0" stop-color="#fcf8a7" stop-opacity="1"/><stop id="stop13639-0" offset="1" stop-color="#fff" stop-opacity="1"/></linearGradient><linearGradient id="linearGradient13660-4" x1="158.551" x2="181.132" y1="418.197" y2="440.798" gradientTransform="matrix(5.5972841,0,0,5.5972841,-500.45825,-2295.5457)" gradientUnits="userSpaceOnUse" xlink:href="#linearGradient5608-0"/><linearGradient id="linearGradient5608-0"><stop id="stop5610-2" offset="0" stop-color="#fff" stop-opacity="1"/><stop id="stop5612-4" offset="1" stop-color="#f9ffc5" stop-opacity="0"/></linearGradient><linearGradient id="linearGradient7442" x1="189.368" x2="215.593" y1="420.993" y2="445.398" gradientTransform="matrix(-5.9614449,0,0,5.9614449,1695.982,-2473.7108)" gradientUnits="userSpaceOnUse" xlink:href="#linearGradient13635"/><linearGradient id="linearGradient6064" x1="1430.377" x2="1430.215" y1="1033.967" y2="1073.977" gradientTransform="translate(-1366.8689,-613.24026)" gradientUnits="userSpaceOnUse" xlink:href="#linearGradient6450-59-1-8"/><linearGradient id="linearGradient6450-59-1-8"><stop id="stop3683-89-5-4" offset="0" stop-color="#fff" stop-opacity="1"/><stop id="stop3685-1-6-0" offset="1" stop-color="#fff" stop-opacity="0"/></linearGradient><linearGradient id="linearGradient6012" x1="1432.823" x2="1432.729" y1="1098.968" y2="1054.152" gradientTransform="matrix(0.94812709,0,0,0.90882834,-1276.0831,-530.29128)" gradientUnits="userSpaceOnUse" xlink:href="#linearGradient6450-59-1-8"/><linearGradient id="linearGradient6227"><stop id="stop6229" offset="0" stop-color="#fff" stop-opacity="1"/><stop id="stop6231" offset="1" stop-color="#fff" stop-opacity="0"/></linearGradient><linearGradient id="linearGradient5982" x1="1376.722" x2="1376.986" y1="1028.047" y2="1067.915" gradientTransform="matrix(0.94035453,0,0,0.95429434,-1234.0006,-577.76721)" gradientUnits="userSpaceOnUse" xlink:href="#linearGradient6450-59-1-8"/><linearGradient id="linearGradient6234"><stop id="stop6236" offset="0" stop-color="#fff" stop-opacity="1"/><stop id="stop6238" offset="1" stop-color="#fff" stop-opacity="0"/></linearGradient><linearGradient id="linearGradient6450-59-1-8-3"><stop id="stop3683-89-5-4-5" offset="0" stop-color="#fff" stop-opacity="1"/><stop id="stop3685-1-6-0-9" offset="1" stop-color="#fff" stop-opacity="0"/></linearGradient><linearGradient id="linearGradient6370"><stop id="stop6372" offset="0" stop-color="#fff" stop-opacity="1"/><stop id="stop6374" offset="1" stop-color="#fff" stop-opacity="0"/></linearGradient><linearGradient id="linearGradient6377"><stop id="stop6379" offset="0" stop-color="#fff" stop-opacity="1"/><stop id="stop6381" offset="1" stop-color="#fff" stop-opacity="0"/></linearGradient><linearGradient id="linearGradient6950" x1="31.366" x2="124.483" y1="389.177" y2="457.843" gradientTransform="matrix(0.92539729,0,0,0.92390179,7.4262385,35.314088)" gradientUnits="userSpaceOnUse" xlink:href="#linearGradient6944"/><linearGradient id="linearGradient15050-2"><stop id="stop15052-8" offset="0" stop-color="#fff" stop-opacity="1"/><stop id="stop15054-4" offset="1" stop-color="#fff" stop-opacity="0"/></linearGradient><linearGradient id="linearGradient13635-6-1"><stop id="stop13637-9-0" offset="0" stop-color="#fcf8a7" stop-opacity="1"/><stop id="stop13639-0-8" offset="1" stop-color="#fff" stop-opacity="1"/></linearGradient><linearGradient id="linearGradient5608-4"><stop id="stop5610-9" offset="0" stop-color="#fff" stop-opacity="1"/><stop id="stop5612-5" offset="1" stop-color="#f9ffc5" stop-opacity="0"/></linearGradient><linearGradient id="linearGradient7053" x1="137.844" x2="182.561" y1="526.217" y2="526.217" gradientUnits="userSpaceOnUse" xlink:href="#linearGradient5608-4"/><linearGradient id="linearGradient13635-6-1-2"><stop id="stop13637-9-0-4" offset="0" stop-color="#fcf8a7" stop-opacity="1"/><stop id="stop13639-0-8-4" offset="1" stop-color="#fff" stop-opacity="1"/></linearGradient><linearGradient id="linearGradient7053-1" x1="137.844" x2="182.561" y1="526.217" y2="526.217" gradientUnits="userSpaceOnUse" xlink:href="#linearGradient5608-4-9"/><linearGradient id="linearGradient5608-4-9"><stop id="stop5610-9-0" offset="0" stop-color="#fff" stop-opacity="1"/><stop id="stop5612-5-2" offset="1" stop-color="#f9ffc5" stop-opacity="0"/></linearGradient><linearGradient id="linearGradient15050-9-2"><stop id="stop15052-0-0" offset="0" stop-color="#fff" stop-opacity="1"/><stop id="stop15054-1-3" offset="1" stop-color="#fff" stop-opacity="0"/></linearGradient><linearGradient id="linearGradient7442-8" x1="189.368" x2="215.593" y1="420.993" y2="445.398" gradientTransform="matrix(-1,0,0,1,412.71427,0)" gradientUnits="userSpaceOnUse" xlink:href="#linearGradient13635-2"/><linearGradient id="linearGradient13635-2"><stop id="stop13637-1" offset="0" stop-color="#f1a6aa" stop-opacity=".988"/><stop id="stop13639-6" offset="1" stop-color="#fff" stop-opacity="1"/></linearGradient><linearGradient id="linearGradient7179" x1="-32.972" x2="-6.57" y1="253.718" y2="254.261" gradientTransform="matrix(0.658391,-0.561477,0.484531,0.56816,44.209138,367.57907)" gradientUnits="userSpaceOnUse" xlink:href="#linearGradient13635-6-1"/><linearGradient id="linearGradient7181" x1="-34.27" x2="-8.82" y1="250.856" y2="253.882" gradientTransform="matrix(0.460625,-0.392816,0.346379,0.406163,74.66884,413.78136)" gradientUnits="userSpaceOnUse" xlink:href="#linearGradient15050-2"/><linearGradient id="linearGradient7187" x1="189.368" x2="215.593" y1="420.993" y2="445.398" gradientTransform="matrix(-1,0,0,1,421.32782,88.017293)" gradientUnits="userSpaceOnUse" xlink:href="#linearGradient13635-2"/><linearGradient id="linearGradient7189" x1="-34.27" x2="-1.316" y1="250.856" y2="251.953" gradientTransform="matrix(0.460625,-0.392816,0.346379,0.406163,135.79431,415.23604)" gradientUnits="userSpaceOnUse" xlink:href="#linearGradient15050-9-2"/><linearGradient id="linearGradient13635-2-9"><stop id="stop13637-1-7" offset="0" stop-color="#f1a6aa" stop-opacity=".988"/><stop id="stop13639-6-3" offset="1" stop-color="#fff" stop-opacity="1"/></linearGradient><linearGradient id="linearGradient15050-9-2-8"><stop id="stop15052-0-0-6" offset="0" stop-color="#fff" stop-opacity="1"/><stop id="stop15054-1-3-1" offset="1" stop-color="#fff" stop-opacity="0"/></linearGradient><linearGradient id="linearGradient7053-1-1" x1="137.844" x2="182.561" y1="526.217" y2="526.217" gradientUnits="userSpaceOnUse" xlink:href="#linearGradient5608-4-9-5"/><linearGradient id="linearGradient5608-4-9-5"><stop id="stop5610-9-0-6" offset="0" stop-color="#fff" stop-opacity="1"/><stop id="stop5612-5-2-9" offset="1" stop-color="#f9ffc5" stop-opacity="0"/></linearGradient><linearGradient id="linearGradient7301" x1="-8.95" x2="-60.416" y1="262.106" y2="259.555" gradientTransform="matrix(-2.4198402,2.0636134,-1.819662,-2.1337304,784.69972,920.84916)" gradientUnits="userSpaceOnUse" xlink:href="#linearGradient15050-9-2-8"/><linearGradient id="linearGradient7303" x1="236.388" x2="201.161" y1="458.702" y2="428.131" gradientTransform="matrix(5.2533844,0,0,-5.2533844,-715.31756,2639.855)" gradientUnits="userSpaceOnUse" xlink:href="#linearGradient7267"/></defs><metadata id="metadata7"/><g id="layer1"><path id="path7023" fill="#f6be3d" fill-opacity=".988" stroke="none" d="m 182.56099,526.21735 a 22.358593,23.99959 0 1 1 -44.71719,0 22.358593,23.99959 0 1 1 44.71719,0 z" transform="matrix(3.7328033,0,0,3.477569,-405.8277,-1486.1205)"/><rect id="rect12736" width="190.766" height="190.766" x="158.528" y="35.226" fill="#f6be3d" fill-opacity="1" stroke="none" opacity=".99" rx="41.73" ry="41.73"/><rect id="rect12738" width="171.846" height="171.846" x="169.644" y="47.541" fill="url(#linearGradient13660)" fill-opacity="1" stroke="none" opacity=".99" rx="41.73" ry="41.73"/><path id="path12740" fill="url(#linearGradient13657)" fill-opacity="1" fill-rule="evenodd" stroke="#ffd24a" stroke-dasharray="none" stroke-linecap="round" stroke-linejoin="round" stroke-miterlimit="4" stroke-opacity="1" stroke-width="3.354" d="m 204.08193,111.15413 -5.98529,64.755 64.24298,3.15551 -17.86139,-21.33714 60.37698,-51.02973 -23.20802,-27.213762 -60.34497,51.692232 -17.22029,-20.02211 z"/><path id="path12742" fill="url(#linearGradient13654)" fill-opacity="1" fill-rule="evenodd" stroke="none" d="m 214.32399,125.73463 -3.73806,45.83058 45.38168,2.71925 -13.52289,-17.4935 53.67584,-45.13136 -17.83509,-22.293662 -54.71182,46.658442 -9.24966,-10.28975 z"/><rect id="rect12736-4" width="190.766" height="190.766" x="372.848" y="35.987" fill="#bf0913" fill-opacity="1" stroke="none" opacity=".99" rx="41.73" ry="41.73"/><rect id="rect12738-1" width="171.846" height="171.846" x="383.963" y="48.302" fill="url(#linearGradient13660-4)" fill-opacity="1" stroke="none" opacity=".99" rx="41.73" ry="41.73"/><path id="path12740-9" fill="url(#linearGradient7442)" fill-opacity="1" fill-rule="evenodd" stroke="#bf0913" stroke-dasharray="none" stroke-linecap="round" stroke-linejoin="round" stroke-miterlimit="4" stroke-opacity=".988" stroke-width="3.354" d="m 418.4013,111.91445 -5.98529,64.75501 64.24298,3.15551 -17.86139,-21.33715 60.37698,-51.02973 -23.20802,-27.213752 -60.34497,51.692222 -17.22029,-20.02211 z"/><path id="path12742-0" fill="url(#linearGradient13654-5)" fill-opacity="1" fill-rule="evenodd" stroke="none" d="m 428.64336,126.49495 -3.73806,45.83058 45.38168,2.71925 -13.52289,-17.4935 53.67584,-45.13136 -17.83509,-22.293652 -54.71182,46.658442 -9.24966,-10.28976 z"/><path id="path7023-5" fill="url(#linearGradient7053)" fill-opacity="1" stroke="none" d="m 182.56099,526.21735 a 22.358593,23.99959 0 1 1 -44.71719,0 22.358593,23.99959 0 1 1 44.71719,0 z" transform="matrix(3.3499582,0,0,3.1209013,-346.02496,-1299.3516)"/><g id="g7175" transform="matrix(5.2532414,0,0,5.2532414,-613.06466,-2407.576)"><path id="path12740-2" fill="url(#linearGradient7179)" fill-opacity="1" fill-rule="evenodd" stroke="#ffd24a" stroke-dasharray="none" stroke-linecap="round" stroke-linejoin="round" stroke-miterlimit="4" stroke-opacity="1" stroke-width=".563" d="m 145.89513,520.28721 -1.004,10.8623 10.77641,0.52932 -2.99615,-3.57919 10.12791,-8.55996 -3.89302,-4.56496 -10.12254,8.67109 -2.88861,-3.3586 z"/><path id="path12742-3" fill="url(#linearGradient7181)" fill-opacity="1" fill-rule="evenodd" stroke="none" d="m 147.61318,522.73301 -0.62704,7.68783 7.61253,0.45614 -2.26839,-2.93444 9.00383,-7.57054 -2.99174,-3.73964 -9.17761,7.8267 -1.55158,-1.72605 z"/></g><path id="path7023-1" fill="#bf0913" fill-opacity=".988" stroke="none" d="m 182.56099,526.21735 a 22.358593,23.99959 0 1 1 -44.71719,0 22.358593,23.99959 0 1 1 44.71719,0 z" transform="matrix(3.7328033,0,0,3.477569,-44.174271,-1487.9537)"/><path id="path7023-5-5" fill="url(#linearGradient7053-1)" fill-opacity="1" stroke="none" d="m 182.56099,526.21735 a 22.358593,23.99959 0 1 1 -44.71719,0 22.358593,23.99959 0 1 1 44.71719,0 z" transform="matrix(3.3499582,0,0,3.1209013,15.628441,-1301.1848)"/><g id="g7183" transform="matrix(5.2533844,0,0,5.2533844,-572.25047,-2418.5449)"><path id="path12740-9-8" fill="url(#linearGradient7187)" fill-opacity="1" fill-rule="evenodd" stroke="#bf0913" stroke-dasharray="none" stroke-linecap="round" stroke-linejoin="round" stroke-miterlimit="4" stroke-opacity=".988" stroke-width=".563" d="m 207.0206,521.74188 -1.004,10.8623 10.77641,0.52932 -2.99615,-3.57919 10.12791,-8.55996 -3.89302,-4.56496 -10.12254,8.67109 -2.88861,-3.3586 z"/><path id="path12742-0-3" fill="url(#linearGradient7189)" fill-opacity="1" fill-rule="evenodd" stroke="none" d="m 208.73865,524.18768 -0.62704,7.68783 7.61253,0.45614 -2.26839,-2.93444 9.00383,-7.57054 -2.99174,-3.73964 -9.17761,7.8267 -1.55158,-1.72605 z"/></g><path id="path7023-1-8" fill="#095ebf" fill-opacity=".988" stroke="none" d="m 182.56099,526.21735 a 22.358593,23.99959 0 1 1 -44.71719,0 22.358593,23.99959 0 1 1 44.71719,0 z" transform="matrix(3.7328033,0,0,3.477569,-227.60026,-1485.8134)"/><path id="path7023-5-5-0" fill="url(#linearGradient7053-1-1)" fill-opacity="1" stroke="none" d="m 182.56099,526.21735 a 22.358593,23.99959 0 1 1 -44.71719,0 22.358593,23.99959 0 1 1 44.71719,0 z" transform="matrix(3.3499582,0,0,3.1209013,-167.79753,-1299.0446)"/><path id="path12740-9-8-2" fill="url(#linearGradient7303)" fill-opacity="1" fill-rule="evenodd" stroke="#095ebf" stroke-dasharray="none" stroke-linecap="round" stroke-linejoin="round" stroke-miterlimit="4" stroke-opacity=".988" stroke-width="2.956" d="m 410.52069,361.33302 5.27439,-57.06384 -56.61263,-2.78072 15.73995,18.80288 -53.20584,44.96872 20.45151,23.98153 53.17764,-45.5526 15.17498,17.64403 z"/><path id="path12742-0-3-6" fill="url(#linearGradient7301)" fill-opacity="1" fill-rule="evenodd" stroke="none" d="m 401.49506,348.48426 3.29412,-40.38712 -39.99158,-2.39626 11.91675,15.41576 -47.30055,39.77094 15.71675,19.64577 48.21349,-41.11669 8.15102,9.0676 z"/></g></svg>