<svg xmlns="http://www.w3.org/2000/svg" xmlns:svg="http://www.w3.org/2000/svg" xmlns:xlink="http://www.w3.org/1999/xlink" id="svg9835" width="744.094" height="1052.362"><defs id="defs9837"><linearGradient id="linearGradient12993" x1="-357.552" x2="-360.552" y1="179.776" y2="182.49" gradientUnits="userSpaceOnUse" xlink:href="#linearGradient20674"/><linearGradient id="linearGradient20674"><stop id="stop20676" offset="0" stop-color="#93aacc" stop-opacity="1"/><stop id="stop20678" offset="1" stop-color="#f8f8f8" stop-opacity="1"/></linearGradient><linearGradient id="linearGradient12991" x1="-410.665" x2="-352.577" y1="191.469" y2="191.469" gradientUnits="userSpaceOnUse" xlink:href="#linearGradient20674"/><linearGradient id="linearGradient9854" x1="-357.552" x2="-360.552" y1="179.776" y2="182.49" gradientTransform="matrix(20.059653,0,0,20.059653,7686.7186,-3325.5782)" gradientUnits="userSpaceOnUse" xlink:href="#linearGradient20674"/><linearGradient id="linearGradient9857" x1="-410.665" x2="-352.577" y1="191.469" y2="191.469" gradientTransform="matrix(20.059653,0,0,20.059653,7686.7186,-3325.5782)" gradientUnits="userSpaceOnUse" xlink:href="#linearGradient20674"/><linearGradient id="linearGradient10637" x1="696.443" x2="1200.7" y1="515.219" y2="515.219" gradientUnits="userSpaceOnUse" xlink:href="#linearGradient20674"/><linearGradient id="linearGradient10649" x1="696.443" x2="1200.7" y1="515.219" y2="515.219" gradientUnits="userSpaceOnUse" xlink:href="#linearGradient20674"/><linearGradient id="linearGradient10654" x1="1124.219" x2="1205.6" y1="260.938" y2="175.337" gradientTransform="matrix(-1,0,0,-1,2249.0089,521.01791)" gradientUnits="userSpaceOnUse" xlink:href="#linearGradient20674"/><linearGradient id="linearGradient10656" x1="282.157" x2="1066.414" y1="515.219" y2="515.219" gradientUnits="userSpaceOnUse" xlink:href="#linearGradient20674"/></defs><metadata id="metadata9840"/><g id="layer1"><path id="path12987" fill="url(#linearGradient9857)" fill-opacity="1" fill-rule="nonzero" stroke="#646464" stroke-dasharray="none" stroke-linecap="round" stroke-linejoin="round" stroke-miterlimit="4" stroke-opacity="1" stroke-width="13.641" d="M 131.5546,181.93939 C 126.51903,181.93939 122.55985,185.89836 122.55985,190.93413 L 122.55985,839.50444 C 122.55985,844.54002 126.51883,848.49919 131.5546,848.49919 L 598.33591,848.49919 C 603.37148,848.49919 607.33066,844.54022 607.33066,839.50444 L 607.33066,323.01511 L 466.25473,181.93939 L 131.5546,181.93939 z"/><path id="path12989" fill="url(#linearGradient9854)" fill-opacity="1" fill-rule="nonzero" stroke="#646464" stroke-dasharray="none" stroke-linecap="round" stroke-linejoin="round" stroke-miterlimit="4" stroke-opacity="1" stroke-width="13.641" d="M 464.77773,181.99616 C 463.56974,183.53894 460.99047,183.66311 460.99047,185.78342 L 460.99047,319.28462 C 460.99047,324.3202 464.94945,328.27957 469.98522,328.27957 L 603.48662,328.27957 C 605.60693,328.27957 605.7311,325.7003 607.27389,324.49231 L 607.27389,323.07208 L 466.19796,181.99616 L 464.77773,181.99616 z"/><path id="path10652" fill="url(#linearGradient10656)" fill-opacity="1" stroke="#787878" stroke-dasharray="none" stroke-dashoffset="0" stroke-linecap="round" stroke-linejoin="round" stroke-miterlimit="4" stroke-opacity="1" stroke-width="11.2" d="M 1048.4375 180.9375 L 737.15625 180.9375 C 714.99625 180.9375 697.15625 198.7775 697.15625 220.9375 L 697.15625 809.5 C 697.15625 831.66 714.99625 849.50002 737.15625 849.5 L 1160 849.5 C 1182.16 849.5 1200 831.66002 1200 809.5 L 1200 340.9375 C 1200 340.9375 1194.7026 335.3285 1048.4375 180.9375 z" opacity="1"/><path id="rect9859" fill="url(#linearGradient10654)" fill-opacity="1" stroke="#787878" stroke-dasharray="none" stroke-dashoffset="0" stroke-linecap="round" stroke-linejoin="round" stroke-miterlimit="4" stroke-opacity="1" stroke-width="11.2" d="M 1200.5714,340.08041 C 1054.3063,185.68931 1049.0089,180.08031 1049.0089,180.08031 L 1049.0089,300.08031 C 1049.0089,322.24031 1066.8489,340.08041 1089.0089,340.08041 L 1200.5714,340.08041 z" opacity="1"/></g></svg>