<svg xmlns="http://www.w3.org/2000/svg" xmlns:cc="http://web.resource.org/cc/" xmlns:svg="http://www.w3.org/2000/svg" xmlns:xlink="http://www.w3.org/1999/xlink" id="svg5002" width="32" height="32"><defs id="defs5004"><linearGradient id="linearGradient7210"><stop id="stop7212" offset="0" stop-color="#cbcbcb" stop-opacity="1"/><stop id="stop7214" offset=".5" stop-color="#fff" stop-opacity="1"/><stop id="stop7216" offset="1" stop-color="#cbcbcb" stop-opacity="1"/></linearGradient><linearGradient id="linearGradient15929"><stop id="stop15931" offset="0" stop-color="#ffc768" stop-opacity="1"/><stop id="stop7951" offset=".5" stop-color="#fff" stop-opacity="1"/><stop id="stop15933" offset="1" stop-color="#ffc768" stop-opacity="1"/></linearGradient><linearGradient id="linearGradient5028" x1="-730.445" x2="-779.113" y1="319.149" y2="318.958" gradientTransform="matrix(0.158115,0.000000,0.000000,0.150054,122.2970,-22.11716)" gradientUnits="userSpaceOnUse" xlink:href="#linearGradient15929"/><linearGradient id="linearGradient1342" x1="-357.552" x2="-360.552" y1="179.776" y2="182.49" gradientUnits="userSpaceOnUse" xlink:href="#linearGradient20674"/><linearGradient id="linearGradient1340" x1="-403.405" x2="-352.577" y1="191.469" y2="191.469" gradientUnits="userSpaceOnUse" xlink:href="#linearGradient20674"/><linearGradient id="linearGradient1330" x1="-357.552" x2="-360.552" y1="179.776" y2="182.49" gradientUnits="userSpaceOnUse" xlink:href="#linearGradient20674"/><linearGradient id="linearGradient1328" x1="-403.405" x2="-352.577" y1="191.469" y2="191.469" gradientUnits="userSpaceOnUse" xlink:href="#linearGradient20674"/><linearGradient id="linearGradient11426" x1="-406.239" x2="-352.577" y1="191.469" y2="191.469" gradientUnits="userSpaceOnUse" xlink:href="#linearGradient20674"/><linearGradient id="linearGradient20674"><stop id="stop20676" offset="0" stop-color="#93aacc" stop-opacity="1"/><stop id="stop20678" offset="1" stop-color="#f8f8f8" stop-opacity="1"/></linearGradient><linearGradient id="linearGradient11428" x1="-357.552" x2="-360.552" y1="179.776" y2="182.49" gradientUnits="userSpaceOnUse" xlink:href="#linearGradient20674"/><linearGradient id="linearGradient11430" x1="-386.969" x2="-352.577" y1="191.469" y2="191.469" gradientUnits="userSpaceOnUse" xlink:href="#linearGradient20674"/><linearGradient id="linearGradient11432" x1="-357.552" x2="-360.552" y1="179.776" y2="182.49" gradientUnits="userSpaceOnUse" xlink:href="#linearGradient20674"/><linearGradient id="linearGradient10026"><stop id="stop10028" offset="0" stop-color="#cbcbcb" stop-opacity="1"/><stop id="stop10030" offset=".5" stop-color="#fff" stop-opacity="1"/><stop id="stop15935" offset="1" stop-color="#cbcbcb" stop-opacity="1"/></linearGradient><linearGradient id="linearGradient10077" x1="-567.311" x2="-567.127" y1="166.561" y2="211.99" gradientTransform="matrix(0.164338,0.000000,0.000000,1.122383,91.82167,-211.2022)" gradientUnits="userSpaceOnUse" xlink:href="#linearGradient15929"/><linearGradient id="linearGradient10091" x1="-861.955" x2="-772.064" y1="319.15" y2="319.15" gradientUnits="userSpaceOnUse" xlink:href="#linearGradient7210"/><linearGradient id="linearGradient12273" x1="-357.552" x2="-360.552" y1="179.776" y2="182.49" gradientTransform="matrix(0.361982,0.000000,0.000000,0.345716,139.2073,-47.05798)" gradientUnits="userSpaceOnUse" xlink:href="#linearGradient7210"/><linearGradient id="linearGradient12276" x1="-406.239" x2="-352.577" y1="191.469" y2="191.469" gradientTransform="matrix(0.361982,0.000000,0.000000,0.345716,139.2073,-47.05798)" gradientUnits="userSpaceOnUse" xlink:href="#linearGradient7210"/><linearGradient id="linearGradient15186" x1="-406.239" x2="-337.057" y1="191.469" y2="191.469" gradientTransform="matrix(0.361982,0.000000,0.000000,0.345716,139.2073,-47.05798)" gradientUnits="userSpaceOnUse" xlink:href="#linearGradient7210"/><linearGradient id="linearGradient15188" x1="-357.552" x2="-360.552" y1="179.776" y2="182.49" gradientTransform="matrix(0.361982,0.000000,0.000000,0.345716,139.2073,-47.05798)" gradientUnits="userSpaceOnUse" xlink:href="#linearGradient7210"/><linearGradient id="linearGradient15192" x1="-730.445" x2="-779.113" y1="319.149" y2="318.958" gradientTransform="matrix(0.158115,0.000000,0.000000,0.150054,137.2778,-24.34254)" gradientUnits="userSpaceOnUse" xlink:href="#linearGradient15929"/><linearGradient id="linearGradient15197" x1="-730.445" x2="-779.113" y1="319.149" y2="318.958" gradientTransform="matrix(0.158115,0.000000,0.000000,0.150054,138.2927,-29.32766)" gradientUnits="userSpaceOnUse" xlink:href="#linearGradient15929"/><linearGradient id="linearGradient15203" x1="-730.445" x2="-779.113" y1="319.149" y2="318.958" gradientTransform="matrix(0.158115,0.000000,0.000000,0.150054,138.3239,-22.32766)" gradientUnits="userSpaceOnUse" xlink:href="#linearGradient15929"/><linearGradient id="linearGradient15205" x1="-730.445" x2="-779.113" y1="319.149" y2="318.958" gradientTransform="matrix(0.158115,0.000000,0.000000,0.150054,138.2927,-16.54641)" gradientUnits="userSpaceOnUse" xlink:href="#linearGradient15929"/><linearGradient id="linearGradient15945" x1="-730.445" x2="-779.113" y1="319.149" y2="318.958" gradientTransform="matrix(0.158115,0.000000,0.000000,0.150054,122.3412,-21.92508)" gradientUnits="userSpaceOnUse" xlink:href="#linearGradient7210"/><linearGradient id="linearGradient15955" x1="-847.894" x2="-782.625" y1="319.15" y2="319.15" gradientUnits="userSpaceOnUse" xlink:href="#linearGradient7210"/><linearGradient id="linearGradient15957" x1="-406.239" x2="-337.057" y1="191.469" y2="191.469" gradientTransform="matrix(0.361982,0.000000,0.000000,0.345716,139.2073,-47.05798)" gradientUnits="userSpaceOnUse" xlink:href="#linearGradient7210"/><linearGradient id="linearGradient15959" x1="-357.552" x2="-360.552" y1="179.776" y2="182.49" gradientTransform="matrix(0.361982,0.000000,0.000000,0.345716,139.2073,-47.05798)" gradientUnits="userSpaceOnUse" xlink:href="#linearGradient7210"/><linearGradient id="linearGradient15961" x1="-730.445" x2="-779.113" y1="319.149" y2="318.958" gradientTransform="matrix(0.158115,0.000000,0.000000,0.150054,122.2970,-22.11716)" gradientUnits="userSpaceOnUse" xlink:href="#linearGradient15929"/><linearGradient id="linearGradient15963" x1="-730.445" x2="-779.113" y1="319.149" y2="318.958" gradientTransform="matrix(0.158115,0.000000,0.000000,0.150054,122.3412,-21.92508)" gradientUnits="userSpaceOnUse" xlink:href="#linearGradient7210"/><linearGradient id="linearGradient1367" x1="-730.445" x2="-779.113" y1="319.149" y2="318.958" gradientTransform="matrix(0.187996,0.000000,0.000000,0.151176,145.4508,-22.52360)" gradientUnits="userSpaceOnUse" xlink:href="#linearGradient15929"/><linearGradient id="linearGradient2116" x1="-739.69" x2="-763.6" y1="351.107" y2="349.162" gradientTransform="matrix(0.187996,0.000000,0.000000,0.151176,145.4488,-22.47022)" gradientUnits="userSpaceOnUse" xlink:href="#linearGradient7210"/></defs><metadata id="metadata5007"/><g id="layer1"><path id="path10089" fill="url(#linearGradient15955)" fill-opacity="1" fill-rule="nonzero" stroke="#646464" stroke-dasharray="none" stroke-linecap="round" stroke-linejoin="round" stroke-miterlimit="4" stroke-opacity="1" stroke-width="2.647" d="M -783.81220 319.15048 A 34.188900 19.626961 0 1 1 -852.19000,319.15048 A 34.188900 19.626961 0 1 1 -783.81220 319.15048 z" opacity="1" transform="matrix(0.187997,0.000000,0.000000,0.151177,160.2285,-27.67704)"/><g id="g15182" transform="matrix(0.962553,0.000000,0.000000,0.897839,-0.508660,4.434356)"><path id="path1334" fill="url(#linearGradient15957)" fill-opacity="1" fill-rule="nonzero" stroke="#646464" stroke-dasharray="none" stroke-linecap="round" stroke-linejoin="round" stroke-miterlimit="4" stroke-opacity="1" stroke-width=".441" d="M 2.8722710,13.391966 C 2.7814026,13.391966 2.7099582,13.460197 2.7099582,13.546986 L 2.7099582,24.724703 C 2.7099582,24.811488 2.7813990,24.879722 2.8722710,24.879722 L 11.295469,24.879722 C 11.386337,24.879722 11.457782,24.811491 11.457782,24.724703 L 11.457782,15.823321 L 8.9120275,13.391966 L 2.8722710,13.391966 z" opacity="1"/><path id="path1336" fill="url(#linearGradient15959)" fill-opacity="1" fill-rule="nonzero" stroke="#646464" stroke-dasharray="none" stroke-linecap="round" stroke-linejoin="round" stroke-miterlimit="4" stroke-opacity="1" stroke-width=".441" d="M 8.8853748,13.392945 C 8.8635762,13.419534 8.8170326,13.421674 8.8170326,13.458216 L 8.8170326,15.759029 C 8.8170326,15.845814 8.8884733,15.914051 8.9793453,15.914051 L 11.388415,15.914051 C 11.426677,15.914051 11.428917,15.869599 11.456757,15.848780 L 11.456757,15.824303 L 8.9110031,13.392945 L 8.8853748,13.392945 z" opacity="1"/></g><path id="path3467" fill="url(#linearGradient1367)" fill-opacity="1" fill-rule="nonzero" stroke="#646464" stroke-dasharray="none" stroke-linecap="round" stroke-linejoin="round" stroke-miterlimit="4" stroke-opacity="1" stroke-width=".447" d="M 0.021385143,21.117976 L 2.4279011,29.909880 C 2.8315137,31.368931 4.6924489,31.995502 6.6147413,32.020101 C 8.5660445,32.044535 10.281307,31.227944 10.705133,29.946877 L 12.901225,21.117976 L 12.693962,21.117976 C 12.257180,22.560047 9.6900597,23.700060 6.4465008,23.700060 C 3.2029420,23.700060 0.63582177,22.560047 0.19903813,21.117976 L 0.021385143,21.117976 z" opacity="1"/><path id="path2112" fill="url(#linearGradient2116)" fill-opacity="1" fill-rule="nonzero" stroke="#646464" stroke-dasharray="none" stroke-linecap="round" stroke-linejoin="round" stroke-miterlimit="4" stroke-opacity="1" stroke-width=".447" d="M 1.9181410,28.039746 C 1.9063825,28.075720 2.4332728,29.951187 2.4332728,29.951187 C 2.8368848,31.410237 4.6984798,32.051588 6.6207728,32.076187 C 8.5720748,32.100619 10.290697,31.294754 10.714523,30.013687 C 10.714523,30.013687 11.211954,28.091345 11.200196,28.039746 C 9.9128467,29.398524 8.4716800,29.713580 6.5959922,29.693439 C 4.7203044,29.673298 3.0876541,29.465255 1.9181410,28.039746 z" opacity="1"/></g></svg>