<svg xmlns="http://www.w3.org/2000/svg" xmlns:cc="http://web.resource.org/cc/" xmlns:svg="http://www.w3.org/2000/svg" xmlns:xlink="http://www.w3.org/1999/xlink" id="svg2" width="744.094" height="1052.362"><defs id="defs4"><linearGradient id="linearGradient9321"><stop id="stop9323" offset="0" stop-color="#fff" stop-opacity="1"/><stop id="stop9325" offset="1" stop-color="#fff" stop-opacity="0"/></linearGradient><linearGradient id="linearGradient9327" x1="-21.502" x2="146.795" y1="227.294" y2="227.294" gradientUnits="userSpaceOnUse" xlink:href="#linearGradient9321"/></defs><metadata id="metadata7"/><g id="layer1"><path id="path1876" fill="#dd0101" fill-opacity="1" stroke="#b10000" stroke-dasharray="none" stroke-linecap="round" stroke-linejoin="round" stroke-miterlimit="4" stroke-opacity="1" stroke-width="6" d="M 103.96653,300.60417 L 40.026361,308.34992 L -10.663235,268.61446 L -18.408983,204.67429 L 21.326472,153.9847 L 85.266638,146.23895 L 135.95623,185.97441 L 143.70198,249.91457 L 103.96653,300.60417 z" opacity=".99" transform="matrix(0.214781,2.570942e-2,-2.572584e-2,0.214631,208.719,298.0684)"/><path id="path8434" fill="url(#linearGradient9327)" fill-opacity="1" stroke="none" stroke-dasharray="none" stroke-linecap="round" stroke-linejoin="round" stroke-miterlimit="4" stroke-opacity="1" stroke-width="6" d="M 103.96653,300.60417 L 40.026361,308.34992 L -10.663235,268.61446 L -18.408983,204.67429 L 21.326472,153.9847 L 85.266638,146.23895 L 135.95623,185.97441 L 143.70198,249.91457 L 103.96653,300.60417 z" opacity=".99" transform="matrix(0.192084,2.299254e-2,-2.300725e-2,0.191949,209.3871,303.1651)"/><rect id="rect2764" width="17.042" height="6.424" x="210.058" y="344.184" fill="#fff" fill-opacity="1" stroke="#b10000" stroke-dasharray="none" stroke-linecap="round" stroke-linejoin="round" stroke-miterlimit="4" stroke-opacity="1" stroke-width=".68" opacity=".99" rx="3" ry="3" transform="matrix(0.999984,5.688157e-3,-5.667269e-3,0.999984,0,0)"/></g></svg>