<svg xmlns="http://www.w3.org/2000/svg" xmlns:cc="http://web.resource.org/cc/" xmlns:svg="http://www.w3.org/2000/svg" xmlns:xlink="http://www.w3.org/1999/xlink" id="svg1317" width="16" height="16"><defs id="defs1319"><linearGradient id="linearGradient2086"><stop id="stop2088" offset="0" stop-color="#143e7b" stop-opacity="1"/><stop id="stop2090" offset="1" stop-color="#d1d4e1" stop-opacity="1"/></linearGradient><linearGradient id="linearGradient7006"><stop id="stop2072" offset="0" stop-color="#ff8400" stop-opacity="1"/><stop id="stop7010" offset="1" stop-color="#ffc768" stop-opacity="1"/></linearGradient><radialGradient id="radialGradient1350" cx="85.192" cy="148.795" r="4.204" fx="85.192" fy="148.795" gradientTransform="matrix(0.539767,1.563546,-1.371278,0.475708,241.7855,-56.07594)" gradientUnits="userSpaceOnUse" xlink:href="#linearGradient2086"/><linearGradient id="linearGradient1352" x1="256.83" x2="265.527" y1="160.947" y2="149.295" gradientTransform="matrix(0.113253,9.791292e-2,-0.107623,0.123480,-1.005636,-26.42179)" gradientUnits="userSpaceOnUse" xlink:href="#linearGradient7006"/><radialGradient id="radialGradient1354" cx="85.545" cy="148.303" r="4.204" fx="85.545" fy="148.303" gradientTransform="matrix(0.497065,1.508478,-1.097670,0.361700,204.6784,-34.43849)" gradientUnits="userSpaceOnUse" xlink:href="#linearGradient7006"/><linearGradient id="linearGradient1358" x1="251.007" x2="267.125" y1="173.864" y2="144.175" gradientTransform="matrix(0.139388,0.120508,-0.132459,0.151975,-10.84416,-44.62833)" gradientUnits="userSpaceOnUse" xlink:href="#linearGradient2086"/><linearGradient id="linearGradient2822" x1="251.007" x2="267.125" y1="173.864" y2="144.175" gradientTransform="matrix(0.139388,0.120508,-0.132459,0.151975,-10.84416,-44.62833)" gradientUnits="userSpaceOnUse" xlink:href="#linearGradient2086"/><radialGradient id="radialGradient2824" cx="85.192" cy="148.795" r="4.204" fx="85.192" fy="148.795" gradientTransform="matrix(0.539767,1.563546,-1.371278,0.475708,241.7855,-56.07594)" gradientUnits="userSpaceOnUse" xlink:href="#linearGradient2086"/></defs><metadata id="metadata1322"/><g id="layer1"><g id="g2818" transform="translate(-5.081754e-7,-0.415674)"><path id="path29122" fill="url(#linearGradient2822)" fill-opacity="1" fill-rule="evenodd" stroke="#6c6c6c" stroke-dasharray="none" stroke-linecap="round" stroke-linejoin="round" stroke-miterlimit="4" stroke-opacity="1" stroke-width=".291" d="M 3.0459317,5.1242363 C 3.6314547,5.3743476 5.4251843,5.2655364 6.0845542,4.9071513 C 7.7431375,6.0628794 9.7057348,10.067178 9.1576584,11.964529 C 7.6205206,13.844876 1.9033427,13.751839 0.42037299,12.311886 C -0.62725500,10.089621 1.5532983,6.1875364 3.0459317,5.1242363 z"/><path id="path29120" fill="url(#radialGradient2824)" fill-opacity="1" fill-rule="nonzero" stroke="#6c6c6c" stroke-dasharray="none" stroke-linecap="round" stroke-linejoin="round" stroke-miterlimit="4" stroke-opacity="1" stroke-width=".438" d="M 89.984229,148.24525 A 3.9848089,3.9848089 0 1 1 89.984059,148.20844" opacity="1" transform="matrix(0.661473,0.000000,0.000000,0.667750,-52.28308,-95.76869)"/></g><g id="g1344" transform="matrix(1.230769,0.000000,0.000000,1.230769,-3.003439,-9.639913)"><path id="path1332" fill="url(#linearGradient1352)" fill-opacity="1" fill-rule="evenodd" stroke="#6c6c6c" stroke-dasharray="none" stroke-linecap="round" stroke-linejoin="round" stroke-miterlimit="4" stroke-opacity="1" stroke-width=".237" d="M 10.280067,14.002181 C 10.755804,14.205396 12.213210,14.116987 12.748948,13.825799 C 14.096547,14.764829 15.691158,18.018322 15.245845,19.559920 C 13.996921,21.087702 9.3517129,21.012109 8.1467998,19.842147 C 7.2956019,18.036557 9.0673018,14.866112 10.280067,14.002181 z"/><path id="path1334" fill="url(#radialGradient1354)" fill-opacity="1" fill-rule="nonzero" stroke="#6c6c6c" stroke-dasharray="none" stroke-linecap="round" stroke-linejoin="round" stroke-miterlimit="4" stroke-opacity="1" stroke-width=".438" d="M 89.984229,148.24525 A 3.9848089,3.9848089 0 1 1 89.984059,148.20844" opacity="1" transform="matrix(0.537447,0.000000,0.000000,0.542547,-34.67476,-67.97334)"/></g></g></svg>