<svg xmlns="http://www.w3.org/2000/svg" xmlns:svg="http://www.w3.org/2000/svg" id="svg2" width="744.094" height="1052.362" version="1.1"><defs id="defs4"><linearGradient id="linearGradient3591"><stop id="stop3593" offset="0" stop-color="#fff" stop-opacity="1"/><stop id="stop3595" offset="1" stop-color="#fff" stop-opacity="0"/></linearGradient></defs><metadata id="metadata7"/><g id="layer1"><path id="rect3145-0-3" fill="#0079ff" fill-opacity="1" stroke="none" d="m 172.40025,467.16455 c -1.8479,0 -3.33704,1.3518 -3.33704,3.02925 l 0,4.03638 c 0,1.67473 1.48424,3.0248 3.32805,3.02925 l 0.54185,2.06392 2.99287,-1.9821 0.92033,-0.0865 c 1.84788,0 3.33704,-1.35181 3.33704,-3.02926 l 0,-4.03625 c 0,-1.67758 -1.48916,-3.02938 -3.33704,-3.02938 l -4.44647,0 z"/><g id="g3791" transform="translate(12.111263,-0.36261268)"><path id="rect3145" fill="#474747" fill-opacity=".765" stroke="none" d="m 180.13358,467.69703 c -1.8479,0 -3.33704,1.3518 -3.33704,3.02925 l 0,4.03638 c 0,1.67473 1.48424,3.0248 3.32805,3.02925 l 0.54185,2.06392 2.99287,-1.9821 0.92033,-0.0865 c 1.84788,0 3.33704,-1.35181 3.33704,-3.02926 l 0,-4.03625 c 0,-1.67758 -1.48916,-3.02938 -3.33704,-3.02938 l -4.44647,0 z"/><path id="rect2162" fill="#fff" fill-opacity="1" stroke="none" d="m 180.77005,468.78335 c -0.48817,0 -0.89107,0.4029 -0.89107,0.89107 l 0,5.95149 c 0,0.48817 0.4029,0.89106 0.89107,0.89106 l 3.06003,0 c 0.48817,0 0.86759,-0.40289 0.86759,-0.89106 l 0,-5.95149 c 0,-0.48817 -0.37942,-0.89107 -0.86759,-0.89107 l -3.06003,0 z m 0.57839,0.57839 1.9276,0 c 0.42761,0 0.77119,0.34358 0.77119,0.77119 l 0,3.14101 c 0,0.42762 -0.34358,0.77119 -0.77119,0.77119 l -1.9276,0 c -0.42761,0 -0.77119,-0.34357 -0.77119,-0.77119 l 0,-3.14101 c 0,-0.42761 0.34358,-0.77119 0.77119,-0.77119 z"/><rect id="rect5118" width="1.796" height="1.223" x="181.482" y="474.631" fill="#474747" fill-opacity=".765" stroke="none" rx="4.874" ry="4.874"/></g><path id="path3919" fill="#323232" fill-opacity="1" stroke="#323232" stroke-dasharray="none" stroke-linecap="round" stroke-linejoin="round" stroke-miterlimit="4" stroke-opacity="1" stroke-width="3" d="m 418.48607,627.65789 -20.78937,11.38093 -20.78938,11.38093 0.53852,-23.69459 0.53851,-23.69459 20.25086,12.31366 20.25086,12.31366 z" transform="matrix(0.00188412,0.06285871,-0.09401515,0.00125973,261.41889,447.20767)"/><path id="rect2162-2-7" fill="#fff" fill-opacity="1" stroke="none" d="m 173.03672,468.25087 c -0.48817,0 -0.89107,0.4029 -0.89107,0.89107 l 0,5.95149 c 0,0.48817 0.4029,0.89106 0.89107,0.89106 l 3.06003,0 c 0.48817,0 0.86759,-0.40289 0.86759,-0.89106 l 0,-5.95149 c 0,-0.48817 -0.37942,-0.89107 -0.86759,-0.89107 l -3.06003,0 z m 0.57839,0.57839 1.9276,0 c 0.42761,0 0.77119,0.34358 0.77119,0.77119 l 0,3.14101 c 0,0.42762 -0.34358,0.77119 -0.77119,0.77119 l -1.9276,0 c -0.42761,0 -0.77119,-0.34357 -0.77119,-0.77119 l 0,-3.14101 c 0,-0.42761 0.34358,-0.77119 0.77119,-0.77119 z"/><rect id="rect5118-4-9" width="1.796" height="1.223" x="173.748" y="474.099" fill="#0079ff" fill-opacity="1" stroke="none" rx="4.874" ry="4.874"/><path id="path3919-0" fill="#323232" fill-opacity="1" stroke="#323232" stroke-dasharray="none" stroke-linecap="round" stroke-linejoin="round" stroke-miterlimit="4" stroke-opacity="1" stroke-width="3" d="m 418.48607,627.65789 -20.78937,11.38093 -20.78938,11.38093 0.53852,-23.69459 0.53851,-23.69459 20.25086,12.31366 20.25086,12.31366 z" transform="matrix(0.00188422,0.06286199,-0.09402005,0.00125979,241.58716,447.20602)"/><path id="path3848" fill="#555" fill-opacity="1" stroke="none" d="m 177.39012,486.9765 a 2.9371626,2.8283789 0 1 1 -5.87433,0 2.9371626,2.8283789 0 1 1 5.87433,0 z" transform="matrix(0.85116158,0,0,0.88389854,25.528139,56.867061)"/><path id="path3848-2" fill="#707070" fill-opacity="1" stroke="none" d="m 177.39012,486.9765 a 2.9371626,2.8283789 0 1 1 -5.87433,0 2.9371626,2.8283789 0 1 1 5.87433,0 z" transform="matrix(0.85116158,0,0,0.88389854,34.528345,56.867364)"/><path id="path3848-9" fill="#707070" fill-opacity="1" stroke="none" d="m 177.39012,486.9765 a 2.9371626,2.8283789 0 1 1 -5.87433,0 2.9371626,2.8283789 0 1 1 5.87433,0 z" transform="matrix(0.85116158,0,0,0.88389854,43.528345,56.867364)"/></g></svg>