<svg xmlns="http://www.w3.org/2000/svg" xmlns:cc="http://web.resource.org/cc/" xmlns:svg="http://www.w3.org/2000/svg" xmlns:xlink="http://www.w3.org/1999/xlink" id="svg3094" width="16" height="16"><defs id="defs3096"><linearGradient id="linearGradient3493"><stop id="stop3495" offset="0" stop-color="#ffc768" stop-opacity="1"/><stop id="stop3497" offset="1" stop-color="#ff8400" stop-opacity="1"/></linearGradient><linearGradient id="linearGradient11116"><stop id="stop11118" offset="0" stop-color="#143e7b" stop-opacity="1"/><stop id="stop11120" offset="1" stop-color="#93aacc" stop-opacity="1"/></linearGradient><radialGradient id="radialGradient9330" cx="8" cy="8" r="5.05" fx="8" fy="8" gradientTransform="matrix(0.871539,7.131585e-7,-7.329425e-7,0.895716,1.027892,0.834669)" gradientUnits="userSpaceOnUse" xlink:href="#linearGradient3493"/><radialGradient id="radialGradient15162" cx="-8.009" cy="7.974" r="4.991" fx="-8.009" fy="7.974" gradientTransform="matrix(1.001708,0.000000,0.000000,1.006944,16.02220,-3.100580e-3)" gradientUnits="userSpaceOnUse" xlink:href="#linearGradient3493"/><radialGradient id="radialGradient15165" cx="-8.009" cy="7.974" r="4.991" fx="-8.009" fy="7.974" gradientTransform="matrix(0.773627,1.351649e-6,-1.260975e-6,0.721729,14.19562,2.244097)" gradientUnits="userSpaceOnUse" xlink:href="#linearGradient3493"/></defs><metadata id="metadata3099"/><g id="layer1"><rect id="rect3126" width="15.276" height="15.276" x=".362" y=".362" fill="#fff" fill-opacity="1" fill-rule="nonzero" stroke="#3c3c3c" stroke-dasharray="none" stroke-linecap="round" stroke-linejoin="round" stroke-miterlimit="4" stroke-opacity="1" stroke-width=".724" opacity="1" ry="2.205"/><rect id="rect2038" width=".597" height="2" x="10.403" y="10" fill="#fff" fill-opacity="1" fill-rule="nonzero" stroke="none" stroke-dasharray="none" stroke-linecap="round" stroke-linejoin="round" stroke-miterlimit="4" stroke-opacity="1" stroke-width=".444" opacity="1" ry=".299"/><rect id="rect2040" width="1.1" height="9.422" x="9.9" y="2.578" fill="#fff" fill-opacity="1" fill-rule="nonzero" stroke="none" stroke-dasharray="none" stroke-linecap="round" stroke-linejoin="round" stroke-miterlimit="4" stroke-opacity="1" stroke-width=".444" opacity="1" ry="0"/><path id="rect10058" fill="url(#radialGradient15165)" fill-opacity="1" fill-rule="nonzero" stroke="#474747" stroke-dasharray="none" stroke-linecap="round" stroke-linejoin="round" stroke-miterlimit="4" stroke-opacity="1" stroke-width=".716" d="M 4.7131453,3.3561521 C 4.4612288,3.3552033 4.2182305,3.4459181 4.0244711,3.6359228 L 3.6488306,4.0089503 C 3.2613119,4.3889594 3.2642248,4.9938007 3.6488306,5.3767178 L 6.2783143,7.9879103 L 3.6488306,10.599102 C 3.2642248,10.982020 3.2613109,11.617946 3.6488306,11.997956 L 4.0244711,12.370983 C 4.4119908,12.750993 5.0172138,12.722815 5.4018196,12.339898 L 8.0313033,9.7287053 L 10.598180,12.308812 C 10.982785,12.691729 11.588009,12.688821 11.975529,12.308812 L 12.351169,11.935784 C 12.738688,11.555775 12.735774,10.950934 12.351169,10.568017 L 9.7842923,7.9879103 L 12.351169,5.4388890 C 12.735775,5.0559713 12.738689,4.4511312 12.351169,4.0711215 L 11.975529,3.6980940 C 11.588009,3.3180844 10.982786,3.3151763 10.598180,3.6980940 L 8.0313033,6.2471153 L 5.4018196,3.6359228 C 5.2095167,3.4444642 4.9650619,3.3571009 4.7131453,3.3561521 z" opacity="1"/></g></svg>