<svg xmlns="http://www.w3.org/2000/svg" xmlns:cc="http://web.resource.org/cc/" xmlns:svg="http://www.w3.org/2000/svg" xmlns:xlink="http://www.w3.org/1999/xlink" id="svg3094" width="16" height="16"><defs id="defs3096"><linearGradient id="linearGradient11116"><stop id="stop11118" offset="0" stop-color="#143e7b" stop-opacity="1"/><stop id="stop11120" offset="1" stop-color="#93aacc" stop-opacity="1"/></linearGradient><linearGradient id="linearGradient3087" x1="-243" x2="-213.21" y1="213.955" y2="213.955" gradientTransform="matrix(0.362199,0.000000,0.000000,0.362199,90.01427,-69.30573)" gradientUnits="userSpaceOnUse" xlink:href="#linearGradient11116"/></defs><metadata id="metadata3099"/><g id="layer1"><rect id="rect3126" width="15.276" height="15.276" x=".312" y=".412" fill="#fff" fill-opacity="1" fill-rule="nonzero" stroke="#2f2f2f" stroke-dasharray="none" stroke-linecap="round" stroke-linejoin="round" stroke-miterlimit="4" stroke-opacity="1" stroke-width=".724" opacity="1" ry="2.205"/><path id="path1615" fill="#656565" fill-opacity="1" fill-rule="evenodd" stroke="#3c3c3c" stroke-linecap="round" stroke-linejoin="round" stroke-opacity="1" stroke-width=".138" d="M 13.931077,9.0303728 L 12.272828,7.0689227 L 10.588923,9.0303728 L 13.931077,9.0303728 z"/><path id="path1616" fill="url(#linearGradient3087)" fill-opacity="1" fill-rule="evenodd" stroke="#404e67" stroke-dasharray="none" stroke-linecap="round" stroke-linejoin="round" stroke-miterlimit="4" stroke-opacity=".665" stroke-width=".733" d="M 4.1782392,9.8531370 C 3.8321470,8.5034026 4.8702966,6.0192557 5.7602776,6.6620617 C 6.6249336,7.2865722 6.2875851,8.3051774 7.6450601,8.5193534 C 8.9033792,8.7178777 11.725482,4.8177148 11.516236,3.7288757 C 11.341356,2.8188868 9.1024148,2.6852534 8.5413867,2.7628727 C 7.2246556,2.9450479 6.6577851,3.2648769 6.2633540,3.4852389 C 5.9834140,3.6416328 3.2721983,5.1130047 2.4917896,8.2046967 C 2.0954425,9.7748880 2.7160054,11.464263 3.3083022,12.121104 C 5.7258505,14.802099 11.088577,13.693084 12.423273,10.560381 C 11.445257,11.722719 5.4370619,14.762481 4.1782392,9.8531370 z" class="fil0 str3" opacity="1"/></g></svg>