<svg xmlns="http://www.w3.org/2000/svg" xmlns:cc="http://web.resource.org/cc/" xmlns:svg="http://www.w3.org/2000/svg" xmlns:xlink="http://www.w3.org/1999/xlink" id="svg1974" width="32" height="32"><defs id="defs1976"><linearGradient id="linearGradient3866"><stop id="stop3868" offset="0" stop-color="#cfcfcf" stop-opacity="1"/><stop id="stop3870" offset="1" stop-color="#fff" stop-opacity="1"/></linearGradient><linearGradient id="linearGradient7063" x1="-710.469" x2="-653" y1="360.984" y2="360.984" gradientTransform="matrix(0.273079,0.000000,0.000000,0.342744,194.1507,-99.75819)" gradientUnits="userSpaceOnUse" xlink:href="#linearGradient3866"/></defs><metadata id="metadata1979"/><g id="layer1"><path id="rect1954" fill="url(#linearGradient7063)" fill-opacity="1" fill-rule="nonzero" stroke="#646464" stroke-dasharray="none" stroke-linecap="round" stroke-linejoin="round" stroke-miterlimit="4" stroke-opacity="1" stroke-width=".58" d="M 3.1401338,16.250001 C 1.5531436,16.250001 0.27279696,17.846263 0.27279696,19.838101 L 0.27279696,25.172051 C 0.27279696,27.163892 1.5531463,28.770857 3.1401338,28.770860 L 4.9679518,28.834071 L 5.0473572,31.671214 L 9.3752288,28.834071 L 12.834471,28.770860 C 14.421463,28.770860 15.693274,27.163896 15.693278,25.172051 L 15.693278,19.838101 C 15.693278,17.846259 14.421457,16.250001 12.834471,16.250001 L 3.1401338,16.250001 z" opacity="1"/><path id="path2715" fill="none" fill-opacity=".75" fill-rule="evenodd" stroke="#646464" stroke-dasharray="none" stroke-linecap="round" stroke-linejoin="round" stroke-miterlimit="4" stroke-opacity="1" stroke-width=".7" d="M 2.9500000,19.650000 L 12.950000,19.650000 L 2.9500000,19.650000 z"/><path id="path3443" fill="none" fill-opacity=".75" fill-rule="evenodd" stroke="#646464" stroke-dasharray="none" stroke-linecap="round" stroke-linejoin="round" stroke-miterlimit="4" stroke-opacity="1" stroke-width=".7" d="M 2.9500000,22.650000 L 12.950000,22.650000 L 2.9500000,22.650000 z"/><path id="path3445" fill="none" fill-opacity=".75" fill-rule="evenodd" stroke="#646464" stroke-dasharray="none" stroke-linecap="round" stroke-linejoin="round" stroke-miterlimit="4" stroke-opacity="1" stroke-width=".7" d="M 2.9500000,25.650000 L 12.950000,25.650000 L 2.9500000,25.650000 z"/></g></svg>