<svg xmlns="http://www.w3.org/2000/svg" xmlns:cc="http://web.resource.org/cc/" xmlns:svg="http://www.w3.org/2000/svg" xmlns:xlink="http://www.w3.org/1999/xlink" id="svg1402" width="16" height="16"><defs id="defs1404"><linearGradient id="linearGradient4262"><stop id="stop4264" offset="0" stop-color="#ff8400" stop-opacity="1"/><stop id="stop4266" offset="1" stop-color="#ffc768" stop-opacity="1"/></linearGradient><linearGradient id="linearGradient5031" x1="-25.24" x2="-9.096" y1="254.022" y2="254.022" gradientTransform="matrix(-0.461344,0.000000,0.000000,0.461344,2.996372,-107.9064)" gradientUnits="userSpaceOnUse" xlink:href="#linearGradient4262"/><linearGradient id="linearGradient15050"><stop id="stop15052" offset="0" stop-color="#fff" stop-opacity="1"/><stop id="stop15054" offset="1" stop-color="#fff" stop-opacity="0"/></linearGradient><linearGradient id="linearGradient5028" x1="-31.224" x2="-27.273" y1="242.485" y2="258.669" gradientTransform="matrix(-0.322765,0.000000,0.000000,0.329802,6.623926,-73.97496)" gradientUnits="userSpaceOnUse" xlink:href="#linearGradient15050"/><linearGradient id="linearGradient5038" x1="-357.552" x2="-360.552" y1="179.776" y2="182.49" gradientUnits="userSpaceOnUse" xlink:href="#linearGradient20674"/><linearGradient id="linearGradient20674"><stop id="stop20676" offset="0" stop-color="#93aacc" stop-opacity="1"/><stop id="stop20678" offset="1" stop-color="#f8f8f8" stop-opacity="1"/></linearGradient><linearGradient id="linearGradient5036" x1="-406.239" x2="-352.577" y1="191.469" y2="191.469" gradientUnits="userSpaceOnUse" xlink:href="#linearGradient20674"/><linearGradient id="linearGradient1436" x1="-25.24" x2="-9.096" y1="254.022" y2="254.022" gradientTransform="matrix(-0.461344,0.000000,0.000000,0.461344,2.996372,-107.9064)" gradientUnits="userSpaceOnUse" xlink:href="#linearGradient4262"/><linearGradient id="linearGradient1438" x1="-31.224" x2="-27.273" y1="242.485" y2="258.669" gradientTransform="matrix(-0.322765,0.000000,0.000000,0.329802,6.623926,-73.97496)" gradientUnits="userSpaceOnUse" xlink:href="#linearGradient15050"/></defs><metadata id="metadata1407"/><g id="layer1"><g id="g1440"><g id="g11420" transform="matrix(0.391772,0.000000,0.000000,0.399372,147.8651,-67.23710)"><path id="path11422" fill="url(#linearGradient5036)" fill-opacity="1" fill-rule="nonzero" stroke="#646464" stroke-dasharray="none" stroke-linecap="round" stroke-linejoin="round" stroke-miterlimit="4" stroke-opacity="1" stroke-width=".68" d="M -376.63483,174.85435 C -376.88586,174.85435 -377.08323,175.05171 -377.08323,175.30275 L -377.08323,207.63483 C -377.08323,207.88586 -376.88587,208.08323 -376.63483,208.08323 L -353.36517,208.08323 C -353.11414,208.08323 -352.91677,207.88587 -352.91677,207.63483 L -352.91677,181.88716 L -359.94959,174.85435 L -376.63483,174.85435 z" opacity="1"/><path id="path11424" fill="url(#linearGradient5038)" fill-opacity="1" fill-rule="nonzero" stroke="#646464" stroke-dasharray="none" stroke-linecap="round" stroke-linejoin="round" stroke-miterlimit="4" stroke-opacity="1" stroke-width=".68" d="M -360.02322,174.85718 C -360.08344,174.93409 -360.21202,174.94028 -360.21202,175.04598 L -360.21202,181.70119 C -360.21202,181.95222 -360.01466,182.14960 -359.76362,182.14960 L -353.10840,182.14960 C -353.00270,182.14960 -352.99651,182.02102 -352.91960,181.96080 L -352.91960,181.89000 L -359.95242,174.85718 L -360.02322,174.85718 z" opacity="1"/></g><g id="g1428" transform="matrix(0.846234,0.000000,0.000000,0.730260,1.345713e-2,3.706719)"><path id="path6346" fill="url(#linearGradient1436)" fill-opacity="1" fill-rule="evenodd" stroke="#646464" stroke-dasharray="none" stroke-linecap="round" stroke-linejoin="round" stroke-miterlimit="4" stroke-opacity="1" stroke-width=".323" d="M 14.576141,4.6484985 L 18.741399,9.3524165 L 14.552785,13.921544 L 14.529985,11.037801 L 7.4598971,11.074070 L 7.4598971,7.3673285 L 14.566253,7.3854625 L 14.576141,4.6484985 z"/><path id="path7082" fill="url(#linearGradient1438)" fill-opacity="1" fill-rule="evenodd" stroke="none" stroke-dasharray="none" stroke-linecap="round" stroke-linejoin="round" stroke-miterlimit="4" stroke-opacity="1" stroke-width=".656" d="M 14.725328,6.4870565 L 17.639412,9.8497395 L 14.708987,13.116068 L 14.693036,11.443475 L 8.3103321,11.343490 L 8.2621361,7.9205135 L 14.693036,7.9205135 L 14.725328,6.4870565 z"/></g></g></g></svg>