<svg xmlns="http://www.w3.org/2000/svg" xmlns:cc="http://web.resource.org/cc/" xmlns:svg="http://www.w3.org/2000/svg" xmlns:xlink="http://www.w3.org/1999/xlink" id="svg10013" width="32" height="32"><defs id="defs10015"><linearGradient id="linearGradient8426"><stop id="stop8428" offset="0" stop-color="#fff" stop-opacity="1"/><stop id="stop8430" offset="1" stop-color="#fff" stop-opacity="0"/></linearGradient><linearGradient id="linearGradient5061"><stop id="stop5063" offset="0" stop-color="#ff681c" stop-opacity="1"/><stop id="stop8086" offset=".5" stop-color="#ff8400" stop-opacity="1"/><stop id="stop5065" offset="1" stop-color="#ffc768" stop-opacity="1"/></linearGradient><linearGradient id="linearGradient15929"><stop id="stop15931" offset="0" stop-color="#cbcbcb" stop-opacity="1"/><stop id="stop15933" offset=".5" stop-color="#fff" stop-opacity="1"/><stop id="stop15935" offset="1" stop-color="#cbcbcb" stop-opacity="1"/></linearGradient><linearGradient id="linearGradient8432" x1="32.516" x2="66.187" y1="40.992" y2="35.336" gradientTransform="matrix(0.883816,0,0,0.883816,-28.97252,-11.96158)" gradientUnits="userSpaceOnUse" xlink:href="#linearGradient8426"/></defs><metadata id="metadata10018"/><g id="layer1"><path id="rect1969" fill="#ff681c" fill-opacity="1" fill-rule="nonzero" stroke="#f34400" stroke-dasharray="none" stroke-linecap="round" stroke-linejoin="round" stroke-miterlimit="4" stroke-opacity="1" stroke-width="1.326" d="M 13.890115,4.6757593 L 1.1439251,25.689734 C -0.21828028,28.035581 1.5026304,31.777553 3.931751,31.197951 C 3.931751,31.197951 30.598867,31.226916 30.893322,31.290489 C 33.348283,31.820541 35.27333,27.688952 33.853919,25.761297 L 21.009032,4.5349987 C 19.122106,1.9288928 15.491437,2.0891235 13.890115,4.6757593 z" opacity="1"/><path id="path7539" fill="url(#linearGradient8432)" fill-opacity="1" fill-rule="nonzero" stroke="none" stroke-dasharray="none" stroke-linecap="round" stroke-linejoin="round" stroke-miterlimit="4" stroke-opacity="1" stroke-width="1.32" d="M 14.162787,6.6499068 L 2.9500083,25.135828 C 1.751681,27.199461 3.26556,30.491261 5.4024485,29.981388 C 5.4024485,29.981388 28.861418,30.006868 29.120451,30.062793 C 31.28007,30.529078 32.973528,26.894533 31.724876,25.198782 L 20.425274,6.5260805 C 18.765351,4.2334979 15.571464,4.3744525 14.162787,6.6499068 z" opacity="1"/><path id="path4165" fill="#fff" fill-opacity="1" fill-rule="nonzero" stroke="#f34400" stroke-dasharray="none" stroke-linecap="round" stroke-linejoin="round" stroke-miterlimit="4" stroke-opacity="1" stroke-width=".46" d="M -472.20397 -6.8036051 A 2.189184 2.189184 0 1 1 -476.58234,-6.8036051 A 2.189184 2.189184 0 1 1 -472.20397 -6.8036051 z" opacity="1" transform="matrix(1.228017,0,0,1.228017,600.0711,33.97855)"/><rect id="rect4909" width="5.048" height="12.158" x="14.814" y="9.265" fill="#fff" fill-opacity="1" fill-rule="nonzero" stroke="#f44401" stroke-dasharray="none" stroke-linecap="round" stroke-linejoin="round" stroke-miterlimit="4" stroke-opacity="1" stroke-width=".552" opacity="1" rx="2" ry="2"/></g></svg>