<svg xmlns="http://www.w3.org/2000/svg" xmlns:cc="http://web.resource.org/cc/" xmlns:svg="http://www.w3.org/2000/svg" xmlns:xlink="http://www.w3.org/1999/xlink" id="svg8849" width="32" height="32"><defs id="defs8851"><linearGradient id="linearGradient3964"><stop id="stop3966" offset="0" stop-color="#fff" stop-opacity=".876"/><stop id="stop3968" offset="1" stop-color="#fff" stop-opacity="0"/></linearGradient><linearGradient id="linearGradient3081"><stop id="stop3083" offset="0" stop-color="#6c6c6c" stop-opacity="1"/><stop id="stop3085" offset="1" stop-color="#6c6c6c" stop-opacity="0"/></linearGradient><linearGradient id="linearGradient3073"><stop id="stop3075" offset="0" stop-color="#6c6c6c" stop-opacity="1"/><stop id="stop3077" offset="1" stop-color="#6c6c6c" stop-opacity="0"/></linearGradient><linearGradient id="linearGradient29124" x1="256.83" x2="265.527" y1="160.947" y2="149.295" gradientTransform="matrix(1.721869,1.488651,-1.636283,1.877362,-348.3661,-607.77)" gradientUnits="userSpaceOnUse" xlink:href="#linearGradient7006"/><linearGradient id="linearGradient7006"><stop id="stop2072" offset="0" stop-color="#ff8400" stop-opacity="1"/><stop id="stop7010" offset="1" stop-color="#ffc768" stop-opacity="1"/></linearGradient><radialGradient id="radialGradient30586" cx="85.545" cy="148.303" r="4.204" fx="85.545" fy="148.303" gradientTransform="matrix(0.497065,1.508478,-1.09767,0.3617,204.6784,-34.43849)" gradientUnits="userSpaceOnUse" xlink:href="#linearGradient7006"/><linearGradient id="linearGradient33510" x1="100.968" x2="107.106" y1="145.198" y2="151.145" gradientTransform="matrix(8.171232,0,0,8.248789,-1046.157,-1157.039)" gradientUnits="userSpaceOnUse" xlink:href="#linearGradient14399"/><linearGradient id="linearGradient14399"><stop id="stop14401" offset="0" stop-color="#143e7b" stop-opacity="1"/><stop id="stop14403" offset="1" stop-color="#93aacc" stop-opacity=".655"/></linearGradient><linearGradient id="linearGradient3079" x1="85.999" x2="85.999" y1="149.361" y2="153.168" gradientUnits="userSpaceOnUse" xlink:href="#linearGradient3073"/><linearGradient id="linearGradient3087" x1="-110.237" x2="-211.485" y1="74.378" y2="-11.71" gradientUnits="userSpaceOnUse" xlink:href="#linearGradient3081"/><linearGradient id="linearGradient4855" x1="-185.812" x2="-151.743" y1="-17.255" y2="-17.378" gradientUnits="userSpaceOnUse" xlink:href="#linearGradient3964"/><linearGradient id="linearGradient6625" x1="-216.003" x2="-216.003" y1="47.485" y2="60.92" gradientTransform="matrix(0.722844,0,0,2.073068,-71.21054,-60.93884)" gradientUnits="userSpaceOnUse" xlink:href="#linearGradient3964"/><linearGradient id="linearGradient7502" x1="-216.003" x2="-216.003" y1="47.485" y2="60.92" gradientTransform="matrix(0,0.93405,2.073068,0,-320.8538,238.7575)" gradientUnits="userSpaceOnUse" xlink:href="#linearGradient3964"/><linearGradient id="linearGradient7506" x1="279.165" x2="255.24" y1="142.056" y2="155.092" gradientTransform="matrix(1.535087,1.357851,-1.458785,1.712408,-323.0305,-547.1501)" gradientUnits="userSpaceOnUse" xlink:href="#linearGradient3964"/><linearGradient id="linearGradient8390" x1="256.83" x2="265.527" y1="160.947" y2="149.295" gradientTransform="matrix(1.721869,1.488651,-1.636283,1.877362,-348.3661,-607.77)" gradientUnits="userSpaceOnUse" xlink:href="#linearGradient7006"/><linearGradient id="linearGradient8392" x1="-110.237" x2="-211.485" y1="74.378" y2="-11.71" gradientUnits="userSpaceOnUse" xlink:href="#linearGradient3081"/><radialGradient id="radialGradient8394" cx="85.545" cy="148.303" r="4.204" fx="85.545" fy="148.303" gradientTransform="matrix(0.497065,1.508478,-1.09767,0.3617,204.6784,-34.43849)" gradientUnits="userSpaceOnUse" xlink:href="#linearGradient7006"/><linearGradient id="linearGradient8396" x1="85.999" x2="85.999" y1="149.361" y2="153.168" gradientUnits="userSpaceOnUse" xlink:href="#linearGradient3073"/><linearGradient id="linearGradient8398" x1="100.968" x2="107.106" y1="145.198" y2="151.145" gradientTransform="matrix(8.171232,0,0,8.248789,-1046.157,-1157.039)" gradientUnits="userSpaceOnUse" xlink:href="#linearGradient14399"/><linearGradient id="linearGradient8400" x1="-185.812" x2="-151.743" y1="-17.255" y2="-17.378" gradientUnits="userSpaceOnUse" xlink:href="#linearGradient3964"/><linearGradient id="linearGradient8402" x1="279.165" x2="255.24" y1="142.056" y2="155.092" gradientTransform="matrix(1.535087,1.357851,-1.458785,1.712408,-323.0305,-547.1501)" gradientUnits="userSpaceOnUse" xlink:href="#linearGradient3964"/></defs><metadata id="metadata8854"/><g id="layer1"><path id="path3972" fill="none" fill-opacity=".824" stroke="none" stroke-dasharray="none" stroke-linecap="round" stroke-linejoin="round" stroke-miterlimit="4" stroke-opacity=".667" stroke-width="1.57" d="M -49.270456,-18.353325 A 18.408743,18.408743 0 1 1 -49.271242,-18.523392"/><g id="g8383" transform="matrix(0.975654,0,0,0.999102,-6.089344,-4.349466e-2)"><path id="path29122" fill="url(#linearGradient8390)" fill-opacity="1" fill-rule="evenodd" stroke="url(#linearGradient8392)" stroke-dasharray="none" stroke-linecap="round" stroke-linejoin="round" stroke-miterlimit="4" stroke-opacity="1" stroke-width="3.596" d="M -176.78052,6.8276883 C -169.54751,9.9173323 -147.38942,8.5731823 -139.24417,4.1460123 C -118.75555,18.422826 -94.511419,67.888271 -101.28185,91.326391 C -120.27025,114.55448 -190.89503,113.40518 -209.21427,95.617321 C -222.15571,68.165491 -195.21914,19.962719 -176.78052,6.8276883 z"/><path id="path29120" fill="url(#radialGradient8394)" fill-opacity="1" fill-rule="nonzero" stroke="url(#linearGradient8396)" stroke-dasharray="none" stroke-linecap="round" stroke-linejoin="round" stroke-miterlimit="4" stroke-opacity="1" stroke-width=".438" d="M 89.984229,148.24525 A 3.9848089,3.9848089 0 1 1 89.984059,148.20844" opacity="1" transform="matrix(8.171233,0,0,8.248782,-860.2644,-1239.511)"/><path id="rect32040" fill="url(#linearGradient8398)" fill-opacity="1" fill-rule="nonzero" stroke="#6c6c6c" stroke-dasharray="none" stroke-linecap="round" stroke-linejoin="round" stroke-miterlimit="4" stroke-opacity="1" stroke-width="3.596" d="M -197.15963,10.17952 C -204.47995,10.918503 -210.21695,17.199082 -210.21695,24.720626 L -210.21695,49.054721 L -233.95753,49.351481 C -241.90501,49.387991 -248.23771,55.648341 -248.20188,63.595821 L -248.20188,67.156911 C -248.16605,75.104411 -241.60826,81.437771 -233.66077,81.401261 L -210.21695,81.401261 L -210.21695,103.3613 C -210.21695,111.38429 -203.69883,117.90241 -195.67585,117.90241 L -192.70827,117.90241 C -184.68529,117.90241 -178.16716,111.38429 -178.16716,103.3613 L -178.16716,81.104511 L -155.91037,81.104511 C -151.43992,81.083961 -147.24628,78.960801 -144.63359,75.762871 C -142.73119,73.316801 -141.65092,70.213011 -141.66603,66.860161 L -141.66603,63.299071 C -141.70185,55.351581 -147.96289,48.721441 -155.91037,48.757961 L -178.16716,49.054721 L -178.16716,24.720626 C -178.16716,20.709132 -180.00092,16.951734 -182.61852,14.334126 C -185.21447,11.859614 -188.82214,10.17952 -192.70827,10.17952 L -195.67585,10.17952 C -196.17728,10.17952 -196.67161,10.130259 -197.15963,10.17952 z" opacity="1"/><path id="path3974" fill="url(#linearGradient8400)" fill-opacity="1" stroke="none" stroke-dasharray="none" stroke-linecap="round" stroke-linejoin="round" stroke-miterlimit="4" stroke-opacity=".667" stroke-width="1.57" d="M -149.43568,-17.541174 A 14.889424,14.889424 0 1 1 -149.43631,-17.678728" transform="matrix(1.189637,0.850019,-0.961215,1.345259,13.85231,140.0514)"/><path id="path7504" fill="url(#linearGradient8402)" fill-opacity="1" fill-rule="evenodd" stroke="none" stroke-dasharray="none" stroke-linecap="round" stroke-linejoin="round" stroke-miterlimit="4" stroke-opacity="1" stroke-width="3.596" d="M -170.05788,13.44605 C -163.60948,16.26422 -143.85501,15.03818 -136.59333,11 C -118.32723,24.02239 -96.713023,69.14157 -102.74901,90.5203 C -119.67763,111.70745 -182.6413,110.65913 -198.97334,94.43421 C -210.51094,69.39443 -186.49635,25.42698 -170.05788,13.44605 z"/></g><g id="g1569" transform="matrix(-1,0,0,1,-319.5711,0)"><g id="g2449" transform="matrix(0,1,-1,0,-40.462,210.5266)"><rect id="rect2245" width="6" height="6" x="92.538" y="108.527" fill="#fff" fill-opacity=".756" stroke="none" stroke-dasharray="none" stroke-linecap="round" stroke-linejoin="round" stroke-miterlimit="4" stroke-opacity="1" stroke-width="1.57" rx="2" ry="2" transform="matrix(0,1,-1,0,0,0)"/><rect id="rect2247" width="6" height="6" x="92.538" y="118.527" fill="#fff" fill-opacity=".756" stroke="none" stroke-dasharray="none" stroke-linecap="round" stroke-linejoin="round" stroke-miterlimit="4" stroke-opacity="1" stroke-width="1.57" rx="2" ry="2" transform="matrix(0,1,-1,0,0,0)"/><rect id="rect2249" width="6" height="6" x="92.538" y="128.527" fill="#fff" fill-opacity=".756" stroke="none" stroke-dasharray="none" stroke-linecap="round" stroke-linejoin="round" stroke-miterlimit="4" stroke-opacity="1" stroke-width="1.57" rx="2" ry="2" transform="matrix(0,1,-1,0,0,0)"/></g><g id="g2411" transform="matrix(0,1,-1,0,-66.49853,259)"><rect id="rect2257" width="6" height="6" x="80" y="154" fill="#fff" fill-opacity=".756" stroke="none" stroke-dasharray="none" stroke-linecap="round" stroke-linejoin="round" stroke-miterlimit="4" stroke-opacity="1" stroke-width="1.57" rx="2" ry="2" transform="matrix(0,1,-1,0,0,0)"/><rect id="rect2259" width="6" height="6" x="80" y="164" fill="#fff" fill-opacity=".756" stroke="none" stroke-dasharray="none" stroke-linecap="round" stroke-linejoin="round" stroke-miterlimit="4" stroke-opacity="1" stroke-width="1.57" rx="2" ry="2" transform="matrix(0,1,-1,0,0,0)"/><rect id="rect2261" width="6" height="6" x="80" y="174" fill="#fff" fill-opacity=".756" stroke="none" stroke-dasharray="none" stroke-linecap="round" stroke-linejoin="round" stroke-miterlimit="4" stroke-opacity="1" stroke-width="1.57" rx="2" ry="2" transform="matrix(0,1,-1,0,0,0)"/><rect id="rect2263" width="6" height="6" x="80" y="184" fill="#fff" fill-opacity=".756" stroke="none" stroke-dasharray="none" stroke-linecap="round" stroke-linejoin="round" stroke-miterlimit="4" stroke-opacity="1" stroke-width="1.57" rx="2" ry="2" transform="matrix(0,1,-1,0,0,0)"/></g><g id="g2321" transform="matrix(-1,0,0,-1,-360,153)"><rect id="rect2323" width="6" height="6" x="-201" y="57" fill="#fff" fill-opacity=".756" stroke="none" stroke-dasharray="none" stroke-linecap="round" stroke-linejoin="round" stroke-miterlimit="4" stroke-opacity="1" stroke-width="1.57" rx="2" ry="2"/><rect id="rect2325" width="6" height="6" x="-201" y="47" fill="#fff" fill-opacity=".756" stroke="none" stroke-dasharray="none" stroke-linecap="round" stroke-linejoin="round" stroke-miterlimit="4" stroke-opacity="1" stroke-width="1.57" rx="2" ry="2"/><rect id="rect2327" width="6" height="6" x="-201" y="67" fill="#fff" fill-opacity=".756" stroke="none" stroke-dasharray="none" stroke-linecap="round" stroke-linejoin="round" stroke-miterlimit="4" stroke-opacity="1" stroke-width="1.57" rx="2" ry="2"/><rect id="rect2329" width="6" height="6" x="-201" y="77" fill="#fff" fill-opacity=".756" stroke="none" stroke-dasharray="none" stroke-linecap="round" stroke-linejoin="round" stroke-miterlimit="4" stroke-opacity="1" stroke-width="1.57" rx="2" ry="2"/><rect id="rect2331" width="6" height="6" x="-201" y="87" fill="#fff" fill-opacity=".756" stroke="none" stroke-dasharray="none" stroke-linecap="round" stroke-linejoin="round" stroke-miterlimit="4" stroke-opacity="1" stroke-width="1.57" rx="2" ry="2"/><rect id="rect2333" width="6" height="6" x="-201" y="97" fill="#fff" fill-opacity=".756" stroke="none" stroke-dasharray="none" stroke-linecap="round" stroke-linejoin="round" stroke-miterlimit="4" stroke-opacity="1" stroke-width="1.57" rx="2" ry="2"/></g><g id="g1425" transform="translate(7,-3.533619)"><rect id="rect1414" width="6" height="6" x="127" y="-102" fill="#fff" fill-opacity=".756" stroke="none" stroke-dasharray="none" stroke-linecap="round" stroke-linejoin="round" stroke-miterlimit="4" stroke-opacity="1" stroke-width="1.57" rx="2" ry="2" transform="scale(-1,-1)"/><rect id="rect1416" width="6" height="6" x="127" y="-92" fill="#fff" fill-opacity=".756" stroke="none" stroke-dasharray="none" stroke-linecap="round" stroke-linejoin="round" stroke-miterlimit="4" stroke-opacity="1" stroke-width="1.57" rx="2" ry="2" transform="scale(-1,-1)"/></g><rect id="rect1423" width="6" height="6" x="109" y="-92" fill="#fff" fill-opacity=".756" stroke="none" stroke-dasharray="none" stroke-linecap="round" stroke-linejoin="round" stroke-miterlimit="4" stroke-opacity="1" stroke-width="1.57" rx="2" ry="2" transform="scale(-1,-1)"/><g id="g1445"><g id="g1429" transform="matrix(-1,0,0,-1,-373,151)"><rect id="rect1431" width="6" height="6" x="-201" y="57" fill="#fff" fill-opacity=".756" stroke="none" stroke-dasharray="none" stroke-linecap="round" stroke-linejoin="round" stroke-miterlimit="4" stroke-opacity="1" stroke-width="1.57" rx="2" ry="2"/><rect id="rect1433" width="6" height="6" x="-201" y="47" fill="#fff" fill-opacity=".756" stroke="none" stroke-dasharray="none" stroke-linecap="round" stroke-linejoin="round" stroke-miterlimit="4" stroke-opacity="1" stroke-width="1.57" rx="2" ry="2"/><rect id="rect1435" width="6" height="6" x="-201" y="67" fill="#fff" fill-opacity=".756" stroke="none" stroke-dasharray="none" stroke-linecap="round" stroke-linejoin="round" stroke-miterlimit="4" stroke-opacity="1" stroke-width="1.57" rx="2" ry="2"/><rect id="rect1437" width="6" height="6" x="-201" y="77" fill="#fff" fill-opacity=".756" stroke="none" stroke-dasharray="none" stroke-linecap="round" stroke-linejoin="round" stroke-miterlimit="4" stroke-opacity="1" stroke-width="1.57" rx="2" ry="2"/><rect id="rect1439" width="6" height="6" x="-201" y="87" fill="#fff" fill-opacity=".756" stroke="none" stroke-dasharray="none" stroke-linecap="round" stroke-linejoin="round" stroke-miterlimit="4" stroke-opacity="1" stroke-width="1.57" rx="2" ry="2"/><rect id="rect1441" width="6" height="6" x="-201" y="97" fill="#fff" fill-opacity=".756" stroke="none" stroke-dasharray="none" stroke-linecap="round" stroke-linejoin="round" stroke-miterlimit="4" stroke-opacity="1" stroke-width="1.57" rx="2" ry="2"/></g><rect id="rect1443" width="6" height="6" x="172" y="-44" fill="#fff" fill-opacity=".756" stroke="none" stroke-dasharray="none" stroke-linecap="round" stroke-linejoin="round" stroke-miterlimit="4" stroke-opacity="1" stroke-width="1.57" rx="2" ry="2" transform="scale(-1,-1)"/></g><g id="g1497"><g id="g1455" transform="translate(-12.53681,-3)"><g id="g1457" transform="matrix(-1,0,0,-1,-373,151)"><rect id="rect1459" width="6" height="6" x="-201" y="57" fill="#fff" fill-opacity=".756" stroke="none" stroke-dasharray="none" stroke-linecap="round" stroke-linejoin="round" stroke-miterlimit="4" stroke-opacity="1" stroke-width="1.57" rx="2" ry="2"/><rect id="rect1461" width="6" height="6" x="-201" y="47" fill="#fff" fill-opacity=".756" stroke="none" stroke-dasharray="none" stroke-linecap="round" stroke-linejoin="round" stroke-miterlimit="4" stroke-opacity="1" stroke-width="1.57" rx="2" ry="2"/><rect id="rect1463" width="6" height="6" x="-201" y="67" fill="#fff" fill-opacity=".756" stroke="none" stroke-dasharray="none" stroke-linecap="round" stroke-linejoin="round" stroke-miterlimit="4" stroke-opacity="1" stroke-width="1.57" rx="2" ry="2"/><rect id="rect1465" width="6" height="6" x="-201" y="77" fill="#fff" fill-opacity=".756" stroke="none" stroke-dasharray="none" stroke-linecap="round" stroke-linejoin="round" stroke-miterlimit="4" stroke-opacity="1" stroke-width="1.57" rx="2" ry="2"/><rect id="rect1467" width="6" height="6" x="-201" y="87" fill="#fff" fill-opacity=".756" stroke="none" stroke-dasharray="none" stroke-linecap="round" stroke-linejoin="round" stroke-miterlimit="4" stroke-opacity="1" stroke-width="1.57" rx="2" ry="2"/><rect id="rect1469" width="6" height="6" x="-201" y="97" fill="#fff" fill-opacity=".756" stroke="none" stroke-dasharray="none" stroke-linecap="round" stroke-linejoin="round" stroke-miterlimit="4" stroke-opacity="1" stroke-width="1.57" rx="2" ry="2"/></g><rect id="rect1471" width="6" height="6" x="172" y="-44" fill="#fff" fill-opacity=".756" stroke="none" stroke-dasharray="none" stroke-linecap="round" stroke-linejoin="round" stroke-miterlimit="4" stroke-opacity="1" stroke-width="1.57" rx="2" ry="2" transform="scale(-1,-1)"/></g><rect id="rect1473" width="6" height="6" x="184.53" y="-32" fill="#fff" fill-opacity=".756" stroke="none" stroke-dasharray="none" stroke-linecap="round" stroke-linejoin="round" stroke-miterlimit="4" stroke-opacity="1" stroke-width="1.57" rx="2" ry="2" transform="scale(-1,-1)"/></g><g id="g1547" transform="matrix(-1,0,0,-1,-397,144.5074)"><rect id="rect1549" width="6" height="6" x="-201" y="57" fill="#fff" fill-opacity=".756" stroke="none" stroke-dasharray="none" stroke-linecap="round" stroke-linejoin="round" stroke-miterlimit="4" stroke-opacity="1" stroke-width="1.57" rx="2" ry="2"/><rect id="rect1551" width="6" height="6" x="-201" y="47" fill="#fff" fill-opacity=".756" stroke="none" stroke-dasharray="none" stroke-linecap="round" stroke-linejoin="round" stroke-miterlimit="4" stroke-opacity="1" stroke-width="1.57" rx="2" ry="2"/><rect id="rect1553" width="6" height="6" x="-201" y="67" fill="#fff" fill-opacity=".756" stroke="none" stroke-dasharray="none" stroke-linecap="round" stroke-linejoin="round" stroke-miterlimit="4" stroke-opacity="1" stroke-width="1.57" rx="2" ry="2"/><rect id="rect1555" width="6" height="6" x="-201" y="77" fill="#fff" fill-opacity=".756" stroke="none" stroke-dasharray="none" stroke-linecap="round" stroke-linejoin="round" stroke-miterlimit="4" stroke-opacity="1" stroke-width="1.57" rx="2" ry="2"/><rect id="rect1557" width="6" height="6" x="-201" y="87" fill="#fff" fill-opacity=".756" stroke="none" stroke-dasharray="none" stroke-linecap="round" stroke-linejoin="round" stroke-miterlimit="4" stroke-opacity="1" stroke-width="1.57" rx="2" ry="2"/><rect id="rect1559" width="6" height="6" x="-201" y="97" fill="#fff" fill-opacity=".756" stroke="none" stroke-dasharray="none" stroke-linecap="round" stroke-linejoin="round" stroke-miterlimit="4" stroke-opacity="1" stroke-width="1.57" rx="2" ry="2"/></g><g id="g1561" transform="matrix(0,1,-1,0,-113.462,199.5266)"><rect id="rect1563" width="6" height="6" x="92.538" y="108.527" fill="#fff" fill-opacity=".756" stroke="none" stroke-dasharray="none" stroke-linecap="round" stroke-linejoin="round" stroke-miterlimit="4" stroke-opacity="1" stroke-width="1.57" rx="2" ry="2" transform="matrix(0,1,-1,0,0,0)"/><rect id="rect1565" width="6" height="6" x="92.538" y="118.527" fill="#fff" fill-opacity=".756" stroke="none" stroke-dasharray="none" stroke-linecap="round" stroke-linejoin="round" stroke-miterlimit="4" stroke-opacity="1" stroke-width="1.57" rx="2" ry="2" transform="matrix(0,1,-1,0,0,0)"/><rect id="rect1567" width="6" height="6" x="92.538" y="128.527" fill="#fff" fill-opacity=".756" stroke="none" stroke-dasharray="none" stroke-linecap="round" stroke-linejoin="round" stroke-miterlimit="4" stroke-opacity="1" stroke-width="1.57" rx="2" ry="2" transform="matrix(0,1,-1,0,0,0)"/></g></g></g></svg>