<svg xmlns="http://www.w3.org/2000/svg" xmlns:cc="http://web.resource.org/cc/" xmlns:svg="http://www.w3.org/2000/svg" xmlns:xlink="http://www.w3.org/1999/xlink" id="svg4067" width="48" height="48"><defs id="defs4069"><linearGradient id="linearGradient2552" x1="33.026" x2="33.205" y1="51.316" y2="31.565" gradientTransform="matrix(1.144201,0.000000,0.000000,0.478951,-65.07838,-9.168593)" gradientUnits="userSpaceOnUse" xlink:href="#linearGradient3866"/><linearGradient id="linearGradient2550" x1="31.316" x2="31.316" y1="17.585" y2="26.235" gradientTransform="matrix(1.144201,0.000000,0.000000,0.478951,-65.07838,-8.689656)" gradientUnits="userSpaceOnUse" xlink:href="#linearGradient3866"/><linearGradient id="linearGradient2556" x1="31.29" x2="31.29" y1="47.526" y2="31.339" gradientTransform="matrix(1.142450,0.000000,0.000000,0.478951,-64.98963,-9.168593)" gradientUnits="userSpaceOnUse" xlink:href="#linearGradient3866"/><linearGradient id="linearGradient2554" x1="31.449" x2="31.449" y1="41.978" y2="24.899" gradientTransform="matrix(1.174981,0.000000,0.000000,0.453925,-66.19476,-5.460918)" gradientUnits="userSpaceOnUse" xlink:href="#linearGradient6050"/><linearGradient id="linearGradient2558" x1="17.293" x2="17.293" y1="21.471" y2="28.477" gradientTransform="matrix(0.000000,-1.144201,0.495153,0.000000,-9.263130,64.62425)" gradientUnits="userSpaceOnUse" xlink:href="#linearGradient3866"/><linearGradient id="linearGradient2560" x1="17.293" x2="17.293" y1="35.513" y2="23.828" gradientTransform="matrix(0.000000,-1.144201,0.495153,0.000000,-9.263130,64.62425)" gradientUnits="userSpaceOnUse" xlink:href="#linearGradient6050"/><linearGradient id="linearGradient3866"><stop id="stop3868" offset="0" stop-color="#cfcfcf" stop-opacity="1"/><stop id="stop3870" offset="1" stop-color="#fff" stop-opacity="1"/></linearGradient><linearGradient id="linearGradient2562" x1="17.243" x2="17.269" y1="47.842" y2="41.283" gradientTransform="matrix(1.839082e-3,1.144192,-0.495149,4.542112e-3,25.02554,-6.357003)" gradientUnits="userSpaceOnUse" xlink:href="#linearGradient3866"/><linearGradient id="linearGradient6050"><stop id="stop6052" offset="0" stop-color="#cfcfcf" stop-opacity="1"/><stop id="stop6054" offset="1" stop-color="#cfcfcf" stop-opacity="0"/></linearGradient><linearGradient id="linearGradient2564" x1="17.298" x2="17.252" y1="33.821" y2="45.417" gradientTransform="matrix(1.839082e-3,1.144192,-0.495149,4.542112e-3,25.02554,-6.357003)" gradientUnits="userSpaceOnUse" xlink:href="#linearGradient6050"/><linearGradient id="linearGradient11116"><stop id="stop11118" offset="0" stop-color="#143e7b" stop-opacity="1"/><stop id="stop11120" offset="1" stop-color="#93aacc" stop-opacity="1"/></linearGradient><linearGradient id="linearGradient4065" x1="-37" x2="-23.067" y1="286.018" y2="286.018" gradientTransform="matrix(0.920721,0.000000,0.000000,0.920721,35.65227,-234.5020)" gradientUnits="userSpaceOnUse" xlink:href="#linearGradient11116"/></defs><metadata id="metadata4072"/><g id="layer1"><rect id="rect2534" width="35.669" height="14.884" x="-47.455" y=".57" fill="none" fill-opacity="1" fill-rule="nonzero" stroke="#646464" stroke-dasharray="none" stroke-linecap="round" stroke-linejoin="round" stroke-miterlimit="4" stroke-opacity="1" stroke-width="1.09" opacity="1" ry="1.708" transform="matrix(0.000000,-1.000000,1.000000,0.000000,0.000000,0.000000)"/><rect id="rect2536" width="35.891" height="15.024" x="-47.192" y=".234" fill="url(#linearGradient2550)" fill-opacity="1" fill-rule="nonzero" stroke="url(#linearGradient2552)" stroke-dasharray="none" stroke-linecap="round" stroke-linejoin="round" stroke-miterlimit="4" stroke-opacity="1" stroke-width=".468" opacity="1" ry="1.451" transform="matrix(0.000000,-1.000000,1.000000,0.000000,0.000000,0.000000)"/><rect id="rect2538" width="35.896" height="11.016" x="-47.191" y="4.242" fill="url(#linearGradient2554)" fill-opacity="1" fill-rule="nonzero" stroke="url(#linearGradient2556)" stroke-dasharray="none" stroke-linecap="round" stroke-linejoin="round" stroke-miterlimit="4" stroke-opacity="1" stroke-width=".468" opacity="1" ry="1.423" transform="matrix(0.000000,-1.000000,1.000000,0.000000,0.000000,0.000000)"/><path id="path2540" fill="url(#linearGradient2558)" fill-opacity="1" fill-rule="evenodd" stroke="none" stroke-linecap="round" stroke-linejoin="round" stroke-opacity="1" stroke-width="1" d="M 1.4914555,46.591547 C 1.4914555,46.591547 7.9882584,42.526903 14.423150,46.771131 C 14.423150,46.771131 1.4776330,46.549589 1.3682973,46.718947"/><path id="path2542" fill="url(#linearGradient2560)" fill-opacity="1" fill-rule="evenodd" stroke="none" stroke-linecap="round" stroke-linejoin="round" stroke-opacity="1" stroke-width="1" d="M 1.4914555,46.591547 C 1.4914555,46.591547 7.9882584,42.526903 14.423150,46.771131 C 14.423150,46.771131 1.4776330,46.549589 1.3682973,46.718947"/><path id="path2544" fill="url(#linearGradient2562)" fill-opacity="1" fill-rule="evenodd" stroke="none" stroke-linecap="round" stroke-linejoin="round" stroke-opacity="1" stroke-width="1" d="M 14.299991,11.774246 C 14.299991,11.774246 7.8097808,15.898450 1.3681111,11.713274 C 1.3681111,11.713274 14.190499,11.670102 14.299550,11.499746"/><path id="path2546" fill="url(#linearGradient2564)" fill-opacity="1" fill-rule="evenodd" stroke="none" stroke-linecap="round" stroke-linejoin="round" stroke-opacity="1" stroke-width="1" d="M 14.299991,11.774246 C 14.299991,11.774246 7.8097808,15.898450 1.3681111,11.713274 C 1.3681111,11.713274 14.190499,11.670102 14.299550,11.499746"/><path id="rect2602" fill="url(#linearGradient4065)" fill-opacity="1" fill-rule="nonzero" stroke="#474747" stroke-dasharray="none" stroke-linecap="round" stroke-linejoin="round" stroke-miterlimit="4" stroke-opacity="1" stroke-width=".462" d="M 7.8705228,23.057265 C 7.2176208,23.057265 6.6908478,23.584035 6.6908478,24.236945 L 6.6908478,27.401925 L 3.4107761,27.401925 C 2.7578741,27.401925 2.2311012,27.928685 2.2311012,28.581595 L 2.2311012,28.869325 C 2.2311012,29.522225 2.7578751,30.048995 3.4107761,30.048995 L 6.6908478,30.048995 L 6.6908478,33.444165 C 6.6908478,34.097065 7.2176218,34.623845 7.8705228,34.623835 L 8.1294757,34.623835 C 8.7823787,34.623835 9.3091507,34.097074 9.3091517,33.444165 L 9.3091517,30.048995 L 12.589224,30.048995 C 13.242126,30.048995 13.768900,29.522225 13.768899,28.869325 L 13.768899,28.581595 C 13.768899,27.928695 13.242126,27.401915 12.589224,27.401925 L 9.3091517,27.401925 L 9.3091517,24.236945 C 9.3091517,23.584035 8.7823797,23.057265 8.1294757,23.057265 L 7.8705228,23.057265 z" opacity="1"/></g></svg>