<svg xmlns="http://www.w3.org/2000/svg" xmlns:cc="http://web.resource.org/cc/" xmlns:svg="http://www.w3.org/2000/svg" xmlns:xlink="http://www.w3.org/1999/xlink" id="svg3094" width="16" height="16"><defs id="defs3096"><linearGradient id="linearGradient11116"><stop id="stop11118" offset="0" stop-color="#143e7b" stop-opacity="1"/><stop id="stop11120" offset="1" stop-color="#93aacc" stop-opacity="1"/></linearGradient><linearGradient id="linearGradient3087" x1="-243" x2="-213.21" y1="213.955" y2="213.955" gradientTransform="matrix(0.496471,0.000000,0.000000,0.496471,120.6423,-98.18822)" gradientUnits="userSpaceOnUse" xlink:href="#linearGradient11116"/></defs><metadata id="metadata3099"/><g id="layer1"><path id="path1615" fill="#656565" fill-opacity="1" fill-rule="evenodd" stroke="#3c3c3c" stroke-linecap="round" stroke-linejoin="round" stroke-opacity="1" stroke-width=".257" d="M 15.874139,10.192183 L 12.786363,6.5398278 L 9.6508162,10.192183 L 15.874139,10.192183 z"/><path id="path1616" fill="url(#linearGradient3087)" fill-opacity="1" fill-rule="evenodd" stroke="#404e67" stroke-dasharray="none" stroke-linecap="round" stroke-linejoin="round" stroke-miterlimit="4" stroke-opacity=".665" stroke-width="1.005" d="M 2.9857422,10.315838 C 2.5113490,8.4657391 3.9343546,5.0606851 5.1542638,5.9417881 C 6.3394596,6.7978131 5.8770513,8.1940291 7.7377608,8.4876031 C 9.4625561,8.7597231 13.330851,3.4137166 13.044035,1.9212300 C 12.804324,0.67389579 9.7353769,0.49072269 8.9663681,0.59711659 C 7.1615067,0.84682659 6.3844896,1.2852206 5.8438374,1.5872736 C 5.4601198,1.8016450 1.7438195,3.8184746 0.67410271,8.0562991 C 0.13082431,10.208580 0.98143824,12.524231 1.7933077,13.424572 C 5.1070741,17.099447 12.457837,15.579307 14.287323,11.285268 C 12.946742,12.878499 4.7112277,17.045143 2.9857422,10.315838 z" class="fil0 str3" opacity="1"/></g></svg>