<svg xmlns="http://www.w3.org/2000/svg" xmlns:cc="http://web.resource.org/cc/" xmlns:svg="http://www.w3.org/2000/svg" xmlns:xlink="http://www.w3.org/1999/xlink" id="svg24932" width="210mm" height="297mm"><defs id="defs24934"><linearGradient id="linearGradient21981" x1="17.298" x2="17.252" y1="33.821" y2="45.417" gradientTransform="matrix(-1.358329,5.215763e-3,-5.392174e-3,-1.404275,61.14379,55.45066)" gradientUnits="userSpaceOnUse" xlink:href="#linearGradient24916"/><linearGradient id="linearGradient21984" x1="17.243" x2="17.269" y1="47.842" y2="41.283" gradientTransform="matrix(-1.358329,5.215763e-3,-5.392174e-3,-1.404275,61.14380,55.45066)" gradientUnits="userSpaceOnUse" xlink:href="#linearGradient22732"/><linearGradient id="linearGradient24916"><stop id="stop24918" offset="0" stop-color="#1b7b14" stop-opacity="1"/><stop id="stop24920" offset="1" stop-color="#97cc93" stop-opacity="0"/></linearGradient><linearGradient id="linearGradient21987" x1="17.293" x2="17.293" y1="35.513" y2="23.828" gradientTransform="matrix(1.358340,0.000000,0.000000,1.404286,-23.12170,-41.79426)" gradientUnits="userSpaceOnUse" xlink:href="#linearGradient24916"/><linearGradient id="linearGradient21990" x1="17.293" x2="17.293" y1="21.471" y2="28.477" gradientTransform="matrix(1.358340,0.000000,0.000000,1.404286,-23.12170,-41.79426)" gradientUnits="userSpaceOnUse" xlink:href="#linearGradient22732"/><linearGradient id="linearGradient15929"><stop id="stop15931" offset="0" stop-color="#cbcbcb" stop-opacity="1"/><stop id="stop15933" offset=".5" stop-color="#fff" stop-opacity="1"/><stop id="stop15935" offset="1" stop-color="#cbcbcb" stop-opacity="1"/></linearGradient><radialGradient id="radialGradient21993" cx="33.373" cy="38.603" r="12.315" fx="33.373" fy="38.603" gradientTransform="matrix(-1.035857,-0.899115,1.079690,-1.243894,17.20895,78.18192)" gradientUnits="userSpaceOnUse" xlink:href="#linearGradient15929"/><linearGradient id="linearGradient21998" x1="31.29" x2="31.29" y1="47.526" y2="31.339" gradientTransform="matrix(1.358340,0.000000,0.000000,1.358340,-23.66077,-41.52629)" gradientUnits="userSpaceOnUse" xlink:href="#linearGradient22732"/><linearGradient id="linearGradient21996" x1="31.449" x2="31.449" y1="41.978" y2="24.899" gradientTransform="matrix(1.397019,0.000000,0.000000,1.287363,-25.09374,-31.01093)" gradientUnits="userSpaceOnUse" xlink:href="#linearGradient22732"/><linearGradient id="linearGradient22003" x1="33.026" x2="33.205" y1="51.316" y2="31.565" gradientTransform="matrix(1.358340,0.000000,0.000000,1.358340,-23.66077,-41.52629)" gradientUnits="userSpaceOnUse" xlink:href="#linearGradient22732"/><linearGradient id="linearGradient22732"><stop id="stop22734" offset="0" stop-color="#1b7b14" stop-opacity="1"/><stop id="stop22736" offset="1" stop-color="#97cc93" stop-opacity="1"/></linearGradient><linearGradient id="linearGradient22001" x1="31.316" x2="31.316" y1="17.585" y2="26.235" gradientTransform="matrix(1.358340,0.000000,0.000000,1.358340,-23.66077,-40.16795)" gradientUnits="userSpaceOnUse" xlink:href="#linearGradient22732"/></defs><metadata id="metadata24937"/><g id="layer1"><g id="g24922" transform="translate(279.5730,458.0869)"><rect id="rect16663" width="43.444" height="43.443" x="-1.972" y="-14.471" fill="none" fill-opacity="1" fill-rule="nonzero" stroke="#646464" stroke-dasharray="none" stroke-linecap="round" stroke-linejoin="round" stroke-miterlimit="4" stroke-opacity="1" stroke-width="2.056" opacity="1" ry="4.985"/><rect id="rect9658" width="42.608" height="42.609" x="-2.427" y="-14.86" fill="url(#linearGradient22001)" fill-opacity="1" fill-rule="nonzero" stroke="url(#linearGradient22003)" stroke-dasharray="none" stroke-linecap="round" stroke-linejoin="round" stroke-miterlimit="4" stroke-opacity="1" stroke-width=".858" opacity="1" ry="4.116"/><rect id="rect5284" width="42.68" height="31.242" x="-2.499" y="-3.493" fill="url(#linearGradient21996)" fill-opacity="1" fill-rule="nonzero" stroke="url(#linearGradient21998)" stroke-dasharray="none" stroke-linecap="round" stroke-linejoin="round" stroke-miterlimit="4" stroke-opacity="1" stroke-width=".858" opacity="1" ry="4.035"/><path id="path1402" fill="url(#radialGradient21993)" fill-opacity="1" fill-rule="evenodd" stroke="#404e67" stroke-dasharray="none" stroke-linejoin="bevel" stroke-miterlimit="4" stroke-opacity=".665" stroke-width=".825" d="M 10.460757,11.815737 C 9.5052316,8.0892383 12.371467,1.2307202 14.828631,3.0054485 C 17.215874,4.7296736 16.284485,7.5419563 20.032347,8.1332689 C 23.506459,8.6813862 31.298037,-2.0866307 30.720329,-5.0928173 C 30.237501,-7.6052118 24.055984,-7.9741689 22.507028,-7.7598641 C 18.871651,-7.2569006 17.306570,-6.3738792 16.217580,-5.7654801 C 15.444691,-5.3336873 7.9592591,-1.2713602 5.8046242,7.2645357 C 4.7103410,11.599696 6.4236625,16.263917 8.0589377,18.077392 C 14.733577,25.479385 29.539597,22.417489 33.224577,13.768378 C 30.524360,16.977484 13.936257,25.369999 10.460757,11.815737 z" class="fil0 str3" opacity="1"/><path id="path20627" fill="url(#linearGradient21990)" fill-opacity="1" fill-rule="evenodd" stroke="none" stroke-linecap="round" stroke-linejoin="round" stroke-opacity="1" stroke-width="1" d="M -1.7141308,-11.293540 C -1.7141308,-11.293540 3.1112067,7.1318341 -1.9273332,25.381640 C -1.9273332,25.381640 -1.6643259,-11.332745 -1.8653766,-11.642810"/><path id="path2075" fill="url(#linearGradient21987)" fill-opacity="1" fill-rule="evenodd" stroke="none" stroke-linecap="round" stroke-linejoin="round" stroke-opacity="1" stroke-width="1" d="M -1.7141308,-11.293540 C -1.7141308,-11.293540 3.1112067,7.1318341 -1.9273332,25.381640 C -1.9273332,25.381640 -1.6643259,-11.332745 -1.8653766,-11.642810"/><path id="path27193" fill="url(#linearGradient21984)" fill-opacity="1" fill-rule="evenodd" stroke="none" stroke-linecap="round" stroke-linejoin="round" stroke-opacity="1" stroke-width="1" d="M 39.619264,25.032370 C 39.619264,25.032370 34.723213,6.6256609 39.691639,-11.643358 C 39.691639,-11.643358 39.742904,24.721826 39.945143,25.031119"/><path id="path3537" fill="url(#linearGradient21981)" fill-opacity="1" fill-rule="evenodd" stroke="none" stroke-linecap="round" stroke-linejoin="round" stroke-opacity="1" stroke-width="1" d="M 39.619264,25.032370 C 39.619264,25.032370 34.723213,6.6256609 39.691639,-11.643358 C 39.691639,-11.643358 39.742904,24.721826 39.945143,25.031119"/></g></g></svg>