<svg xmlns="http://www.w3.org/2000/svg" xmlns:cc="http://web.resource.org/cc/" xmlns:svg="http://www.w3.org/2000/svg" xmlns:xlink="http://www.w3.org/1999/xlink" id="svg7065" width="48" height="48"><defs id="defs7067"><linearGradient id="linearGradient3866"><stop id="stop3868" offset="0" stop-color="#cfcfcf" stop-opacity="1"/><stop id="stop3870" offset="1" stop-color="#fff" stop-opacity="1"/></linearGradient><linearGradient id="linearGradient7063" x1="-710.469" x2="-653" y1="360.984" y2="360.984" gradientTransform="matrix(0.323225,0.000000,0.000000,0.368720,236.6526,-114.2235)" gradientUnits="userSpaceOnUse" xlink:href="#linearGradient3866"/><radialGradient id="radialGradient33522" cx="85.672" cy="147.781" r="4.204" fx="85.672" fy="147.781" gradientTransform="matrix(0.448492,0.827256,-0.636697,0.345182,140.6535,26.36139)" gradientUnits="userSpaceOnUse" xlink:href="#linearGradient7006"/><linearGradient id="linearGradient7006"><stop id="stop2072" offset="0" stop-color="#ff8400" stop-opacity="1"/><stop id="stop7010" offset="1" stop-color="#ffc768" stop-opacity="1"/></linearGradient><linearGradient id="linearGradient33518" x1="102.082" x2="108.171" y1="148.028" y2="148.028" gradientTransform="matrix(1.330344,0.000000,0.000000,0.717456,-122.3089,-86.00228)" gradientUnits="userSpaceOnUse" xlink:href="#linearGradient14399"/><linearGradient id="linearGradient14399"><stop id="stop14401" offset="0" stop-color="#143e7b" stop-opacity="1"/><stop id="stop14403" offset="1" stop-color="#93aacc" stop-opacity=".655"/></linearGradient><linearGradient id="linearGradient9242" x1="102.082" x2="108.171" y1="148.028" y2="148.028" gradientTransform="matrix(0.804063,0.000000,0.000000,0.433633,-67.64815,-44.35912)" gradientUnits="userSpaceOnUse" xlink:href="#linearGradient14399"/><radialGradient id="radialGradient9244" cx="85.672" cy="147.781" r="4.204" fx="85.672" fy="147.781" gradientTransform="matrix(-2.519551,-2.105368,2.334521,-0.658349,-44.15746,425.9077)" gradientUnits="userSpaceOnUse" xlink:href="#linearGradient7006"/><linearGradient id="linearGradient1326" x1="-702.307" x2="-639.941" y1="360.746" y2="360.746" gradientTransform="matrix(0.323225,0.000000,0.000000,0.368720,259.2177,-114.3655)" gradientUnits="userSpaceOnUse" xlink:href="#linearGradient3866"/><linearGradient id="linearGradient1328" x1="102.082" x2="108.171" y1="148.028" y2="148.028" gradientTransform="matrix(0.804063,0.000000,0.000000,0.433633,-45.08301,-44.50115)" gradientUnits="userSpaceOnUse" xlink:href="#linearGradient14399"/><radialGradient id="radialGradient1330" cx="85.672" cy="147.781" r="4.204" fx="85.672" fy="147.781" gradientTransform="matrix(-2.519551,-2.105368,2.334521,-0.658349,-44.15746,425.9077)" gradientUnits="userSpaceOnUse" xlink:href="#linearGradient7006"/></defs><metadata id="metadata7070"/><g id="layer1"><path id="rect1954" fill="url(#linearGradient7063)" fill-opacity="1" fill-rule="nonzero" stroke="#646464" stroke-dasharray="none" stroke-linecap="round" stroke-linejoin="round" stroke-miterlimit="4" stroke-opacity="1" stroke-width=".758" d="M 10.566567,10.577400 C 8.6881564,10.577400 7.1726965,12.294649 7.1726965,14.437458 L 7.1726965,20.175698 C 7.1726965,22.318512 8.6881598,24.047277 10.566567,24.047281 L 11.384738,24.047281 L 11.435132,29.172580 L 17.171853,24.047281 L 22.041100,24.047281 C 23.919515,24.047281 25.424872,22.318516 25.424875,20.175698 L 25.424875,14.437458 C 25.424875,12.294646 23.919509,10.577400 22.041100,10.577400 L 10.566567,10.577400 z" opacity="1"/><rect id="rect33516" width="3.146" height="5.655" x="14.608" y="17.003" fill="url(#linearGradient9242)" fill-opacity="1" fill-rule="nonzero" stroke="#6c6c6c" stroke-dasharray="none" stroke-linecap="round" stroke-linejoin="round" stroke-miterlimit="4" stroke-opacity="1" stroke-width=".347" opacity="1" ry=".761"/><path id="path33520" fill="url(#radialGradient9244)" fill-opacity="1" fill-rule="nonzero" stroke="#6c6c6c" stroke-dasharray="none" stroke-linecap="round" stroke-linejoin="round" stroke-miterlimit="4" stroke-opacity="1" stroke-width=".667" d="M 89.984229,148.24525 A 3.9848089,3.9848089 0 1 1 89.984059,148.20844" opacity="1" transform="matrix(0.546374,0.000000,0.000000,0.495205,-30.91535,-59.41651)"/><path id="path1320" fill="url(#linearGradient1326)" fill-opacity="1" fill-rule="nonzero" stroke="#3c3c3c" stroke-dasharray="none" stroke-linecap="round" stroke-linejoin="round" stroke-miterlimit="4" stroke-opacity="1" stroke-width=".758" d="M 33.131705,10.435365 C 31.253295,10.435365 29.737835,12.152614 29.737835,14.295422 L 29.737835,20.033662 C 29.737835,22.176476 31.253298,23.905241 33.131705,23.905245 L 33.949876,23.905245 L 34.000270,29.030544 L 39.736991,23.905245 L 44.606238,23.905245 C 46.484653,23.905245 47.990010,22.176480 47.990013,20.033662 L 47.990013,14.295422 C 47.990013,12.152611 46.484647,10.435365 44.606238,10.435365 L 33.131705,10.435365 z" opacity="1"/><rect id="rect1322" width="3.146" height="5.655" x="37.173" y="16.861" fill="url(#linearGradient1328)" fill-opacity="1" fill-rule="nonzero" stroke="#6c6c6c" stroke-dasharray="none" stroke-linecap="round" stroke-linejoin="round" stroke-miterlimit="4" stroke-opacity="1" stroke-width=".347" opacity="1" ry=".761"/><path id="path1324" fill="url(#radialGradient1330)" fill-opacity="1" fill-rule="nonzero" stroke="#6c6c6c" stroke-dasharray="none" stroke-linecap="round" stroke-linejoin="round" stroke-miterlimit="4" stroke-opacity="1" stroke-width=".667" d="M 89.984229,148.24525 A 3.9848089,3.9848089 0 1 1 89.984059,148.20844" opacity="1" transform="matrix(0.546374,0.000000,0.000000,0.495205,-8.350212,-59.55854)"/></g></svg>