<svg xmlns="http://www.w3.org/2000/svg" xmlns:cc="http://web.resource.org/cc/" xmlns:svg="http://www.w3.org/2000/svg" xmlns:xlink="http://www.w3.org/1999/xlink" id="svg3840" width="32" height="32"><defs id="defs3842"><linearGradient id="linearGradient11116"><stop id="stop11118" offset="0" stop-color="#143e7b" stop-opacity="1"/><stop id="stop11120" offset="1" stop-color="#93aacc" stop-opacity="1"/></linearGradient><linearGradient id="linearGradient15929"><stop id="stop15931" offset="0" stop-color="#cbcbcb" stop-opacity="1"/><stop id="stop15933" offset=".5" stop-color="#fff" stop-opacity="1"/><stop id="stop15935" offset="1" stop-color="#cbcbcb" stop-opacity="1"/></linearGradient><linearGradient id="linearGradient3866"><stop id="stop3868" offset="0" stop-color="#cfcfcf" stop-opacity="1"/><stop id="stop3870" offset="1" stop-color="#fff" stop-opacity="1"/></linearGradient><linearGradient id="linearGradient7063" x1="-710.469" x2="-653" y1="360.984" y2="360.984" gradientTransform="matrix(0.323225,0.000000,0.000000,0.368720,229.8489,-111.7750)" gradientUnits="userSpaceOnUse" xlink:href="#linearGradient3866"/><linearGradient id="linearGradient20674"><stop id="stop20676" offset="0" stop-color="#93aacc" stop-opacity="1"/><stop id="stop20678" offset="1" stop-color="#f8f8f8" stop-opacity="1"/></linearGradient><linearGradient id="linearGradient11430" x1="-386.969" x2="-352.577" y1="191.469" y2="191.469" gradientUnits="userSpaceOnUse" xlink:href="#linearGradient20674"/><linearGradient id="linearGradient11432" x1="-357.552" x2="-360.552" y1="179.776" y2="182.49" gradientUnits="userSpaceOnUse" xlink:href="#linearGradient20674"/><linearGradient id="linearGradient4825" x1="-567.311" x2="-567.127" y1="166.561" y2="211.99" gradientTransform="matrix(0.164338,0.000000,0.000000,1.122383,101.0244,-188.2017)" gradientUnits="userSpaceOnUse" xlink:href="#linearGradient15929"/><linearGradient id="linearGradient4817"><stop id="stop4819" offset="0" stop-color="#cbcbcb" stop-opacity="1"/><stop id="stop4821" offset=".5" stop-color="#fff" stop-opacity="1"/><stop id="stop4823" offset="1" stop-color="#cbcbcb" stop-opacity="1"/></linearGradient><linearGradient id="linearGradient4873" x1="-406.239" x2="-352.577" y1="191.469" y2="191.469" gradientUnits="userSpaceOnUse" xlink:href="#linearGradient20674"/><linearGradient id="linearGradient4875" x1="-357.552" x2="-360.552" y1="179.776" y2="182.49" gradientUnits="userSpaceOnUse" xlink:href="#linearGradient20674"/><linearGradient id="linearGradient32776" x1="146.47" x2="152.125" y1="-103.509" y2="-103.493" gradientTransform="matrix(0.868637,-2.077645e-9,1.477727e-9,0.860471,-108.8038,77.91385)" gradientUnits="userSpaceOnUse" xlink:href="#linearGradient14399"/><linearGradient id="linearGradient14399"><stop id="stop14401" offset="0" stop-color="#143e7b" stop-opacity="1"/><stop id="stop14403" offset="1" stop-color="#93aacc" stop-opacity=".655"/></linearGradient><linearGradient id="linearGradient33510" x1="102.082" x2="108.171" y1="148.028" y2="148.028" gradientTransform="matrix(0.860471,0.000000,0.000000,0.868638,-78.40363,-108.4451)" gradientUnits="userSpaceOnUse" xlink:href="#linearGradient14399"/><radialGradient id="radialGradient30586" cx="85.545" cy="148.303" r="4.204" fx="85.545" fy="148.303" gradientTransform="matrix(0.497065,1.508478,-1.097670,0.361700,204.6784,-34.43849)" gradientUnits="userSpaceOnUse" xlink:href="#linearGradient7006"/><linearGradient id="linearGradient7006"><stop id="stop2072" offset="0" stop-color="#ff8400" stop-opacity="1"/><stop id="stop7010" offset="1" stop-color="#ffc768" stop-opacity="1"/></linearGradient><linearGradient id="linearGradient29124" x1="256.83" x2="265.527" y1="160.947" y2="149.295" gradientTransform="matrix(0.181322,0.156762,-0.172308,0.197696,-4.922786,-50.60438)" gradientUnits="userSpaceOnUse" xlink:href="#linearGradient7006"/><linearGradient id="linearGradient7138" x1="-357.552" x2="-360.552" y1="179.776" y2="182.49" gradientTransform="matrix(0.308640,0.000000,0.000000,0.294771,119.8217,-36.43945)" gradientUnits="userSpaceOnUse" xlink:href="#linearGradient20674"/><linearGradient id="linearGradient7141" x1="-384.102" x2="-352.577" y1="191.469" y2="191.469" gradientTransform="matrix(0.308640,0.000000,0.000000,0.294771,119.8217,-36.43945)" gradientUnits="userSpaceOnUse" xlink:href="#linearGradient20674"/><linearGradient id="linearGradient7880" x1="-384.102" x2="-352.577" y1="191.469" y2="191.469" gradientTransform="matrix(0.308640,0.000000,0.000000,0.294771,119.8217,-36.43945)" gradientUnits="userSpaceOnUse" xlink:href="#linearGradient20674"/><linearGradient id="linearGradient7882" x1="-357.552" x2="-360.552" y1="179.776" y2="182.49" gradientTransform="matrix(0.308640,0.000000,0.000000,0.294771,119.8217,-36.43945)" gradientUnits="userSpaceOnUse" xlink:href="#linearGradient20674"/><linearGradient id="linearGradient1355" x1="-702.852" x2="-639.353" y1="360.984" y2="361.263" gradientTransform="matrix(0.323225,0.000000,0.000000,0.368720,251.8806,-111.5751)" gradientUnits="userSpaceOnUse" xlink:href="#linearGradient3866"/><linearGradient id="linearGradient1357" x1="-384.102" x2="-352.577" y1="191.469" y2="191.469" gradientTransform="matrix(0.308640,0.000000,0.000000,0.294771,119.8217,-36.43945)" gradientUnits="userSpaceOnUse" xlink:href="#linearGradient20674"/><linearGradient id="linearGradient1359" x1="-357.552" x2="-360.552" y1="179.776" y2="182.49" gradientTransform="matrix(0.308640,0.000000,0.000000,0.294771,119.8217,-36.43945)" gradientUnits="userSpaceOnUse" xlink:href="#linearGradient20674"/></defs><metadata id="metadata3845"/><g id="layer1"><path id="rect1954" fill="url(#linearGradient7063)" fill-opacity="1" fill-rule="nonzero" stroke="#646464" stroke-dasharray="none" stroke-linecap="round" stroke-linejoin="round" stroke-miterlimit="4" stroke-opacity="1" stroke-width=".758" d="M 3.7627811,13.025909 C 1.8843702,13.025909 0.36891020,14.743158 0.36891020,16.885967 L 0.36891020,22.624207 C 0.36891020,24.767021 1.8843742,26.495786 3.7627811,26.495790 L 4.5809521,26.495790 L 4.6313461,31.621089 L 10.368067,26.495790 L 15.237314,26.495790 C 17.115729,26.495790 18.621086,24.767025 18.621089,22.624207 L 18.621089,16.885967 C 18.621089,14.743155 17.115723,13.025909 15.237314,13.025909 L 3.7627811,13.025909 z" opacity="1"/><g id="g7875" transform="translate(0.732057,-9.995200e-2)"><path id="path11422" fill="url(#linearGradient7880)" fill-opacity="1" fill-rule="nonzero" stroke="#646464" stroke-dasharray="none" stroke-linecap="round" stroke-linejoin="round" stroke-miterlimit="4" stroke-opacity="1" stroke-width=".405" d="M 3.5771261,15.102542 C 3.4996482,15.102542 3.4387319,15.160718 3.4387319,15.234717 L 3.4387319,24.765276 C 3.4387319,24.839273 3.4996451,24.897452 3.5771261,24.897452 L 10.759074,24.897452 C 10.836552,24.897452 10.897468,24.839276 10.897468,24.765276 L 10.897468,17.175610 L 8.7268585,15.102542 L 3.5771261,15.102542 z" opacity="1"/><path id="path11424" fill="url(#linearGradient7882)" fill-opacity="1" fill-rule="nonzero" stroke="#646464" stroke-dasharray="none" stroke-linecap="round" stroke-linejoin="round" stroke-miterlimit="4" stroke-opacity="1" stroke-width=".405" d="M 8.7041334,15.103376 C 8.6855471,15.126047 8.6458621,15.127871 8.6458621,15.159029 L 8.6458621,17.120791 C 8.6458621,17.194788 8.7067753,17.252970 8.7842563,17.252970 L 10.838323,17.252970 C 10.870947,17.252970 10.872857,17.215068 10.896595,17.197317 L 10.896595,17.176447 L 8.7259851,15.103376 L 8.7041334,15.103376 z" opacity="1"/><path id="path6346" fill="#ff8400" fill-opacity="1" fill-rule="evenodd" stroke="#646464" stroke-dasharray="none" stroke-linecap="round" stroke-linejoin="round" stroke-miterlimit="4" stroke-opacity="1" stroke-width=".221" d="M 12.834519,18.110710 L 16.157233,20.882730 L 12.815887,23.575318 L 12.797699,21.696585 L 7.1288085,21.696585 L 7.1288085,19.977752 L 12.797699,19.894429 L 12.834519,18.110710 z"/></g><path id="path1345" fill="url(#linearGradient1355)" fill-opacity="1" fill-rule="nonzero" stroke="#3c3c3c" stroke-dasharray="none" stroke-linecap="round" stroke-linejoin="round" stroke-miterlimit="4" stroke-opacity="1" stroke-width=".758" d="M 25.794490,13.225819 C 23.916079,13.225819 22.400619,14.943068 22.400619,17.085877 L 22.400619,22.824117 C 22.400619,24.966931 23.916083,26.695696 25.794490,26.695700 L 26.612661,26.695700 L 26.663055,31.820999 L 32.399776,26.695700 L 37.269023,26.695700 C 39.147438,26.695700 40.652795,24.966935 40.652798,22.824117 L 40.652798,17.085877 C 40.652798,14.943065 39.147432,13.225819 37.269023,13.225819 L 25.794490,13.225819 z" opacity="1"/><g id="g1347" transform="translate(22.76377,9.995800e-2)"><path id="path1349" fill="url(#linearGradient1357)" fill-opacity="1" fill-rule="nonzero" stroke="#646464" stroke-dasharray="none" stroke-linecap="round" stroke-linejoin="round" stroke-miterlimit="4" stroke-opacity="1" stroke-width=".405" d="M 3.5771261,15.102542 C 3.4996482,15.102542 3.4387319,15.160718 3.4387319,15.234717 L 3.4387319,24.765276 C 3.4387319,24.839273 3.4996451,24.897452 3.5771261,24.897452 L 10.759074,24.897452 C 10.836552,24.897452 10.897468,24.839276 10.897468,24.765276 L 10.897468,17.175610 L 8.7268585,15.102542 L 3.5771261,15.102542 z" opacity="1"/><path id="path1351" fill="url(#linearGradient1359)" fill-opacity="1" fill-rule="nonzero" stroke="#646464" stroke-dasharray="none" stroke-linecap="round" stroke-linejoin="round" stroke-miterlimit="4" stroke-opacity="1" stroke-width=".405" d="M 8.7041334,15.103376 C 8.6855471,15.126047 8.6458621,15.127871 8.6458621,15.159029 L 8.6458621,17.120791 C 8.6458621,17.194788 8.7067753,17.252970 8.7842563,17.252970 L 10.838323,17.252970 C 10.870947,17.252970 10.872857,17.215068 10.896595,17.197317 L 10.896595,17.176447 L 8.7259851,15.103376 L 8.7041334,15.103376 z" opacity="1"/><path id="path1353" fill="#ff8400" fill-opacity="1" fill-rule="evenodd" stroke="#646464" stroke-dasharray="none" stroke-linecap="round" stroke-linejoin="round" stroke-miterlimit="4" stroke-opacity="1" stroke-width=".221" d="M 12.834519,18.110710 L 16.157233,20.882730 L 12.815887,23.575318 L 12.797699,21.696585 L 7.1288085,21.696585 L 7.1288085,19.977752 L 12.797699,19.894429 L 12.834519,18.110710 z"/></g></g></svg>