<svg xmlns="http://www.w3.org/2000/svg" xmlns:cc="http://web.resource.org/cc/" xmlns:svg="http://www.w3.org/2000/svg" xmlns:xlink="http://www.w3.org/1999/xlink" id="svg1316" width="16" height="16"><defs id="defs1318"><linearGradient id="linearGradient2058"><stop id="stop2060" offset="0" stop-color="#9d9d9d" stop-opacity="1"/><stop id="stop2062" offset="1" stop-color="#fff" stop-opacity="1"/></linearGradient><linearGradient id="linearGradient3493"><stop id="stop3495" offset="0" stop-color="#ffc768" stop-opacity="1"/><stop id="stop3497" offset="1" stop-color="#ff8400" stop-opacity="1"/></linearGradient><radialGradient id="radialGradient15165" cx="-8.009" cy="7.974" r="4.991" fx="-8.009" fy="7.974" gradientTransform="matrix(0.773627,1.351649e-6,-1.260975e-6,0.721729,14.19437,2.245983)" gradientUnits="userSpaceOnUse" xlink:href="#linearGradient3493"/><linearGradient id="linearGradient2064" x1="-3.695" x2="13.521" y1="8.002" y2="8.002" gradientUnits="userSpaceOnUse" xlink:href="#linearGradient2058"/><radialGradient id="radialGradient2176" cx="-8.009" cy="7.974" r="4.991" fx="-8.009" fy="7.974" gradientTransform="matrix(0.773627,1.351649e-6,-1.260975e-6,0.721729,33.195622,2.2440984)" gradientUnits="userSpaceOnUse" xlink:href="#linearGradient3493"/></defs><metadata id="metadata1321"/><g id="layer1"><rect id="rect3126" width="15.276" height="15.276" x=".361" y=".364" fill="url(#linearGradient2064)" fill-opacity="1" fill-rule="nonzero" stroke="#646464" stroke-dasharray="none" stroke-linecap="round" stroke-linejoin="round" stroke-miterlimit="4" stroke-opacity="1" stroke-width=".724" opacity="1" ry="2.205"/><rect id="rect2038" width=".597" height="2" x="10.401" y="10.002" fill="#fff" fill-opacity="1" fill-rule="nonzero" stroke="none" stroke-dasharray="none" stroke-linecap="round" stroke-linejoin="round" stroke-miterlimit="4" stroke-opacity="1" stroke-width=".444" opacity="1" ry=".299"/><path id="rect10058" fill="url(#radialGradient15165)" fill-opacity="1" fill-rule="nonzero" stroke="#474747" stroke-dasharray="none" stroke-linecap="round" stroke-linejoin="round" stroke-miterlimit="4" stroke-opacity="1" stroke-width=".716" d="M 4.7118935,3.3580381 C 4.4599770,3.3570893 4.2169787,3.4478041 4.0232193,3.6378088 L 3.6475788,4.0108363 C 3.2600601,4.3908454 3.2629730,4.9956867 3.6475788,5.3786038 L 6.2770625,7.9897963 L 3.6475788,10.600988 C 3.2629730,10.983906 3.2600591,11.619832 3.6475788,11.999842 L 4.0232193,12.372869 C 4.4107390,12.752879 5.0159620,12.724701 5.4005678,12.341784 L 8.0300515,9.7305913 L 10.596928,12.310698 C 10.981534,12.693615 11.586758,12.690707 11.974278,12.310698 L 12.349918,11.937670 C 12.737437,11.557661 12.734523,10.952820 12.349918,10.569903 L 9.7830405,7.9897963 L 12.349918,5.4407750 C 12.734524,5.0578573 12.737438,4.4530172 12.349918,4.0730075 L 11.974278,3.6999800 C 11.586758,3.3199704 10.981535,3.3170623 10.596928,3.6999800 L 8.0300515,6.2490013 L 5.4005678,3.6378088 C 5.2082649,3.4463502 4.9638101,3.3589869 4.7118935,3.3580381 z" opacity="1"/><rect id="rect2168" width="15.276" height="15.276" x="19.362" y=".362" fill="none" fill-opacity="1" fill-rule="nonzero" stroke="#646464" stroke-dasharray="none" stroke-linecap="round" stroke-linejoin="round" stroke-miterlimit="4" stroke-opacity="1" stroke-width=".724" opacity="1" rx="2.205" ry="2.205"/><rect id="rect2170" width=".597" height="2" x="29.403" y="10" fill="#fff" fill-opacity="1" fill-rule="nonzero" stroke="none" stroke-dasharray="none" stroke-linecap="round" stroke-linejoin="round" stroke-miterlimit="4" stroke-opacity="1" stroke-width=".444" opacity="1" rx=".299" ry=".299"/><path id="path2172" fill="url(#radialGradient2176)" fill-opacity="1" fill-rule="nonzero" stroke="#474747" stroke-dasharray="none" stroke-linecap="round" stroke-linejoin="round" stroke-miterlimit="4" stroke-opacity="1" stroke-width=".716" d="M 23.713145,3.3561534 C 23.461229,3.3552044 23.218231,3.4459194 23.024471,3.6359234 L 22.648831,4.0089514 C 22.261312,4.3889604 22.264225,4.9938014 22.648831,5.3767184 L 25.278314,7.9879114 L 22.648831,10.599103 C 22.264225,10.982021 22.261311,11.617947 22.648831,11.997957 L 23.024471,12.370984 C 23.411991,12.750994 24.017214,12.722816 24.40182,12.339899 L 27.031303,9.7287064 L 29.59818,12.308813 C 29.982786,12.69173 30.58801,12.688822 30.97553,12.308813 L 31.35117,11.935785 C 31.738689,11.555776 31.735775,10.950935 31.35117,10.568018 L 28.784292,7.9879114 L 31.35117,5.4388904 C 31.735776,5.0559724 31.73869,4.4511324 31.35117,4.0711224 L 30.97553,3.6980954 C 30.58801,3.3180854 29.982787,3.3151774 29.59818,3.6980954 L 27.031303,6.2471164 L 24.40182,3.6359234 C 24.209517,3.4444654 23.965062,3.3571024 23.713145,3.3561534 z" opacity="1"/></g></svg>