<svg xmlns="http://www.w3.org/2000/svg" xmlns:cc="http://web.resource.org/cc/" xmlns:svg="http://www.w3.org/2000/svg" xmlns:xlink="http://www.w3.org/1999/xlink" id="svg11504" width="32" height="32"><defs id="defs11506"><linearGradient id="linearGradient11475" x1="-567.311" x2="-567.127" y1="166.561" y2="211.99" gradientTransform="matrix(0.164338,0.000000,0.000000,1.122383,101.0244,-188.2022)" gradientUnits="userSpaceOnUse" xlink:href="#linearGradient15929"/><linearGradient id="linearGradient11502" x1="-581" x2="-578.164" y1="448.223" y2="448.223" gradientTransform="matrix(0.746361,0.000000,0.000000,0.481235,-25.02960,-797.2883)" gradientUnits="userSpaceOnUse" xlink:href="#linearGradient11116"/><linearGradient id="linearGradient11116"><stop id="stop11118" offset="0" stop-color="#143e7b" stop-opacity="1"/><stop id="stop11120" offset="1" stop-color="#93aacc" stop-opacity="1"/></linearGradient><linearGradient id="linearGradient11500" x1="-581" x2="-578.164" y1="448.223" y2="448.223" gradientTransform="matrix(0.722293,0.000000,0.000000,0.726318,-164.9691,128.1462)" gradientUnits="userSpaceOnUse" xlink:href="#linearGradient11116"/><linearGradient id="linearGradient7006"><stop id="stop2072" offset="0" stop-color="#ff8400" stop-opacity="1"/><stop id="stop7010" offset="1" stop-color="#ffc768" stop-opacity="1"/></linearGradient><linearGradient id="linearGradient11498" x1="-581" x2="-578.184" y1="444.561" y2="444.561" gradientTransform="matrix(0.726318,0.000000,0.000000,0.726318,-162.6302,128.1462)" gradientUnits="userSpaceOnUse" xlink:href="#linearGradient7006"/><linearGradient id="linearGradient22083"><stop id="stop22085" offset="0" stop-color="#143e7b" stop-opacity="1"/><stop id="stop26465" offset=".5" stop-color="#5374a3" stop-opacity="1"/><stop id="stop26463" offset="1" stop-color="#143e7b" stop-opacity="1"/></linearGradient><radialGradient id="radialGradient11496" cx="-586.821" cy="460.819" r="14.615" fx="-586.821" fy="460.82" gradientTransform="matrix(1.000000,-3.946812e-4,3.946793e-4,0.999995,-0.181914,-0.229547)" gradientUnits="userSpaceOnUse" xlink:href="#linearGradient22083"/><linearGradient id="linearGradient15929"><stop id="stop15931" offset="0" stop-color="#cbcbcb" stop-opacity="1"/><stop id="stop15933" offset=".5" stop-color="#fff" stop-opacity="1"/><stop id="stop15935" offset="1" stop-color="#cbcbcb" stop-opacity="1"/></linearGradient><radialGradient id="radialGradient11494" cx="-586.821" cy="460.819" r="14.615" fx="-586.821" fy="460.82" gradientTransform="matrix(1.000000,-3.957125e-4,3.957101e-4,0.999994,-0.182432,-0.229674)" gradientUnits="userSpaceOnUse" xlink:href="#linearGradient15929"/><linearGradient id="linearGradient11550" x1="-581" x2="-578.164" y1="448.223" y2="448.223" gradientTransform="matrix(0.640893,0.000000,0.000000,0.413232,351.3416,-171.5943)" gradientUnits="userSpaceOnUse" xlink:href="#linearGradient11116"/><linearGradient id="linearGradient11553" x1="-581" x2="-578.164" y1="448.223" y2="448.223" gradientTransform="matrix(0.620226,0.000000,0.000000,0.623682,371.3719,-262.7964)" gradientUnits="userSpaceOnUse" xlink:href="#linearGradient11116"/><linearGradient id="linearGradient11567" x1="-581" x2="-578.184" y1="444.561" y2="444.561" gradientTransform="matrix(0.623682,0.000000,0.000000,0.623682,373.3803,-262.7964)" gradientUnits="userSpaceOnUse" xlink:href="#linearGradient7006"/><linearGradient id="linearGradient12299" x1="-581" x2="-578.164" y1="448.223" y2="448.223" gradientTransform="matrix(0.620226,0.000000,0.000000,0.653175,371.3719,-275.8324)" gradientUnits="userSpaceOnUse" xlink:href="#linearGradient11116"/><linearGradient id="linearGradient13763" x1="-581" x2="-578.164" y1="448.223" y2="448.223" gradientTransform="matrix(0.640893,0.000000,0.000000,0.413232,351.3416,-171.5943)" gradientUnits="userSpaceOnUse" xlink:href="#linearGradient22083"/><radialGradient id="radialGradient1375" cx="-586.821" cy="460.819" r="14.615" fx="-586.821" fy="460.82" gradientTransform="matrix(1.000000,-3.957125e-4,3.957101e-4,0.999994,-0.182432,-0.229674)" gradientUnits="userSpaceOnUse" xlink:href="#linearGradient15929"/><radialGradient id="radialGradient1377" cx="-586.821" cy="460.819" r="14.615" fx="-586.821" fy="460.82" gradientTransform="matrix(1.000000,-3.946812e-4,3.946793e-4,0.999995,-0.181914,-0.229547)" gradientUnits="userSpaceOnUse" xlink:href="#linearGradient22083"/><linearGradient id="linearGradient1379" x1="-581" x2="-578.164" y1="448.223" y2="448.223" gradientTransform="matrix(0.640893,0.000000,0.000000,0.413232,351.3416,-171.5943)" gradientUnits="userSpaceOnUse" xlink:href="#linearGradient22083"/></defs><metadata id="metadata11509"/><g id="layer1"><rect id="rect11473" width="23.571" height="23.57" x=".215" y="8.215" fill="url(#linearGradient11475)" fill-opacity="1" fill-rule="nonzero" stroke="#c3c3c3" stroke-dasharray="none" stroke-linecap="round" stroke-linejoin="round" stroke-miterlimit="4" stroke-opacity="1" stroke-width=".429" opacity="1" ry="4.49"/><g id="g13765"><path id="path1928" fill="url(#radialGradient11494)" fill-opacity="1" fill-rule="nonzero" stroke="url(#radialGradient11496)" stroke-dasharray="none" stroke-linecap="round" stroke-linejoin="round" stroke-miterlimit="4" stroke-opacity="1" stroke-width="1.4" d="M -572.90642,460.81207 A 13.914812,13.914812 0 1 1 -572.90701,460.68352" opacity="1" transform="matrix(0.623682,0.000000,0.000000,0.623682,377.8748,-267.2852)"/><rect id="rect3403" width="1.305" height="2.744" x="-20.753" y="16.16" fill="#ff8400" fill-opacity="1" fill-rule="nonzero" stroke="#646464" stroke-dasharray="none" stroke-linecap="round" stroke-linejoin="round" stroke-miterlimit="4" stroke-opacity="1" stroke-width=".279" opacity="1" ry=".378" transform="matrix(0.000000,-1.000000,1.000000,0.000000,0.000000,0.000000)"/><rect id="rect3405" width="1.305" height="2.744" x="-20.753" y="5.01" fill="#ff8400" fill-opacity="1" fill-rule="nonzero" stroke="#646464" stroke-dasharray="none" stroke-linecap="round" stroke-linejoin="round" stroke-miterlimit="4" stroke-opacity="1" stroke-width=".279" opacity="1" ry=".378" transform="matrix(0.000000,-1.000000,1.000000,0.000000,0.000000,0.000000)"/><rect id="rect3407" width="1.305" height="2.744" x="11.362" y="24.322" fill="#ff8400" fill-opacity="1" fill-rule="nonzero" stroke="#646464" stroke-dasharray="none" stroke-linecap="round" stroke-linejoin="round" stroke-miterlimit="4" stroke-opacity="1" stroke-width=".279" opacity="1" ry=".378"/><rect id="rect3409" width=".861" height="1.81" x="20.484" y="2.2" fill="#ffc15e" fill-opacity="1" fill-rule="nonzero" stroke="#646464" stroke-dasharray="none" stroke-linecap="round" stroke-linejoin="round" stroke-miterlimit="4" stroke-opacity="1" stroke-width=".297" opacity="1" ry=".25" transform="matrix(0.795325,0.606183,-0.606183,0.795325,0.000000,0.000000)"/><rect id="rect3411" width=".861" height="1.81" x="22.512" y="-6.577" fill="#ffc15e" fill-opacity="1" fill-rule="nonzero" stroke="#646464" stroke-dasharray="none" stroke-linecap="round" stroke-linejoin="round" stroke-miterlimit="4" stroke-opacity="1" stroke-width=".297" opacity="1" ry=".25" transform="matrix(0.503064,0.864249,-0.864249,0.503064,0.000000,0.000000)"/><rect id="rect3417" width=".861" height="1.81" x="1.719" y="16.502" fill="#ffc15e" fill-opacity="1" fill-rule="nonzero" stroke="#646464" stroke-dasharray="none" stroke-linecap="round" stroke-linejoin="round" stroke-miterlimit="4" stroke-opacity="1" stroke-width=".297" opacity="1" ry=".25" transform="matrix(-0.795325,0.606183,0.606183,0.795325,0.000000,0.000000)"/><rect id="rect3419" width=".861" height="1.81" x="10.675" y="13.76" fill="#ffc15e" fill-opacity="1" fill-rule="nonzero" stroke="#646464" stroke-dasharray="none" stroke-linecap="round" stroke-linejoin="round" stroke-miterlimit="4" stroke-opacity="1" stroke-width=".297" opacity="1" ry=".25" transform="matrix(-0.503064,0.864249,0.864249,0.503064,0.000000,0.000000)"/><rect id="rect3421" width=".861" height="1.81" x="-23.848" y="-6.614" fill="#ffc15e" fill-opacity="1" fill-rule="nonzero" stroke="#646464" stroke-dasharray="none" stroke-linecap="round" stroke-linejoin="round" stroke-miterlimit="4" stroke-opacity="1" stroke-width=".297" opacity="1" ry=".25" transform="matrix(-0.503064,-0.864249,0.864249,-0.503064,0.000000,0.000000)"/><rect id="rect3423" width=".861" height="1.81" x="-22.574" y="-15.384" fill="#ffc15e" fill-opacity="1" fill-rule="nonzero" stroke="#646464" stroke-dasharray="none" stroke-linecap="round" stroke-linejoin="round" stroke-miterlimit="4" stroke-opacity="1" stroke-width=".297" opacity="1" ry=".25" transform="matrix(-0.795325,-0.606183,0.606183,-0.795325,0.000000,0.000000)"/><rect id="rect3425" width=".861" height="1.81" x="-3.562" y="-29.875" fill="#ffc15e" fill-opacity="1" fill-rule="nonzero" stroke="#646464" stroke-dasharray="none" stroke-linecap="round" stroke-linejoin="round" stroke-miterlimit="4" stroke-opacity="1" stroke-width=".297" opacity="1" ry=".25" transform="matrix(0.795325,-0.606183,-0.606183,-0.795325,0.000000,0.000000)"/><rect id="rect3427" width=".861" height="1.81" x="-11.94" y="-27.073" fill="#ffc15e" fill-opacity="1" fill-rule="nonzero" stroke="#646464" stroke-dasharray="none" stroke-linecap="round" stroke-linejoin="round" stroke-miterlimit="4" stroke-opacity="1" stroke-width=".297" opacity="1" ry=".25" transform="matrix(0.503064,-0.864249,-0.864249,-0.503064,0.000000,0.000000)"/><path id="rect8557" fill="url(#linearGradient13763)" fill-opacity="1" fill-rule="nonzero" stroke="#646464" stroke-dasharray="none" stroke-linecap="round" stroke-linejoin="round" stroke-miterlimit="4" stroke-opacity="1" stroke-width=".23" d="M 11.875000 13.031250 C 11.476955 13.031250 11.156250 13.351955 11.156250 13.750000 L 11.156250 20.093750 L 11.156250 20.125000 C 11.156250 20.523045 11.476955 20.843749 11.875000 20.843750 L 11.937500 20.843750 C 11.954766 20.844784 11.951200 20.875000 11.968750 20.875000 L 15.281250 20.875000 C 15.728955 20.875000 16.093750 20.517947 16.093750 20.093750 C 16.093750 19.669552 15.728955 19.343751 15.281250 19.343750 L 12.656250 19.343750 L 12.656250 13.750000 C 12.656250 13.351955 12.335545 13.031250 11.937500 13.031250 L 11.875000 13.031250 z" opacity="1"/></g><rect id="rect1343" width="23.571" height="23.57" x="26.445" y="8.215" fill="none" fill-opacity="1" fill-rule="nonzero" stroke="#c3c3c3" stroke-dasharray="none" stroke-linecap="round" stroke-linejoin="round" stroke-miterlimit="4" stroke-opacity="1" stroke-width=".429" opacity="1" ry="4.49"/><g id="g1345" transform="translate(26.23003,5.009959e-4)"><path id="path1347" fill="url(#radialGradient1375)" fill-opacity="1" fill-rule="nonzero" stroke="url(#radialGradient1377)" stroke-dasharray="none" stroke-linecap="round" stroke-linejoin="round" stroke-miterlimit="4" stroke-opacity="1" stroke-width="1.4" d="M -572.90642,460.81207 A 13.914812,13.914812 0 1 1 -572.90701,460.68352" opacity="1" transform="matrix(0.623682,0.000000,0.000000,0.623682,377.8748,-267.2852)"/><rect id="rect1349" width="1.305" height="2.744" x="-20.753" y="16.16" fill="#ff8400" fill-opacity="1" fill-rule="nonzero" stroke="#646464" stroke-dasharray="none" stroke-linecap="round" stroke-linejoin="round" stroke-miterlimit="4" stroke-opacity="1" stroke-width=".279" opacity="1" ry=".378" transform="matrix(0.000000,-1.000000,1.000000,0.000000,0.000000,0.000000)"/><rect id="rect1351" width="1.305" height="2.744" x="-20.753" y="5.01" fill="#ff8400" fill-opacity="1" fill-rule="nonzero" stroke="#646464" stroke-dasharray="none" stroke-linecap="round" stroke-linejoin="round" stroke-miterlimit="4" stroke-opacity="1" stroke-width=".279" opacity="1" ry=".378" transform="matrix(0.000000,-1.000000,1.000000,0.000000,0.000000,0.000000)"/><rect id="rect1353" width="1.305" height="2.744" x="11.362" y="24.322" fill="#ff8400" fill-opacity="1" fill-rule="nonzero" stroke="#646464" stroke-dasharray="none" stroke-linecap="round" stroke-linejoin="round" stroke-miterlimit="4" stroke-opacity="1" stroke-width=".279" opacity="1" ry=".378"/><rect id="rect1355" width=".861" height="1.81" x="20.484" y="2.2" fill="#ffc15e" fill-opacity="1" fill-rule="nonzero" stroke="#646464" stroke-dasharray="none" stroke-linecap="round" stroke-linejoin="round" stroke-miterlimit="4" stroke-opacity="1" stroke-width=".297" opacity="1" ry=".25" transform="matrix(0.795325,0.606183,-0.606183,0.795325,0.000000,0.000000)"/><rect id="rect1357" width=".861" height="1.81" x="22.512" y="-6.577" fill="#ffc15e" fill-opacity="1" fill-rule="nonzero" stroke="#646464" stroke-dasharray="none" stroke-linecap="round" stroke-linejoin="round" stroke-miterlimit="4" stroke-opacity="1" stroke-width=".297" opacity="1" ry=".25" transform="matrix(0.503064,0.864249,-0.864249,0.503064,0.000000,0.000000)"/><rect id="rect1359" width=".861" height="1.81" x="1.719" y="16.502" fill="#ffc15e" fill-opacity="1" fill-rule="nonzero" stroke="#646464" stroke-dasharray="none" stroke-linecap="round" stroke-linejoin="round" stroke-miterlimit="4" stroke-opacity="1" stroke-width=".297" opacity="1" ry=".25" transform="matrix(-0.795325,0.606183,0.606183,0.795325,0.000000,0.000000)"/><rect id="rect1361" width=".861" height="1.81" x="10.675" y="13.76" fill="#ffc15e" fill-opacity="1" fill-rule="nonzero" stroke="#646464" stroke-dasharray="none" stroke-linecap="round" stroke-linejoin="round" stroke-miterlimit="4" stroke-opacity="1" stroke-width=".297" opacity="1" ry=".25" transform="matrix(-0.503064,0.864249,0.864249,0.503064,0.000000,0.000000)"/><rect id="rect1363" width=".861" height="1.81" x="-23.848" y="-6.614" fill="#ffc15e" fill-opacity="1" fill-rule="nonzero" stroke="#646464" stroke-dasharray="none" stroke-linecap="round" stroke-linejoin="round" stroke-miterlimit="4" stroke-opacity="1" stroke-width=".297" opacity="1" ry=".25" transform="matrix(-0.503064,-0.864249,0.864249,-0.503064,0.000000,0.000000)"/><rect id="rect1365" width=".861" height="1.81" x="-22.574" y="-15.384" fill="#ffc15e" fill-opacity="1" fill-rule="nonzero" stroke="#646464" stroke-dasharray="none" stroke-linecap="round" stroke-linejoin="round" stroke-miterlimit="4" stroke-opacity="1" stroke-width=".297" opacity="1" ry=".25" transform="matrix(-0.795325,-0.606183,0.606183,-0.795325,0.000000,0.000000)"/><rect id="rect1367" width=".861" height="1.81" x="-3.562" y="-29.875" fill="#ffc15e" fill-opacity="1" fill-rule="nonzero" stroke="#646464" stroke-dasharray="none" stroke-linecap="round" stroke-linejoin="round" stroke-miterlimit="4" stroke-opacity="1" stroke-width=".297" opacity="1" ry=".25" transform="matrix(0.795325,-0.606183,-0.606183,-0.795325,0.000000,0.000000)"/><rect id="rect1369" width=".861" height="1.81" x="-11.94" y="-27.073" fill="#ffc15e" fill-opacity="1" fill-rule="nonzero" stroke="#646464" stroke-dasharray="none" stroke-linecap="round" stroke-linejoin="round" stroke-miterlimit="4" stroke-opacity="1" stroke-width=".297" opacity="1" ry=".25" transform="matrix(0.503064,-0.864249,-0.864249,-0.503064,0.000000,0.000000)"/><path id="path1371" fill="url(#linearGradient1379)" fill-opacity="1" fill-rule="nonzero" stroke="#646464" stroke-dasharray="none" stroke-linecap="round" stroke-linejoin="round" stroke-miterlimit="4" stroke-opacity="1" stroke-width=".23" d="M 11.875000,13.031250 C 11.476955,13.031250 11.156250,13.351955 11.156250,13.750000 L 11.156250,20.093750 L 11.156250,20.125000 C 11.156250,20.523045 11.476955,20.843749 11.875000,20.843750 L 11.937500,20.843750 C 11.954766,20.844784 11.951200,20.875000 11.968750,20.875000 L 15.281250,20.875000 C 15.728955,20.875000 16.093750,20.517947 16.093750,20.093750 C 16.093750,19.669552 15.728955,19.343751 15.281250,19.343750 L 12.656250,19.343750 L 12.656250,13.750000 C 12.656250,13.351955 12.335545,13.031250 11.937500,13.031250 L 11.875000,13.031250 z" opacity="1"/></g></g></svg>