<svg xmlns="http://www.w3.org/2000/svg" xmlns:cc="http://web.resource.org/cc/" xmlns:svg="http://www.w3.org/2000/svg" xmlns:xlink="http://www.w3.org/1999/xlink" id="svg15259" width="32" height="32"><defs id="defs15261"><linearGradient id="linearGradient15929"><stop id="stop15931" offset="0" stop-color="#cbcbcb" stop-opacity="1"/><stop id="stop15933" offset=".5" stop-color="#fff" stop-opacity="1"/><stop id="stop15935" offset="1" stop-color="#cbcbcb" stop-opacity="1"/></linearGradient><linearGradient id="linearGradient15257" x1="-567.311" x2="-567.127" y1="166.561" y2="211.99" gradientTransform="matrix(0.164338,0.000000,0.000000,1.122383,101.0244,-188.2018)" gradientUnits="userSpaceOnUse" xlink:href="#linearGradient15929"/><linearGradient id="linearGradient3866"><stop id="stop3868" offset="0" stop-color="#cfcfcf" stop-opacity="1"/><stop id="stop3870" offset="1" stop-color="#fff" stop-opacity="1"/></linearGradient><linearGradient id="linearGradient15253" x1="-193.611" x2="-193.804" y1="179.27" y2="212.668" gradientTransform="matrix(0.342947,0.000000,0.000000,0.342947,74.92839,-50.46358)" gradientUnits="userSpaceOnUse" xlink:href="#linearGradient7006"/><linearGradient id="linearGradient11116"><stop id="stop11118" offset="0" stop-color="#143e7b" stop-opacity="1"/><stop id="stop11120" offset="1" stop-color="#93aacc" stop-opacity="1"/></linearGradient><linearGradient id="linearGradient14519" x1="-188.391" x2="-188.391" y1="178.599" y2="191.261" gradientTransform="matrix(0.342947,0.000000,0.000000,0.342947,75.23290,-50.88789)" gradientUnits="userSpaceOnUse" xlink:href="#linearGradient2378"/><linearGradient id="linearGradient12993" x1="-357.552" x2="-360.552" y1="179.776" y2="182.49" gradientUnits="userSpaceOnUse" xlink:href="#linearGradient20674"/><linearGradient id="linearGradient20674"><stop id="stop20676" offset="0" stop-color="#93aacc" stop-opacity="1"/><stop id="stop20678" offset="1" stop-color="#f8f8f8" stop-opacity="1"/></linearGradient><linearGradient id="linearGradient12991" x1="-410.665" x2="-352.577" y1="191.469" y2="191.469" gradientUnits="userSpaceOnUse" xlink:href="#linearGradient20674"/><linearGradient id="linearGradient2399"><stop id="stop2401" offset="0" stop-color="#cfcfcf" stop-opacity="1"/><stop id="stop2403" offset="1" stop-color="#fff" stop-opacity="1"/></linearGradient><linearGradient id="linearGradient13621" x1="-600.484" x2="-600.173" y1="265.097" y2="252.723" gradientTransform="matrix(0.363638,0.000000,0.000000,0.363638,226.7715,-72.00011)" gradientUnits="userSpaceOnUse" xlink:href="#linearGradient3866"/><linearGradient id="linearGradient6290"><stop id="stop6292" offset="0" stop-color="#000" stop-opacity="1"/><stop id="stop6294" offset="1" stop-color="#000" stop-opacity="0"/></linearGradient><linearGradient id="linearGradient6296" x1="-600" x2="-600" y1="270.379" y2="275.894" gradientTransform="matrix(0.363638,0.000000,0.000000,0.363638,226.7715,-72.00011)" gradientUnits="userSpaceOnUse" xlink:href="#linearGradient6290"/><linearGradient id="linearGradient5562" x1="-633.131" x2="-588.64" y1="281.5" y2="281.5" gradientTransform="matrix(0.309208,0.000000,0.000000,0.309208,194.1512,-57.46910)" gradientUnits="userSpaceOnUse" xlink:href="#linearGradient20674"/><linearGradient id="linearGradient15050"><stop id="stop15052" offset="0" stop-color="#fff" stop-opacity="1"/><stop id="stop15054" offset="1" stop-color="#fff" stop-opacity="0"/></linearGradient><linearGradient id="linearGradient9983" x1="-599.972" x2="-599.806" y1="266.352" y2="258.916" gradientTransform="matrix(0.371077,0.000000,0.000000,0.382753,231.1570,-76.27471)" gradientUnits="userSpaceOnUse" xlink:href="#linearGradient15050"/><linearGradient id="linearGradient7006"><stop id="stop2072" offset="0" stop-color="#ff8400" stop-opacity="1"/><stop id="stop7010" offset="1" stop-color="#ffc768" stop-opacity="1"/></linearGradient><linearGradient id="linearGradient7032" x1="-600" x2="-600" y1="270.031" y2="260.158" gradientTransform="matrix(0.363638,0.000000,0.000000,0.363638,226.7715,-72.00011)" gradientUnits="userSpaceOnUse" xlink:href="#linearGradient7006"/><linearGradient id="linearGradient8515" x1="-357.552" x2="-360.552" y1="179.776" y2="182.49" gradientTransform="matrix(0.766761,0.000000,0.000000,0.766761,-300.6579,89.60117)" gradientUnits="userSpaceOnUse" xlink:href="#linearGradient20674"/><linearGradient id="linearGradient2378"><stop id="stop2380" offset="0" stop-color="#93aacc" stop-opacity="1"/><stop id="stop2382" offset="1" stop-color="#f8f8f8" stop-opacity="1"/></linearGradient><linearGradient id="linearGradient8513" x1="-384.681" x2="-364.987" y1="169.994" y2="186.386" gradientTransform="matrix(0.766761,0.000000,0.000000,0.766761,-300.6579,89.60117)" gradientUnits="userSpaceOnUse" xlink:href="#linearGradient20674"/><linearGradient id="linearGradient7820" x1="-34.629" x2="-9.096" y1="254.022" y2="254.022" gradientTransform="matrix(0.814604,0.000000,0.000000,0.814604,-6.392184,45.16642)" gradientUnits="userSpaceOnUse" xlink:href="#linearGradient11116"/><linearGradient id="linearGradient4548"><stop id="stop4550" offset="0" stop-color="#143e7b" stop-opacity="1"/><stop id="stop4552" offset="1" stop-color="#93aacc" stop-opacity="1"/></linearGradient><linearGradient id="linearGradient7822" x1="-31.224" x2="-27.273" y1="242.485" y2="258.669" gradientTransform="matrix(0.630906,0.000000,0.000000,0.644661,-11.33490,88.76356)" gradientUnits="userSpaceOnUse" xlink:href="#linearGradient15050"/><linearGradient id="linearGradient6344" x1="-567.311" x2="-567.127" y1="166.561" y2="211.99" gradientTransform="matrix(0.164338,0.000000,0.000000,1.122383,101.0243,-188.2016)" gradientUnits="userSpaceOnUse" xlink:href="#linearGradient15929"/><linearGradient id="linearGradient4556"><stop id="stop4558" offset="0" stop-color="#cbcbcb" stop-opacity="1"/><stop id="stop4560" offset=".5" stop-color="#fff" stop-opacity="1"/><stop id="stop4562" offset="1" stop-color="#cbcbcb" stop-opacity="1"/></linearGradient><linearGradient id="linearGradient3932" x1="-567.311" x2="-567.127" y1="166.561" y2="211.99" gradientTransform="matrix(0.164338,0.000000,0.000000,1.122383,101.0243,-188.2016)" gradientUnits="userSpaceOnUse" xlink:href="#linearGradient15929"/><linearGradient id="linearGradient3944" x1="-600.484" x2="-600.173" y1="265.097" y2="252.723" gradientTransform="matrix(0.363638,0.000000,0.000000,0.363638,226.7715,-72.00011)" gradientUnits="userSpaceOnUse" xlink:href="#linearGradient3866"/><linearGradient id="linearGradient3946" x1="-600" x2="-600" y1="270.379" y2="275.894" gradientTransform="matrix(0.363638,0.000000,0.000000,0.363638,226.7715,-72.00011)" gradientUnits="userSpaceOnUse" xlink:href="#linearGradient6290"/><linearGradient id="linearGradient3948" x1="-633.131" x2="-588.64" y1="281.5" y2="281.5" gradientTransform="matrix(0.309208,0.000000,0.000000,0.309208,194.1512,-57.46910)" gradientUnits="userSpaceOnUse" xlink:href="#linearGradient20674"/><linearGradient id="linearGradient3950" x1="-599.972" x2="-599.806" y1="266.352" y2="258.916" gradientTransform="matrix(0.371077,0.000000,0.000000,0.382753,231.1570,-76.27471)" gradientUnits="userSpaceOnUse" xlink:href="#linearGradient15050"/><linearGradient id="linearGradient3952" x1="-600" x2="-600" y1="270.031" y2="260.158" gradientTransform="matrix(0.363638,0.000000,0.000000,0.363638,226.7715,-72.00011)" gradientUnits="userSpaceOnUse" xlink:href="#linearGradient7006"/><linearGradient id="linearGradient3954" x1="-384.681" x2="-364.987" y1="169.994" y2="186.386" gradientTransform="matrix(0.766761,0.000000,0.000000,0.766761,-300.6579,89.60117)" gradientUnits="userSpaceOnUse" xlink:href="#linearGradient20674"/><linearGradient id="linearGradient3956" x1="-357.552" x2="-360.552" y1="179.776" y2="182.49" gradientTransform="matrix(0.766761,0.000000,0.000000,0.766761,-300.6579,89.60117)" gradientUnits="userSpaceOnUse" xlink:href="#linearGradient20674"/><linearGradient id="linearGradient2058" x1="11.722" x2="17.642" y1="16.293" y2="16.293" gradientUnits="userSpaceOnUse" xlink:href="#linearGradient2052"/><linearGradient id="linearGradient1323" x1="-381.878" x2="-340.157" y1="124.561" y2="124.561" gradientTransform="matrix(0.240037,0.000000,0.000000,0.240037,98.00857,-6.244550)" gradientUnits="userSpaceOnUse" xlink:href="#linearGradient7006"/><linearGradient id="linearGradient2351"><stop id="stop2353" offset="0" stop-color="#143e7b" stop-opacity="1"/><stop id="stop2355" offset="1" stop-color="#93aacc" stop-opacity="1"/></linearGradient><linearGradient id="linearGradient4784" x1="-567.311" x2="-567.127" y1="166.561" y2="211.99" gradientTransform="matrix(0.164338,0.000000,0.000000,1.122383,101.0244,-188.2016)" gradientUnits="userSpaceOnUse" xlink:href="#linearGradient15929"/><linearGradient id="linearGradient2342"><stop id="stop2344" offset="0" stop-color="#cbcbcb" stop-opacity="1"/><stop id="stop2346" offset=".5" stop-color="#fff" stop-opacity="1"/><stop id="stop2348" offset="1" stop-color="#cbcbcb" stop-opacity="1"/></linearGradient><linearGradient id="linearGradient2052"><stop id="stop2054" offset="0" stop-color="#cfcfcf" stop-opacity="1"/><stop id="stop2056" offset="1" stop-color="#cfcfcf" stop-opacity="0"/></linearGradient><linearGradient id="linearGradient1394" x1="-193.611" x2="-193.804" y1="179.27" y2="212.668" gradientTransform="matrix(0.342947,0.000000,0.000000,0.342947,101.1601,-50.15908)" gradientUnits="userSpaceOnUse" xlink:href="#linearGradient7006"/><linearGradient id="linearGradient1396" x1="-188.391" x2="-188.391" y1="178.599" y2="191.261" gradientTransform="matrix(0.342947,0.000000,0.000000,0.342947,101.4646,-50.58339)" gradientUnits="userSpaceOnUse" xlink:href="#linearGradient2378"/><linearGradient id="linearGradient1398" x1="-410.665" x2="-352.577" y1="191.469" y2="191.469" gradientUnits="userSpaceOnUse" xlink:href="#linearGradient20674"/><linearGradient id="linearGradient1400" x1="-357.552" x2="-360.552" y1="179.776" y2="182.49" gradientUnits="userSpaceOnUse" xlink:href="#linearGradient20674"/></defs><metadata id="metadata15264"/><g id="layer1"><rect id="rect15255" width="23.571" height="23.57" x=".215" y="8.215" fill="url(#linearGradient15257)" fill-opacity="1" fill-rule="nonzero" stroke="#c3c3c3" stroke-dasharray="none" stroke-linecap="round" stroke-linejoin="round" stroke-miterlimit="4" stroke-opacity="1" stroke-width=".429" opacity="1" ry="4.49"/><rect id="rect13005" width="9.448" height="12.408" x="5.836" y="13.824" fill="url(#linearGradient15253)" fill-opacity="1" fill-rule="nonzero" stroke="#646464" stroke-dasharray="none" stroke-linecap="round" stroke-linejoin="round" stroke-miterlimit="4" stroke-opacity="1" stroke-width=".256" opacity="1" ry="1.022"/><path id="rect13007" fill="url(#linearGradient14519)" fill-opacity="1" fill-rule="nonzero" stroke="#646464" stroke-dasharray="none" stroke-linecap="round" stroke-linejoin="round" stroke-miterlimit="4" stroke-opacity="1" stroke-width=".223" d="M 9.8264295,12.064302 C 9.3892760,12.064302 9.0333621,12.409495 9.0333621,12.846641 C 9.0333621,12.858857 9.0435402,12.866734 9.0440832,12.878798 L 8.6904177,12.878798 C 8.4032552,12.878798 8.1652800,13.106052 8.1652800,13.393221 L 8.1652800,14.325604 C 8.1652800,14.612773 8.4032552,14.850741 8.6904177,14.850741 L 12.569998,14.850741 C 12.857167,14.850741 13.084422,14.612773 13.084422,14.325604 L 13.084422,13.393221 C 13.084422,13.106052 12.857167,12.878798 12.569998,12.878798 L 12.216339,12.878798 C 12.216875,12.866734 12.227054,12.858857 12.227054,12.846641 C 12.227054,12.409495 11.871139,12.064302 11.433993,12.064302 L 9.8264295,12.064302 z" opacity="1"/><g id="g12985" transform="matrix(0.342947,0.000000,0.000000,0.342947,139.2045,-43.43804)"><path id="path12987" fill="url(#linearGradient12991)" fill-opacity="1" fill-rule="nonzero" stroke="#646464" stroke-dasharray="none" stroke-linecap="round" stroke-linejoin="round" stroke-miterlimit="4" stroke-opacity="1" stroke-width=".68" d="M -376.63483,174.85435 C -376.88586,174.85435 -377.08323,175.05171 -377.08323,175.30275 L -377.08323,207.63483 C -377.08323,207.88586 -376.88587,208.08323 -376.63483,208.08323 L -353.36517,208.08323 C -353.11414,208.08323 -352.91677,207.88587 -352.91677,207.63483 L -352.91677,181.88716 L -359.94959,174.85435 L -376.63483,174.85435 z" opacity="1"/><path id="path12989" fill="url(#linearGradient12993)" fill-opacity="1" fill-rule="nonzero" stroke="#646464" stroke-dasharray="none" stroke-linecap="round" stroke-linejoin="round" stroke-miterlimit="4" stroke-opacity="1" stroke-width=".68" d="M -360.02322,174.85718 C -360.08344,174.93409 -360.21202,174.94028 -360.21202,175.04598 L -360.21202,181.70119 C -360.21202,181.95222 -360.01466,182.14960 -359.76362,182.14960 L -353.10840,182.14960 C -353.00270,182.14960 -352.99651,182.02102 -352.91960,181.96080 L -352.91960,181.89000 L -359.95242,174.85718 L -360.02322,174.85718 z" opacity="1"/></g><rect id="rect1380" width="23.571" height="23.57" x="26.446" y="8.52" fill="none" fill-opacity="1" fill-rule="nonzero" stroke="#c3c3c3" stroke-dasharray="none" stroke-linecap="round" stroke-linejoin="round" stroke-miterlimit="4" stroke-opacity="1" stroke-width=".429" opacity="1" ry="4.49"/><rect id="rect1382" width="9.448" height="12.408" x="32.067" y="14.128" fill="url(#linearGradient1394)" fill-opacity="1" fill-rule="nonzero" stroke="#646464" stroke-dasharray="none" stroke-linecap="round" stroke-linejoin="round" stroke-miterlimit="4" stroke-opacity="1" stroke-width=".256" opacity="1" ry="1.022"/><path id="path1384" fill="url(#linearGradient1396)" fill-opacity="1" fill-rule="nonzero" stroke="#646464" stroke-dasharray="none" stroke-linecap="round" stroke-linejoin="round" stroke-miterlimit="4" stroke-opacity="1" stroke-width=".223" d="M 36.058107,12.368802 C 35.620954,12.368802 35.265040,12.713995 35.265040,13.151141 C 35.265040,13.163357 35.275218,13.171234 35.275761,13.183298 L 34.922096,13.183298 C 34.634933,13.183298 34.396958,13.410552 34.396958,13.697721 L 34.396958,14.630104 C 34.396958,14.917273 34.634933,15.155241 34.922096,15.155241 L 38.801676,15.155241 C 39.088845,15.155241 39.316100,14.917273 39.316100,14.630104 L 39.316100,13.697721 C 39.316100,13.410552 39.088845,13.183298 38.801676,13.183298 L 38.448017,13.183298 C 38.448553,13.171234 38.458732,13.163357 38.458732,13.151141 C 38.458732,12.713995 38.102817,12.368802 37.665671,12.368802 L 36.058107,12.368802 z" opacity="1"/><g id="g1386" transform="matrix(0.342947,0.000000,0.000000,0.342947,165.4362,-43.13354)"><path id="path1388" fill="url(#linearGradient1398)" fill-opacity="1" fill-rule="nonzero" stroke="#646464" stroke-dasharray="none" stroke-linecap="round" stroke-linejoin="round" stroke-miterlimit="4" stroke-opacity="1" stroke-width=".68" d="M -376.63483,174.85435 C -376.88586,174.85435 -377.08323,175.05171 -377.08323,175.30275 L -377.08323,207.63483 C -377.08323,207.88586 -376.88587,208.08323 -376.63483,208.08323 L -353.36517,208.08323 C -353.11414,208.08323 -352.91677,207.88587 -352.91677,207.63483 L -352.91677,181.88716 L -359.94959,174.85435 L -376.63483,174.85435 z" opacity="1"/><path id="path1390" fill="url(#linearGradient1400)" fill-opacity="1" fill-rule="nonzero" stroke="#646464" stroke-dasharray="none" stroke-linecap="round" stroke-linejoin="round" stroke-miterlimit="4" stroke-opacity="1" stroke-width=".68" d="M -360.02322,174.85718 C -360.08344,174.93409 -360.21202,174.94028 -360.21202,175.04598 L -360.21202,181.70119 C -360.21202,181.95222 -360.01466,182.14960 -359.76362,182.14960 L -353.10840,182.14960 C -353.00270,182.14960 -352.99651,182.02102 -352.91960,181.96080 L -352.91960,181.89000 L -359.95242,174.85718 L -360.02322,174.85718 z" opacity="1"/></g></g></svg>