<svg xmlns="http://www.w3.org/2000/svg" xmlns:cc="http://web.resource.org/cc/" xmlns:svg="http://www.w3.org/2000/svg" xmlns:xlink="http://www.w3.org/1999/xlink" id="svg8229" width="64" height="64"><defs id="defs8231"><linearGradient id="linearGradient8226" x1="33.026" x2="33.205" y1="51.316" y2="31.565" gradientTransform="matrix(1.358340,0.000000,0.000000,1.358340,-10.80475,-17.23702)" gradientUnits="userSpaceOnUse" xlink:href="#linearGradient6479"/><linearGradient id="linearGradient8224" x1="31.316" x2="31.316" y1="17.585" y2="26.235" gradientTransform="matrix(1.358340,0.000000,0.000000,1.358340,-10.80475,-15.87868)" gradientUnits="userSpaceOnUse" xlink:href="#linearGradient6479"/><linearGradient id="linearGradient8221" x1="31.29" x2="31.29" y1="47.526" y2="31.339" gradientTransform="matrix(1.358340,0.000000,0.000000,1.358340,-10.80475,-17.23702)" gradientUnits="userSpaceOnUse" xlink:href="#linearGradient6479"/><linearGradient id="linearGradient8219" x1="31.449" x2="31.449" y1="41.978" y2="24.899" gradientTransform="matrix(1.397019,0.000000,0.000000,1.287363,-12.23772,-6.721657)" gradientUnits="userSpaceOnUse" xlink:href="#linearGradient6479"/><linearGradient id="linearGradient15929"><stop id="stop15931" offset="0" stop-color="#cbcbcb" stop-opacity="1"/><stop id="stop15933" offset=".5" stop-color="#fff" stop-opacity="1"/><stop id="stop15935" offset="1" stop-color="#cbcbcb" stop-opacity="1"/></linearGradient><radialGradient id="radialGradient8216" cx="33.39" cy="37.9" r="12.315" fx="33.39" fy="37.9" gradientTransform="matrix(-2.490140e-2,-1.140089,1.708421,-3.731158e-2,-25.61383,69.65630)" gradientUnits="userSpaceOnUse" xlink:href="#linearGradient15929"/><linearGradient id="linearGradient8213" x1="17.293" x2="17.293" y1="21.471" y2="28.477" gradientTransform="matrix(1.358340,0.000000,0.000000,1.404286,-10.26569,-17.50499)" gradientUnits="userSpaceOnUse" xlink:href="#linearGradient10841"/><linearGradient id="linearGradient8210" x1="17.293" x2="17.293" y1="35.513" y2="23.828" gradientTransform="matrix(1.358340,0.000000,0.000000,1.404286,-10.26569,-17.50499)" gradientUnits="userSpaceOnUse" xlink:href="#linearGradient10841"/><linearGradient id="linearGradient6479"><stop id="stop6481" offset="0" stop-color="#a91616" stop-opacity="1"/><stop id="stop6483" offset="1" stop-color="#e4948f" stop-opacity="1"/></linearGradient><linearGradient id="linearGradient8207" x1="17.243" x2="17.269" y1="47.842" y2="41.283" gradientTransform="matrix(-1.358329,5.215763e-3,-5.392174e-3,-1.404275,73.99985,79.73993)" gradientUnits="userSpaceOnUse" xlink:href="#linearGradient6479"/><linearGradient id="linearGradient10841"><stop id="stop10843" offset="0" stop-color="#a91616" stop-opacity="1"/><stop id="stop10845" offset="1" stop-color="#e4948f" stop-opacity="0"/></linearGradient><linearGradient id="linearGradient8204" x1="17.298" x2="17.252" y1="33.821" y2="45.417" gradientTransform="matrix(-1.358329,5.215763e-3,-5.392174e-3,-1.404275,73.99975,79.73993)" gradientUnits="userSpaceOnUse" xlink:href="#linearGradient10841"/></defs><metadata id="metadata8234"/><g id="layer1"><rect id="rect20295" width="43.444" height="43.443" x="10.897" y="9.898" fill="none" fill-opacity="1" fill-rule="nonzero" stroke="#646464" stroke-dasharray="none" stroke-linecap="round" stroke-linejoin="round" stroke-miterlimit="4" stroke-opacity="1" stroke-width="2.056" opacity="1" ry="4.985"/><rect id="rect5721" width="42.608" height="42.609" x="10.429" y="9.429" fill="url(#linearGradient8224)" fill-opacity="1" fill-rule="nonzero" stroke="url(#linearGradient8226)" stroke-dasharray="none" stroke-linecap="round" stroke-linejoin="round" stroke-miterlimit="4" stroke-opacity="1" stroke-width=".858" opacity="1" ry="4.116"/><rect id="rect5723" width="42.68" height="31.242" x="10.357" y="20.796" fill="url(#linearGradient8219)" fill-opacity="1" fill-rule="nonzero" stroke="url(#linearGradient8221)" stroke-dasharray="none" stroke-linecap="round" stroke-linejoin="round" stroke-miterlimit="4" stroke-opacity="1" stroke-width=".858" opacity="1" ry="4.035"/><path id="path5725" fill="url(#radialGradient8216)" fill-opacity="1" fill-rule="evenodd" stroke="#404e67" stroke-dasharray="none" stroke-linejoin="bevel" stroke-miterlimit="4" stroke-opacity=".665" stroke-width=".825" d="M 21.496072,27.410865 C 23.885463,24.395797 30.711799,21.864356 30.998876,24.881791 C 31.277783,27.813357 28.400857,28.258529 30.428770,31.465350 C 32.308562,34.437937 45.690132,33.900533 47.568372,31.483282 C 49.138092,29.463079 45.337682,24.573894 44.154832,23.551126 C 41.378702,21.150696 39.682632,20.556935 38.507012,20.139827 C 37.672652,19.843789 29.710493,16.954520 21.845114,20.909237 C 17.422046,23.133156 15.231264,27.105275 15.205657,29.736320 C 15.042490,46.501027 46.277442,41.185881 48.518262,40.076488 C 19.155167,40.044302 18.409720,31.305370 21.496072,27.410865 z" class="fil0 str3" opacity="1"/><path id="path5727" fill="url(#linearGradient8213)" fill-opacity="1" fill-rule="evenodd" stroke="none" stroke-linecap="round" stroke-linejoin="round" stroke-opacity="1" stroke-width="1" d="M 11.141890,12.995730 C 11.141890,12.995730 15.967228,31.421103 10.928688,49.670909 C 10.928688,49.670909 11.191695,12.956525 10.990645,12.646460"/><path id="path5729" fill="url(#linearGradient8210)" fill-opacity="1" fill-rule="evenodd" stroke="none" stroke-linecap="round" stroke-linejoin="round" stroke-opacity="1" stroke-width="1" d="M 11.141890,12.995730 C 11.141890,12.995730 15.967228,31.421103 10.928688,49.670909 C 10.928688,49.670909 11.191695,12.956525 10.990645,12.646460"/><path id="path5731" fill="url(#linearGradient8207)" fill-opacity="1" fill-rule="evenodd" stroke="none" stroke-linecap="round" stroke-linejoin="round" stroke-opacity="1" stroke-width="1" d="M 52.475282,49.321639 C 52.475282,49.321639 47.579232,30.914930 52.547662,12.645912 C 52.547662,12.645912 52.598922,49.011096 52.801162,49.320388"/><path id="path5733" fill="url(#linearGradient8204)" fill-opacity="1" fill-rule="evenodd" stroke="none" stroke-linecap="round" stroke-linejoin="round" stroke-opacity="1" stroke-width="1" d="M 52.475282,49.321639 C 52.475282,49.321639 47.579232,30.914930 52.547662,12.645912 C 52.547662,12.645912 52.598922,49.011096 52.801162,49.320388"/></g></svg>