<svg xmlns="http://www.w3.org/2000/svg" xmlns:cc="http://web.resource.org/cc/" xmlns:svg="http://www.w3.org/2000/svg" xmlns:xlink="http://www.w3.org/1999/xlink" id="svg8822" width="32" height="32"><defs id="defs8824"><linearGradient id="linearGradient8802" x1="122.939" x2="141.747" y1="159.993" y2="165.408" gradientUnits="userSpaceOnUse" xlink:href="#linearGradient14399"/><linearGradient id="linearGradient14399"><stop id="stop14401" offset="0" stop-color="#143e7b" stop-opacity="1"/><stop id="stop14403" offset="1" stop-color="#93aacc" stop-opacity=".655"/></linearGradient><linearGradient id="linearGradient8819" x1="134.808" x2="129.509" y1="158.195" y2="163.864" gradientTransform="matrix(0.672548,0.000000,0.000000,0.672548,-73.41543,-97.89142)" gradientUnits="userSpaceOnUse" xlink:href="#linearGradient14399"/><linearGradient id="linearGradient7006"><stop id="stop2072" offset="0" stop-color="#ff8400" stop-opacity="1"/><stop id="stop7010" offset="1" stop-color="#ffc768" stop-opacity="1"/></linearGradient><linearGradient id="linearGradient8815" x1="256.83" x2="265.527" y1="160.947" y2="149.295" gradientTransform="matrix(0.209757,0.000000,0.000000,0.209757,-31.51163,-10.76449)" gradientUnits="userSpaceOnUse" xlink:href="#linearGradient7006"/><linearGradient id="linearGradient16620"><stop id="stop16622" offset="0" stop-color="#93aacc" stop-opacity="1"/><stop id="stop16624" offset="1" stop-color="#fbfbfb" stop-opacity=".655"/></linearGradient><linearGradient id="linearGradient8812" x1="122.985" x2="134.438" y1="164.075" y2="164.075" gradientTransform="matrix(0.696172,0.000000,0.000000,0.681593,-76.43008,-99.37530)" gradientUnits="userSpaceOnUse" xlink:href="#linearGradient16620"/></defs><metadata id="metadata8827"/><g id="layer1"><path id="path13671" fill="url(#linearGradient8802)" fill-opacity="1" fill-rule="nonzero" stroke="#6c6c6c" stroke-dasharray="none" stroke-linecap="round" stroke-linejoin="round" stroke-miterlimit="4" stroke-opacity="1" stroke-width=".628" d="M 137.56316 162.60095 A 7.7603221 8.2624741 0 1 1 122.04252,162.60095 A 7.7603221 8.2624741 0 1 1 137.56316 162.60095 z" opacity="1" transform="matrix(0.215713,-0.534828,0.526570,0.268413,-101.1744,38.88878)"/><path id="path18814" fill="url(#linearGradient8819)" fill-opacity="1" fill-rule="evenodd" stroke="none" stroke-dasharray="none" stroke-linecap="round" stroke-linejoin="round" stroke-miterlimit="4" stroke-opacity="1" stroke-width=".3" d="M 10.299816,8.5642334 C 14.686635,7.7547516 17.611194,11.070992 17.088954,15.562269 C 22.572482,9.9220646 12.963249,3.7857230 10.299816,8.5642334 z"/><rect id="rect13669" width="1.782" height="3.478" x=".702" y="22.779" fill="#fff" fill-opacity="1" fill-rule="nonzero" stroke="#6c6c6c" stroke-dasharray="none" stroke-linecap="round" stroke-linejoin="round" stroke-miterlimit="4" stroke-opacity="1" stroke-width=".404" opacity="1" ry="1.018" transform="matrix(0.726798,-0.686851,0.686851,0.726798,0.000000,0.000000)"/><path id="path6278" fill="url(#linearGradient8815)" fill-opacity="1" fill-rule="evenodd" stroke="#6c6c6c" stroke-linecap="butt" stroke-linejoin="miter" stroke-opacity="1" stroke-width=".21" d="M 17.716729,18.368739 C 17.716729,18.368739 19.532244,18.298915 19.602077,16.483408 C 20.090872,16.832538 25.921455,22.802778 25.886547,22.698046 C 26.061112,25.037264 23.512404,24.583385 23.512404,24.583385 L 17.716729,18.368739 z"/><path id="path17352" fill="url(#linearGradient8812)" fill-opacity="1" fill-rule="evenodd" stroke="none" stroke-dasharray="none" stroke-linecap="round" stroke-linejoin="round" stroke-miterlimit="4" stroke-opacity="1" stroke-width=".4" d="M 9.9555448,8.7235940 C 7.7932080,12.984165 11.509735,17.959244 16.658810,15.921577 C 17.969732,12.666606 15.739812,7.4268894 9.9555448,8.7235940 z"/><path id="path12205" fill="none" fill-opacity="1" fill-rule="nonzero" stroke="#6c6c6c" stroke-dasharray="none" stroke-linecap="round" stroke-linejoin="round" stroke-miterlimit="4" stroke-opacity="1" stroke-width=".628" d="M 137.87610 162.60095 A 8.0732574 8.2624741 0 1 1 121.72958,162.60095 A 8.0732574 8.2624741 0 1 1 137.87610 162.60095 z" opacity="1" transform="matrix(0.215713,-0.534828,0.526570,0.268413,-99.66639,37.53921)"/></g></svg>