<svg xmlns="http://www.w3.org/2000/svg" xmlns:cc="http://web.resource.org/cc/" xmlns:svg="http://www.w3.org/2000/svg" xmlns:xlink="http://www.w3.org/1999/xlink" id="svg1921" width="32" height="32"><defs id="defs1923"><linearGradient id="linearGradient2774"><stop id="stop2776" offset="0" stop-color="#aa3741" stop-opacity="1"/><stop id="stop2778" offset="1" stop-color="#fff" stop-opacity="0"/></linearGradient><linearGradient id="linearGradient15788"><stop id="stop15790" offset="0" stop-color="#ffc768" stop-opacity="1"/><stop id="stop15792" offset="1" stop-color="#ff8400" stop-opacity="1"/></linearGradient><radialGradient id="radialGradient1913" cx="-399.691" cy="462.252" r="37.197" fx="-399.691" fy="462.252" gradientTransform="matrix(1.635675,-1.961020e-6,1.094146e-6,1.622788,254.0731,-287.8854)" gradientUnits="userSpaceOnUse" xlink:href="#linearGradient15788"/><linearGradient id="linearGradient15050"><stop id="stop15052" offset="0" stop-color="#fff" stop-opacity="1"/><stop id="stop15054" offset="1" stop-color="#fff" stop-opacity="0"/></linearGradient><linearGradient id="linearGradient1911" x1="-281.985" x2="-281.985" y1="335.071" y2="350.791" gradientUnits="userSpaceOnUse" xlink:href="#linearGradient15050"/><linearGradient id="linearGradient11116"><stop id="stop11118" offset="0" stop-color="#143e7b" stop-opacity="1"/><stop id="stop11120" offset="1" stop-color="#93aacc" stop-opacity="1"/></linearGradient><linearGradient id="linearGradient1909" x1="-336" x2="-329.679" y1="266.239" y2="266.239" gradientTransform="matrix(0.000000,-0.727608,0.727608,0.000000,-170.0531,-217.5186)" gradientUnits="userSpaceOnUse" xlink:href="#linearGradient11116"/><linearGradient id="linearGradient7820" x1="-34.629" x2="-9.096" y1="254.022" y2="254.022" gradientTransform="matrix(0.814604,0.000000,0.000000,0.814604,-6.392184,45.16642)" gradientUnits="userSpaceOnUse" xlink:href="#linearGradient11116"/><linearGradient id="linearGradient2212"><stop id="stop2214" offset="0" stop-color="#143e7b" stop-opacity="1"/><stop id="stop2216" offset="1" stop-color="#93aacc" stop-opacity="1"/></linearGradient><linearGradient id="linearGradient7822" x1="-31.224" x2="-27.273" y1="242.485" y2="258.669" gradientTransform="matrix(0.630906,0.000000,0.000000,0.644661,-11.33490,88.76356)" gradientUnits="userSpaceOnUse" xlink:href="#linearGradient15050"/><linearGradient id="linearGradient6344" x1="-567.311" x2="-567.127" y1="166.561" y2="211.99" gradientTransform="matrix(0.164338,0.000000,0.000000,1.122383,101.0243,-188.2016)" gradientUnits="userSpaceOnUse" xlink:href="#linearGradient15929"/><linearGradient id="linearGradient15929"><stop id="stop15931" offset="0" stop-color="#cbcbcb" stop-opacity="1"/><stop id="stop15933" offset=".5" stop-color="#fff" stop-opacity="1"/><stop id="stop15935" offset="1" stop-color="#cbcbcb" stop-opacity="1"/></linearGradient><linearGradient id="linearGradient2229" x1="-567.311" x2="-567.127" y1="166.561" y2="211.99" gradientTransform="matrix(0.164338,0.000000,0.000000,1.122383,101.0243,-188.2016)" gradientUnits="userSpaceOnUse" xlink:href="#linearGradient15929"/><radialGradient id="radialGradient2239" cx="-399.691" cy="462.252" r="37.197" fx="-399.691" fy="462.252" gradientTransform="matrix(1.635675,-1.961020e-6,1.094146e-6,1.622788,254.0731,-287.8854)" gradientUnits="userSpaceOnUse" xlink:href="#linearGradient15788"/><linearGradient id="linearGradient2241" x1="-281.985" x2="-281.985" y1="335.071" y2="350.791" gradientUnits="userSpaceOnUse" xlink:href="#linearGradient15050"/><linearGradient id="linearGradient2243" x1="-336" x2="-329.679" y1="266.239" y2="266.239" gradientTransform="matrix(0.000000,-0.727608,0.727608,0.000000,-170.0531,-217.5186)" gradientUnits="userSpaceOnUse" xlink:href="#linearGradient11116"/><radialGradient id="radialGradient1358" cx="-399.691" cy="462.252" r="37.197" fx="-399.691" fy="462.252" gradientTransform="matrix(1.635675,-1.961020e-6,1.094146e-6,1.622788,254.0731,-287.8854)" gradientUnits="userSpaceOnUse" xlink:href="#linearGradient15788"/><linearGradient id="linearGradient1360" x1="-281.985" x2="-281.985" y1="335.071" y2="350.791" gradientUnits="userSpaceOnUse" xlink:href="#linearGradient15050"/><linearGradient id="linearGradient1362" x1="-336" x2="-329.679" y1="266.239" y2="266.239" gradientTransform="matrix(0.000000,-0.727608,0.727608,0.000000,-170.0531,-217.5186)" gradientUnits="userSpaceOnUse" xlink:href="#linearGradient11116"/></defs><metadata id="metadata1926"/><g id="layer1"><rect id="rect6342" width="23.571" height="23.57" x=".215" y="8.215" fill="url(#linearGradient2229)" fill-opacity="1" fill-rule="nonzero" stroke="#c3c3c3" stroke-dasharray="none" stroke-linecap="round" stroke-linejoin="round" stroke-miterlimit="4" stroke-opacity="1" stroke-width=".429" opacity="1" ry="4.49"/><g id="g2231" transform="matrix(0.745278,0.000000,0.000000,0.745278,0.332594,7.908474)"><path id="path1870" fill="url(#radialGradient2239)" fill-opacity="1" fill-rule="nonzero" stroke="#b3b3b3" stroke-dasharray="none" stroke-linecap="round" stroke-linejoin="round" stroke-miterlimit="4" stroke-opacity="1" stroke-width="1.873" d="M -362.74475 462.25150 A 36.946224 36.466404 0 1 1 -436.63720,462.25150 A 36.946224 36.466404 0 1 1 -362.74475 462.25150 z" opacity="1" transform="matrix(0.286744,0.000000,0.000000,0.286744,129.3056,-116.3329)"/><path id="path1872" fill="url(#linearGradient2241)" fill-opacity="1" fill-rule="nonzero" stroke="none" stroke-dasharray="none" stroke-linecap="round" stroke-linejoin="round" stroke-miterlimit="4" stroke-opacity="1" stroke-width=".399" d="M -273.91787,347.03445 A 8.0669918,7.9770255 0 1 1 -273.91822,346.96076" opacity="1" transform="matrix(0.000000,1.055111,-0.853600,0.000000,313.2818,313.6803)"/><path id="path1876" fill="#656565" fill-opacity="1" fill-rule="nonzero" stroke="#b3b3b3" stroke-dasharray="none" stroke-linecap="round" stroke-linejoin="round" stroke-miterlimit="4" stroke-opacity="1" stroke-width="1.247" d="M -407.84793 455.05420 A 6.7174954 7.1973166 0 1 1 -421.28293,455.05420 A 6.7174954 7.1973166 0 1 1 -407.84793 455.05420 z" opacity="1" transform="matrix(0.286744,0.000000,0.000000,0.286744,136.7140,-116.4207)"/><path id="path1878" fill="none" fill-opacity="1" fill-rule="evenodd" stroke="#bc1e1e" stroke-dasharray="none" stroke-linecap="round" stroke-linejoin="round" stroke-miterlimit="4" stroke-opacity="1" stroke-width="1.614" d="M 9.0975544,18.528352 C 9.0975544,18.528352 14.173324,28.466813 20.250906,18.636092"/><path id="path1907" fill="url(#linearGradient2243)" fill-opacity="1" fill-rule="evenodd" stroke="#3c3c3c" stroke-linecap="round" stroke-linejoin="round" stroke-opacity="1" stroke-width=".302" d="M 20.004066,22.510528 L 23.636765,26.807444 L 27.325666,22.510528 L 20.004066,22.510528 z"/><path id="path3508" fill="#656565" fill-opacity="1" fill-rule="nonzero" stroke="#b3b3b3" stroke-dasharray="none" stroke-linecap="round" stroke-linejoin="round" stroke-miterlimit="4" stroke-opacity="1" stroke-width="1.247" d="M -407.84793 455.05420 A 6.7174954 7.1973166 0 1 1 -421.28293,455.05420 A 6.7174954 7.1973166 0 1 1 -407.84793 455.05420 z" opacity="1" transform="matrix(0.286744,0.000000,0.000000,0.286744,130.9869,-116.4666)"/></g><rect id="rect1340" width="23.571" height="23.57" x="27.025" y="8.215" fill="none" fill-opacity="1" fill-rule="nonzero" stroke="#c3c3c3" stroke-dasharray="none" stroke-linecap="round" stroke-linejoin="round" stroke-miterlimit="4" stroke-opacity="1" stroke-width=".429" opacity="1" ry="4.49"/><g id="g1342" transform="matrix(0.745278,0.000000,0.000000,0.745278,27.14259,7.907975)"><path id="path1344" fill="url(#radialGradient1358)" fill-opacity="1" fill-rule="nonzero" stroke="#b3b3b3" stroke-dasharray="none" stroke-linecap="round" stroke-linejoin="round" stroke-miterlimit="4" stroke-opacity="1" stroke-width="1.873" d="M -362.74475 462.25150 A 36.946224 36.466404 0 1 1 -436.63720,462.25150 A 36.946224 36.466404 0 1 1 -362.74475 462.25150 z" opacity="1" transform="matrix(0.286744,0.000000,0.000000,0.286744,129.3056,-116.3329)"/><path id="path1346" fill="url(#linearGradient1360)" fill-opacity="1" fill-rule="nonzero" stroke="none" stroke-dasharray="none" stroke-linecap="round" stroke-linejoin="round" stroke-miterlimit="4" stroke-opacity="1" stroke-width=".399" d="M -273.91787,347.03445 A 8.0669918,7.9770255 0 1 1 -273.91822,346.96076" opacity="1" transform="matrix(0.000000,1.055111,-0.853600,0.000000,313.2818,313.6803)"/><path id="path1348" fill="#656565" fill-opacity="1" fill-rule="nonzero" stroke="#b3b3b3" stroke-dasharray="none" stroke-linecap="round" stroke-linejoin="round" stroke-miterlimit="4" stroke-opacity="1" stroke-width="1.247" d="M -407.84793 455.05420 A 6.7174954 7.1973166 0 1 1 -421.28293,455.05420 A 6.7174954 7.1973166 0 1 1 -407.84793 455.05420 z" opacity="1" transform="matrix(0.286744,0.000000,0.000000,0.286744,136.7140,-116.4207)"/><path id="path1350" fill="none" fill-opacity="1" fill-rule="evenodd" stroke="#bc1e1e" stroke-dasharray="none" stroke-linecap="round" stroke-linejoin="round" stroke-miterlimit="4" stroke-opacity="1" stroke-width="1.614" d="M 9.0975544,18.528352 C 9.0975544,18.528352 14.173324,28.466813 20.250906,18.636092"/><path id="path1352" fill="url(#linearGradient1362)" fill-opacity="1" fill-rule="evenodd" stroke="#3c3c3c" stroke-linecap="round" stroke-linejoin="round" stroke-opacity="1" stroke-width=".302" d="M 20.004066,22.510528 L 23.636765,26.807444 L 27.325666,22.510528 L 20.004066,22.510528 z"/><path id="path1354" fill="#656565" fill-opacity="1" fill-rule="nonzero" stroke="#b3b3b3" stroke-dasharray="none" stroke-linecap="round" stroke-linejoin="round" stroke-miterlimit="4" stroke-opacity="1" stroke-width="1.247" d="M -407.84793 455.05420 A 6.7174954 7.1973166 0 1 1 -421.28293,455.05420 A 6.7174954 7.1973166 0 1 1 -407.84793 455.05420 z" opacity="1" transform="matrix(0.286744,0.000000,0.000000,0.286744,130.9869,-116.4666)"/></g></g></svg>