<svg xmlns="http://www.w3.org/2000/svg" xmlns:cc="http://web.resource.org/cc/" xmlns:svg="http://www.w3.org/2000/svg" xmlns:xlink="http://www.w3.org/1999/xlink" id="svg1892" width="32" height="32"><defs id="defs1894"><linearGradient id="linearGradient2086"><stop id="stop2088" offset="0" stop-color="#143e7b" stop-opacity="1"/><stop id="stop2090" offset="1" stop-color="#d1d4e1" stop-opacity="1"/></linearGradient><radialGradient id="radialGradient6628" cx="85.192" cy="148.795" r="4.204" fx="85.192" fy="148.795" gradientTransform="matrix(0.539767,1.563546,-1.371278,0.475708,241.7855,-56.07594)" gradientUnits="userSpaceOnUse" xlink:href="#linearGradient2086"/><linearGradient id="linearGradient1888" x1="9.842" x2="15.34" y1="3.565" y2="3.565" gradientTransform="matrix(0.977778,0,0,0.977778,6.34117,6.631411)" gradientUnits="userSpaceOnUse" xlink:href="#linearGradient7006"/><linearGradient id="linearGradient7006"><stop id="stop2072" offset="0" stop-color="#ff8400" stop-opacity="1"/><stop id="stop7010" offset="1" stop-color="#ffc768" stop-opacity="1"/></linearGradient><linearGradient id="linearGradient1890" x1="3.724" x2="9.926" y1="14.153" y2="14.153" gradientUnits="userSpaceOnUse" xlink:href="#linearGradient7006"/><linearGradient id="linearGradient1916" x1="4.955" x2="10.984" y1="14.424" y2="13.934" gradientUnits="userSpaceOnUse" xlink:href="#linearGradient2086"/><linearGradient id="linearGradient1942" x1="9.842" x2="15.701" y1="3.565" y2="5.855" gradientTransform="matrix(0.977778,0,0,0.977778,6.749072,7.384899)" gradientUnits="userSpaceOnUse" xlink:href="#linearGradient2086"/></defs><metadata id="metadata1897"/><g id="layer1"><path id="path2798" fill="url(#linearGradient1942)" fill-opacity="1" fill-rule="evenodd" stroke="#6d6d6d" stroke-dasharray="none" stroke-linecap="butt" stroke-linejoin="miter" stroke-miterlimit="4" stroke-opacity="1" stroke-width=".308" d="M 16.55763,7.3555899 C 18.008435,7.4018004 19.678999,7.7180228 20.163059,9.9154456 C 20.625164,12.013196 19.64408,12.769829 21.59406,14.387194 C 19.154876,14.436689 18.745955,12.985495 18.507609,11.680583 C 18.507609,11.680583 18.184135,10.469971 16.603841,10.386691 C 16.409858,10.349621 16.651067,7.270786 16.55763,7.3555899 z"/><rect id="rect1904" width=".796" height="14.656" x="15.891" y="7.362" fill="#6c6c6c" fill-opacity="1" stroke="#6c6c6c" stroke-dasharray="none" stroke-linecap="round" stroke-linejoin="round" stroke-miterlimit="4" stroke-opacity="1" stroke-width=".308" opacity=".99"/><path id="path1906" fill="url(#linearGradient1916)" fill-opacity="1" stroke="#6c6c6c" stroke-dasharray="none" stroke-linecap="round" stroke-linejoin="round" stroke-miterlimit="4" stroke-opacity="1" stroke-width=".3" d="M 9.7757428,14.15297 A 2.9507425,1.9821782 0 1 1 9.7756168,14.134658" opacity=".99" transform="matrix(1.049595,-0.229951,0.231468,1.042719,3.103502,9.27531)"/><rect id="rect7297" width="1.156" height="21.298" x="22.006" y="-12.05" fill="#6c6c6c" fill-opacity="1" stroke="#6c6c6c" stroke-dasharray="none" stroke-linecap="round" stroke-linejoin="round" stroke-miterlimit="4" stroke-opacity="1" stroke-width=".447" opacity=".99" transform="matrix(0.66198,0.749522,-0.749522,0.66198,0,0)"/></g></svg>