<svg xmlns="http://www.w3.org/2000/svg" xmlns:cc="http://web.resource.org/cc/" xmlns:svg="http://www.w3.org/2000/svg" xmlns:xlink="http://www.w3.org/1999/xlink" id="svg2" width="744.094" height="1052.362"><defs id="defs4"><linearGradient id="linearGradient11773"><stop id="stop11775" offset="0" stop-color="#ff7400" stop-opacity="1"/><stop id="stop11777" offset="1" stop-color="#ffc768" stop-opacity="1"/></linearGradient><linearGradient id="linearGradient11765"><stop id="stop11767" offset="0" stop-color="#868383" stop-opacity="1"/><stop id="stop11769" offset="1" stop-color="#fff" stop-opacity="1"/></linearGradient><linearGradient id="linearGradient5434"><stop id="stop5436" offset="0" stop-color="#ff8400" stop-opacity="1"/><stop id="stop5438" offset="1" stop-color="#ffc768" stop-opacity="1"/></linearGradient><linearGradient id="linearGradient11771" x1="271.424" x2="269.461" y1="678.258" y2="678.258" gradientUnits="userSpaceOnUse" xlink:href="#linearGradient11765"/><linearGradient id="linearGradient1893" x1="264.754" x2="271.991" y1="680.259" y2="680.926" gradientTransform="matrix(0.720165,0,0,0.720165,74.00162,190.2926)" gradientUnits="userSpaceOnUse" xlink:href="#linearGradient5434"/><linearGradient id="linearGradient1898" x1="261.356" x2="264.932" y1="680.181" y2="680.181" gradientTransform="matrix(0.506553,0,0,0.808992,130.6113,129.8)" gradientUnits="userSpaceOnUse" xlink:href="#linearGradient5434"/></defs><metadata id="metadata7"/><g id="layer1"><g id="g2787" transform="matrix(1.222514,0,0,1.222514,-58.51716,-149.8814)"><rect id="rect1872" width="1.729" height="5.146" x="263.043" y="677.489" fill="url(#linearGradient1898)" fill-opacity="1" stroke="#000" stroke-dasharray="none" stroke-linecap="round" stroke-linejoin="round" stroke-miterlimit="4" stroke-opacity="1" stroke-width=".104" opacity=".99" rx=".548" ry=".548"/><path id="path7291" fill="#000" fill-opacity="1" fill-rule="evenodd" stroke="#000" stroke-dasharray="none" stroke-linecap="round" stroke-linejoin="round" stroke-miterlimit="4" stroke-opacity="1" stroke-width=".1" d="M 273.12841,684.80353 C 274.12304,684.80353 275.37207,682.81272 275.36943,680.3056 C 275.36697,677.95971 274.38584,675.68154 273.1126,675.68254 C 275.01052,676.61217 274.93869,684.0999 273.12841,684.80353 z"/><path id="path8183" fill="#000" fill-opacity="1" fill-rule="evenodd" stroke="#000" stroke-dasharray="none" stroke-linecap="round" stroke-linejoin="round" stroke-miterlimit="4" stroke-opacity="1" stroke-width=".072" d="M 276.05306,683.59801 C 276.76789,683.59801 277.66554,682.16725 277.66365,680.36542 C 277.66188,678.67947 276.95675,677.04218 276.0417,677.0429 C 277.4057,677.71101 277.35408,683.09233 276.05306,683.59801 z"/><path id="path2768" fill="url(#linearGradient1893)" fill-opacity="1" fill-rule="evenodd" stroke="#000" stroke-dasharray="none" stroke-linecap="round" stroke-linejoin="round" stroke-miterlimit="4" stroke-opacity="1" stroke-width=".125" d="M 264.73043,677.84455 L 264.73773,682.425 C 264.73336,682.43754 270.05566,685.91602 270.04533,685.88966 C 271.28819,685.88966 272.84896,683.40201 272.84564,680.26919 C 272.84259,677.33781 271.61658,674.49108 270.02557,674.49232 L 264.73043,677.84455 z"/><path id="path8203" fill="url(#linearGradient11771)" fill-opacity="1" stroke="#000" stroke-dasharray="none" stroke-linecap="round" stroke-linejoin="round" stroke-miterlimit="4" stroke-opacity="1" stroke-width=".069" d="M 271.60476,678.25848 A 0.8523162,3.8196392 0 1 1 271.60472,678.2232" opacity=".99" transform="matrix(3.262568,0,0,1.498684,-613.0143,-336.2797)"/><path id="path9983" fill="#000" fill-opacity="1" stroke="#000" stroke-dasharray="none" stroke-linecap="round" stroke-linejoin="round" stroke-miterlimit="4" stroke-opacity="1" stroke-width=".069" d="M 271.60476,678.25848 A 0.8523162,3.8196392 0 1 1 271.60472,678.2232" opacity=".99" transform="matrix(1.469547,0,0,0.675047,-128.6701,222.4224)"/></g></g></svg>