<svg xmlns="http://www.w3.org/2000/svg" xmlns:cc="http://web.resource.org/cc/" xmlns:svg="http://www.w3.org/2000/svg" xmlns:xlink="http://www.w3.org/1999/xlink" id="svg8088" width="64" height="64"><defs id="defs8090"><linearGradient id="linearGradient1541" x1="33.026" x2="33.205" y1="51.316" y2="31.565" gradientTransform="matrix(1.358340,0.000000,0.000000,1.358340,-10.02940,-17.40218)" gradientUnits="userSpaceOnUse" xlink:href="#linearGradient5061"/><linearGradient id="linearGradient1539" x1="31.316" x2="31.316" y1="17.585" y2="26.235" gradientTransform="matrix(1.358340,0.000000,0.000000,1.358340,-10.02940,-16.04384)" gradientUnits="userSpaceOnUse" xlink:href="#linearGradient5061"/><linearGradient id="linearGradient1536" x1="31.29" x2="31.29" y1="47.526" y2="31.339" gradientTransform="matrix(1.358340,0.000000,0.000000,1.358340,-10.02940,-17.40218)" gradientUnits="userSpaceOnUse" xlink:href="#linearGradient5061"/><linearGradient id="linearGradient1534" x1="31.449" x2="31.449" y1="41.978" y2="24.899" gradientTransform="matrix(1.397019,0.000000,0.000000,1.287363,-11.46240,-6.886819)" gradientUnits="userSpaceOnUse" xlink:href="#linearGradient5061"/><linearGradient id="linearGradient15929"><stop id="stop15931" offset="0" stop-color="#cbcbcb" stop-opacity="1"/><stop id="stop15933" offset=".5" stop-color="#fff" stop-opacity="1"/><stop id="stop15935" offset="1" stop-color="#cbcbcb" stop-opacity="1"/></linearGradient><radialGradient id="radialGradient1531" cx="33.39" cy="37.9" r="12.315" fx="33.39" fy="37.9" gradientTransform="matrix(-2.490140e-2,-1.140089,1.708421,-3.731158e-2,-24.83850,69.49117)" gradientUnits="userSpaceOnUse" xlink:href="#linearGradient15929"/><linearGradient id="linearGradient1528" x1="17.293" x2="17.293" y1="21.471" y2="28.477" gradientTransform="matrix(1.358340,0.000000,0.000000,1.404286,-9.490404,-17.67015)" gradientUnits="userSpaceOnUse" xlink:href="#linearGradient3724"/><linearGradient id="linearGradient1524" x1="17.293" x2="17.293" y1="35.513" y2="23.828" gradientTransform="matrix(1.358340,0.000000,0.000000,1.404286,-9.490404,-17.67015)" gradientUnits="userSpaceOnUse" xlink:href="#linearGradient3724"/><linearGradient id="linearGradient5061"><stop id="stop5063" offset="0" stop-color="#ff5000" stop-opacity="1"/><stop id="stop8086" offset=".5" stop-color="#ff8400" stop-opacity="1"/><stop id="stop5065" offset="1" stop-color="#ffc768" stop-opacity="1"/></linearGradient><linearGradient id="linearGradient1520" x1="17.243" x2="17.269" y1="47.842" y2="41.283" gradientTransform="matrix(-1.358329,5.215763e-3,-5.392174e-3,-1.404275,74.77510,79.57477)" gradientUnits="userSpaceOnUse" xlink:href="#linearGradient5061"/><linearGradient id="linearGradient3724"><stop id="stop3726" offset="0" stop-color="#ff8400" stop-opacity="1"/><stop id="stop3728" offset="1" stop-color="#e4948f" stop-opacity="0"/></linearGradient><linearGradient id="linearGradient1517" x1="17.298" x2="17.252" y1="33.821" y2="45.417" gradientTransform="matrix(-1.358329,5.215763e-3,-5.392174e-3,-1.404275,74.77510,79.57477)" gradientUnits="userSpaceOnUse" xlink:href="#linearGradient3724"/></defs><metadata id="metadata8093"/><g id="layer1"><rect id="rect1481" width="43.444" height="43.443" x="11.673" y="9.733" fill="none" fill-opacity="1" fill-rule="nonzero" stroke="#646464" stroke-dasharray="none" stroke-linecap="round" stroke-linejoin="round" stroke-miterlimit="4" stroke-opacity="1" stroke-width="2.056" opacity="1" ry="4.985"/><rect id="rect1483" width="42.608" height="42.609" x="11.204" y="9.264" fill="url(#linearGradient1539)" fill-opacity="1" fill-rule="nonzero" stroke="url(#linearGradient1541)" stroke-dasharray="none" stroke-linecap="round" stroke-linejoin="round" stroke-miterlimit="4" stroke-opacity="1" stroke-width=".858" opacity="1" ry="4.116"/><rect id="rect1485" width="42.68" height="31.242" x="11.133" y="20.631" fill="url(#linearGradient1534)" fill-opacity="1" fill-rule="nonzero" stroke="url(#linearGradient1536)" stroke-dasharray="none" stroke-linecap="round" stroke-linejoin="round" stroke-miterlimit="4" stroke-opacity="1" stroke-width=".858" opacity="1" ry="4.035"/><path id="path1487" fill="url(#radialGradient1531)" fill-opacity="1" fill-rule="evenodd" stroke="#404e67" stroke-dasharray="none" stroke-linejoin="bevel" stroke-miterlimit="4" stroke-opacity=".665" stroke-width=".825" d="M 22.271386,27.245701 C 24.660776,24.230631 31.487116,21.699194 31.774186,24.716631 C 32.053096,27.648191 29.176166,28.093371 31.204086,31.300191 C 33.083876,34.272771 46.465446,33.735371 48.343686,31.318121 C 49.913406,29.297921 46.112996,24.408731 44.930146,23.385961 C 42.154016,20.985535 40.457946,20.391773 39.282326,19.974665 C 38.447966,19.678627 30.485806,16.789358 22.620426,20.744075 C 18.197356,22.967994 16.006576,26.940111 15.980966,29.571161 C 15.817806,46.335861 47.052756,41.020721 49.293576,39.911321 C 19.930486,39.879141 19.185036,31.140211 22.271386,27.245701 z" class="fil0 str3" opacity="1"/><path id="path1489" fill="url(#linearGradient1528)" fill-opacity="1" fill-rule="evenodd" stroke="none" stroke-linecap="round" stroke-linejoin="round" stroke-opacity="1" stroke-width="1" d="M 11.917206,12.830568 C 11.917206,12.830568 16.742546,31.255941 11.704006,49.505751 C 11.704006,49.505751 11.967006,12.791363 11.765956,12.481298"/><path id="path1491" fill="url(#linearGradient1524)" fill-opacity="1" fill-rule="evenodd" stroke="none" stroke-linecap="round" stroke-linejoin="round" stroke-opacity="1" stroke-width="1" d="M 11.917206,12.830568 C 11.917206,12.830568 16.742546,31.255941 11.704006,49.505751 C 11.704006,49.505751 11.967006,12.791363 11.765956,12.481298"/><path id="path1493" fill="url(#linearGradient1520)" fill-opacity="1" fill-rule="evenodd" stroke="none" stroke-linecap="round" stroke-linejoin="round" stroke-opacity="1" stroke-width="1" d="M 53.250596,49.156481 C 53.250596,49.156481 48.354546,30.749771 53.322976,12.480750 C 53.322976,12.480750 53.374236,48.845931 53.576476,49.155231"/><path id="path1495" fill="url(#linearGradient1517)" fill-opacity="1" fill-rule="evenodd" stroke="none" stroke-linecap="round" stroke-linejoin="round" stroke-opacity="1" stroke-width="1" d="M 53.250596,49.156481 C 53.250596,49.156481 48.354546,30.749771 53.322976,12.480750 C 53.322976,12.480750 53.374236,48.845931 53.576476,49.155231"/></g></svg>